<?xml version="1.0" standalone="no"?>
<!DOCTYPE svg PUBLIC "-//W3C//DTD SVG 20010904//EN"
 "http://www.w3.org/TR/2001/REC-SVG-20010904/DTD/svg10.dtd">
<svg version="1.0" xmlns="http://www.w3.org/2000/svg"
 width="1024.000000pt" height="992.000000pt" viewBox="0 0 1024.000000 992.000000"
 preserveAspectRatio="xMidYMid meet">

<g transform="translate(0.000000,992.000000) scale(0.100000,-0.100000)"
fill="#000000" stroke="none">
<path d="M6410 9745 c-284 -41 -452 -178 -542 -444 -31 -90 -33 -105 -32 -226
0 -107 5 -149 27 -235 41 -157 43 -196 19 -277 -40 -131 -106 -207 -228 -265
-89 -41 -177 -65 -269 -70 l-60 -4 3 -52 c3 -40 -1 -58 -17 -81 -12 -16 -21
-32 -21 -35 0 -3 45 -6 99 -6 l100 0 27 -35 c31 -41 59 -44 164 -19 190 44
355 181 438 361 76 166 86 357 29 588 -19 77 -37 169 -41 205 -13 134 31 257
124 350 71 71 135 104 239 126 149 30 290 5 464 -82 96 -49 104 -45 58 28 -35
55 -74 84 -167 126 -118 53 -261 69 -414 47z"/>
<path d="M6931 9688 c0 -7 19 -26 41 -43 62 -45 80 -75 87 -146 10 -93 28
-114 51 -59 17 40 5 94 -33 154 -41 65 -148 134 -146 94z"/>
<path d="M6456 9589 c-69 -16 -174 -79 -225 -134 -101 -111 -116 -266 -50
-510 28 -107 32 -136 33 -260 1 -167 -18 -246 -92 -389 -35 -69 -64 -108 -123
-166 -99 -99 -190 -145 -342 -174 l-108 -21 3 -65 3 -65 81 2 c290 8 523 151
643 396 84 173 94 391 28 627 -77 274 -87 375 -42 465 33 69 83 121 141 147
69 32 204 31 289 -2 72 -28 153 -106 181 -174 10 -25 22 -46 25 -46 3 0 10 10
16 23 6 12 32 48 58 79 56 68 55 78 -19 145 -97 89 -223 134 -372 132 -49 -1
-106 -5 -128 -10z"/>
<path d="M4535 9500 c-265 -27 -683 -112 -829 -169 -31 -12 -32 -8 20 -73 12
-15 29 -62 39 -105 9 -43 19 -82 22 -86 2 -4 19 1 36 12 138 84 588 181 992
214 l160 13 -33 18 c-18 9 -31 23 -29 29 5 17 237 21 357 7 91 -11 147 -21
418 -71 77 -14 126 -19 132 -13 5 5 18 37 29 72 l19 63 -23 9 c-32 12 -338 58
-470 71 -148 14 -728 20 -840 9z"/>
<path d="M3585 9484 c-182 -46 -273 -123 -326 -279 -33 -95 -32 -245 0 -355
38 -127 38 -120 2 -120 -41 0 -71 -16 -71 -37 0 -51 113 -173 205 -221 43 -23
61 -27 133 -26 69 1 92 6 130 27 26 14 84 37 130 52 45 15 82 30 82 35 0 13
-45 41 -168 106 -123 64 -189 120 -221 189 -67 143 -35 362 69 466 54 54 103
81 178 99 58 13 62 27 16 49 -30 15 -123 24 -159 15z"/>
<path d="M7145 9388 c-59 -14 -146 -76 -172 -123 -25 -45 -29 -107 -9 -144 7
-13 33 -37 57 -53 39 -26 51 -29 102 -26 46 4 63 10 87 33 37 35 46 80 27 127
-19 46 -71 67 -114 46 -30 -14 -42 -50 -23 -73 9 -11 7 -16 -9 -24 -17 -10
-23 -7 -37 13 -13 21 -14 31 -4 63 19 60 46 83 97 83 37 0 48 -5 78 -37 79
-85 69 -208 -21 -251 l-36 -16 28 -8 c15 -4 43 -1 65 6 22 8 39 10 39 6 0 -9
-46 -30 -65 -30 -28 0 -15 -15 23 -27 34 -11 48 -9 127 18 97 33 135 59 135
96 0 46 57 159 106 207 14 15 13 16 -11 16 -72 0 -152 -59 -220 -165 -47 -73
-85 -118 -85 -101 0 4 13 26 29 49 15 23 42 70 59 104 43 84 85 115 170 123
60 6 63 7 22 10 -25 1 -72 1 -105 0 l-60 -2 19 21 c24 27 17 34 -56 55 -61 17
-179 19 -243 4z m265 -48 c13 -8 13 -10 -2 -10 -9 0 -28 -12 -42 -27 -29 -31
-40 -27 -31 10 9 32 46 46 75 27z"/>
<path d="M5038 9333 c7 -3 16 -2 19 1 4 3 -2 6 -13 5 -11 0 -14 -3 -6 -6z"/>
<path d="M5085 9330 c11 -5 30 -9 42 -9 38 -2 133 -42 133 -57 0 -8 3 -14 8
-14 16 0 81 -119 101 -184 24 -79 26 -112 7 -181 -28 -105 -84 -192 -154 -236
-57 -36 -85 -36 -130 -3 -59 45 -127 66 -208 63 l-72 -3 -39 49 c-58 73 -69
81 -91 63 -9 -8 -36 -23 -60 -33 -45 -19 -92 -66 -138 -134 -24 -36 -26 -48
-22 -111 3 -65 6 -73 41 -107 20 -20 38 -35 41 -32 2 2 -2 31 -10 64 -27 117
2 188 101 240 39 21 61 40 65 54 9 41 24 27 57 -55 30 -75 34 -95 43 -248 6
-107 16 -180 25 -204 19 -45 56 -84 153 -164 l74 -61 63 6 c105 10 195 73 195
135 0 49 -14 55 -46 21 -58 -63 -170 -95 -237 -70 -30 12 -82 104 -103 181 -8
30 -14 81 -14 115 0 33 -5 78 -11 100 -14 51 -60 145 -71 145 -4 0 -8 5 -8 10
0 6 36 10 88 10 73 0 96 -4 132 -23 51 -27 81 -64 83 -101 1 -14 5 -26 10 -26
4 0 7 -5 7 -11 0 -5 -25 -21 -56 -35 -30 -13 -53 -28 -49 -33 12 -21 139 -83
198 -97 57 -14 68 -14 119 1 206 59 347 364 283 610 -46 174 -168 302 -335
349 -61 17 -248 31 -215 16z"/>
<path d="M3572 9280 c-86 -52 -115 -285 -52 -415 37 -76 99 -128 197 -165 113
-42 173 -72 197 -99 20 -22 42 -29 30 -10 -4 7 0 9 14 5 15 -5 21 -1 24 18 6
33 -10 56 -115 166 -114 120 -128 147 -138 281 -6 91 -22 160 -34 147 -1 -1
-5 -32 -8 -67 -4 -35 -11 -89 -17 -120 -14 -67 2 -114 50 -154 16 -14 30 -31
30 -37 0 -6 41 -51 90 -100 102 -101 122 -145 38 -81 -29 21 -91 60 -136 85
-97 53 -169 111 -195 155 -25 43 -14 39 35 -15 29 -32 67 -58 117 -81 41 -18
76 -31 79 -29 2 3 -17 26 -43 53 l-47 48 23 -40 c31 -54 21 -44 -44 47 -66 92
-114 189 -126 255 -5 26 -8 50 -6 52 2 1 26 -41 53 -95 l50 -99 8 40 c4 22 8
83 8 136 1 82 -2 100 -18 118 -23 26 -23 26 -64 1z"/>
<path d="M6291 9286 c-7 -8 -11 -31 -9 -52 l3 -38 135 -26 c291 -58 526 -137
825 -279 174 -83 231 -103 180 -64 -37 28 -320 164 -365 175 -31 8 -63 27
-101 63 -86 79 -247 149 -469 206 -127 32 -182 36 -199 15z"/>
<path d="M3179 9165 c-14 -8 -71 -32 -128 -54 -315 -126 -655 -323 -976 -565
-133 -102 -207 -167 -406 -363 l-137 -133 63 -61 c35 -34 74 -76 87 -95 28
-42 60 -53 166 -61 45 -3 80 -8 78 -11 -3 -2 12 -17 33 -33 70 -50 69 -70 -2
-34 -50 25 -225 70 -235 60 -11 -11 23 -33 78 -50 72 -23 113 -54 138 -106
l21 -42 -39 38 -40 39 20 -39 c11 -22 20 -58 20 -80 0 -65 -28 -157 -61 -198
-25 -30 -29 -43 -24 -68 4 -17 13 -33 20 -35 7 -3 16 -16 19 -29 3 -13 18 -37
32 -54 27 -33 61 -39 108 -21 25 9 26 8 26 -24 0 -40 4 -44 34 -39 19 4 24 14
34 66 7 40 33 106 73 184 58 114 72 157 37 116 -69 -84 -134 -226 -140 -307
-1 -19 -5 -33 -9 -31 -9 6 -27 80 -34 142 -5 49 -4 52 22 65 25 12 28 19 26
58 -2 60 -40 158 -74 193 l-28 27 59 -2 c68 -3 82 6 115 72 24 48 130 154 164
165 29 9 17 29 -42 69 -57 38 -104 51 -127 37 -12 -8 -11 -11 5 -17 51 -17
135 -57 135 -64 0 -11 -76 6 -138 30 -62 24 -63 24 -86 7 -17 -13 -17 -15 -2
-45 14 -27 14 -32 2 -32 -21 0 -134 155 -122 168 3 2 43 -5 88 -16 l83 -20
130 130 c224 225 580 484 861 626 123 63 117 53 99 152 -18 100 -19 204 -4
248 15 43 9 53 -22 37z m-1171 -1342 c5 -18 -23 -16 -39 3 -11 14 -10 15 11
12 13 -1 25 -9 28 -15z m-9 -333 c0 -9 -4 -8 -9 5 -5 11 -9 27 -9 35 0 9 4 8
9 -5 5 -11 9 -27 9 -35z m8 -42 c-3 -8 -6 -5 -6 6 -1 11 2 17 5 13 3 -3 4 -12
1 -19z"/>
<path d="M4350 9063 c0 -27 -2 -73 -5 -103 l-5 -55 19 65 c11 36 20 57 20 48
1 -20 65 -208 79 -233 21 -38 22 8 3 79 -20 73 -94 246 -105 246 -3 0 -6 -21
-6 -47z"/>
<path d="M4079 9079 c59 -36 136 -123 162 -182 13 -31 27 -57 32 -57 4 0 7 20
7 44 0 38 -6 51 -46 95 -54 60 -116 105 -159 115 l-30 7 34 -22z"/>
<path d="M3904 9076 c-18 -8 -50 -31 -73 -51 -70 -64 -56 -110 75 -246 l84
-87 10 37 c19 73 22 127 11 221 -17 135 -35 157 -107 126z"/>
<path d="M4037 9018 c4 -29 6 -116 4 -193 -7 -285 -9 -260 19 -263 l25 -3 5
108 c3 59 5 157 5 216 0 107 0 108 19 85 17 -21 18 -36 13 -175 -4 -84 -3
-155 2 -158 18 -11 101 144 101 189 0 35 -97 182 -143 216 -22 16 -45 30 -49
30 -5 0 -5 -24 -1 -52z"/>
<path d="M7558 9011 c-20 -18 -76 -49 -125 -71 -67 -30 -83 -40 -68 -45 11 -4
37 -16 58 -27 50 -26 80 -18 118 35 43 59 69 70 184 76 58 4 99 10 98 16 -2
17 -74 36 -153 42 -73 5 -76 4 -112 -26z"/>
<path d="M7675 8945 c-45 -15 -78 -34 -94 -52 -13 -15 -36 -43 -52 -60 -16
-18 -29 -34 -29 -37 0 -2 31 -16 70 -31 77 -29 84 -36 86 -80 2 -58 107 -238
184 -315 48 -48 124 -84 236 -110 49 -11 102 -25 118 -30 16 -5 31 -8 33 -6 2
1 -6 23 -16 47 -24 53 -43 166 -32 186 5 9 15 -16 29 -72 12 -47 35 -112 52
-145 16 -33 30 -64 30 -69 0 -9 -83 11 -225 53 -148 45 -226 57 -395 63 -191
6 -267 -6 -370 -57 -36 -17 -105 -47 -155 -66 -242 -94 -356 -201 -414 -390
-64 -205 10 -434 183 -564 81 -61 155 -85 261 -84 82 0 97 3 160 34 98 48 173
125 209 215 37 91 45 198 22 279 -51 173 -266 222 -366 84 -26 -35 -30 -50
-30 -102 0 -75 23 -122 71 -148 46 -24 94 -23 157 7 28 13 52 20 52 15 0 -5
-14 -25 -30 -44 -57 -65 -204 -90 -302 -53 -61 24 -133 100 -148 158 -25 92 8
201 87 285 43 46 146 118 201 141 112 47 474 77 645 54 49 -7 152 -32 230 -56
78 -24 160 -48 182 -54 34 -9 99 -45 70 -39 -29 6 -58 -21 -108 -100 -31 -49
-61 -101 -67 -116 -13 -35 -1 -50 67 -86 80 -42 109 -69 168 -160 79 -123 96
-186 76 -287 -5 -24 -6 -43 -2 -43 14 0 44 109 48 171 6 85 -14 127 -94 199
-59 54 -56 58 7 10 19 -15 44 -29 55 -31 32 -6 64 -83 64 -154 1 -83 -31 -230
-64 -295 -99 -196 -387 -501 -533 -566 -69 -31 -64 -40 8 -13 56 21 91 22 98
1 2 -8 -3 -10 -15 -6 -10 3 -7 -2 7 -10 14 -8 30 -15 37 -16 22 0 311 290 356
358 51 78 131 283 148 379 17 100 7 256 -21 323 -13 30 -32 67 -42 82 -16 24
-102 88 -118 88 -17 0 -43 -30 -46 -51 -1 -13 -3 -25 -3 -27 -2 -5 -56 32 -75
51 -19 20 -19 20 3 38 26 22 98 34 146 25 45 -9 132 -89 168 -154 47 -87 54
-278 16 -426 -12 -49 -63 -181 -96 -251 l-24 -50 46 49 c127 136 200 420 151
588 -30 105 -115 221 -191 261 -63 34 -189 22 -312 -29 -33 -14 7 85 58 144
16 18 29 30 29 27 0 -8 66 31 93 53 16 14 16 16 -4 26 -12 6 -27 26 -35 44
-11 28 -11 34 1 38 19 8 82 -32 90 -56 6 -19 -9 -60 -23 -60 -4 0 -29 -20 -56
-45 -32 -30 -54 -44 -66 -40 -10 3 -23 -2 -31 -12 -11 -15 -11 -16 1 -5 25 22
32 13 11 -15 -12 -14 -19 -28 -17 -30 2 -2 31 3 64 11 33 9 77 16 98 16 48 0
145 -45 201 -94 50 -43 106 -150 124 -233 25 -120 -7 -335 -70 -478 -19 -43
-112 -187 -158 -244 -42 -52 -125 -135 -246 -244 -59 -53 -103 -97 -98 -97 14
0 141 79 188 116 213 173 347 355 419 569 42 126 51 209 35 327 -39 292 -163
508 -336 590 -76 35 -158 50 -153 27 4 -19 -10 -17 -151 31 -187 62 -329 84
-546 84 -168 1 -187 -1 -285 -28 -158 -43 -272 -107 -363 -205 -95 -102 -120
-209 -76 -328 43 -115 150 -183 287 -183 108 1 195 57 227 146 11 32 14 34 14
14 1 -37 -32 -101 -70 -137 -51 -48 -103 -66 -189 -66 -134 -1 -233 64 -293
192 -24 52 -31 80 -35 155 -7 146 33 258 128 354 78 80 144 119 246 147 228
62 468 72 715 30 193 -33 249 -44 261 -51 6 -4 35 -8 64 -10 48 -4 56 -2 62
17 14 36 -5 154 -37 234 -36 89 -38 99 -13 86 30 -16 77 -174 76 -258 -1 -66
0 -71 17 -63 26 15 42 75 35 133 -8 58 -26 96 -71 152 -66 81 -99 108 -174
142 -100 44 -107 49 -101 59 14 25 164 -38 236 -99 124 -107 174 -271 114
-374 -13 -22 -15 -30 -5 -27 23 9 47 74 53 139 6 84 -17 157 -68 217 -54 62
-176 142 -259 169 -36 12 -71 28 -77 35 -16 20 -23 -11 -25 -101 l-1 -70 -14
34 c-8 18 -16 66 -17 105 -2 90 22 144 74 162 34 12 31 16 -17 27 -37 8 -163
-22 -211 -49 l-45 -27 6 -46 c6 -44 26 -82 26 -49 0 25 40 68 96 104 74 47 85
42 22 -9 -58 -47 -97 -106 -93 -140 1 -12 3 -29 4 -38 2 -33 100 -166 181
-247 46 -45 81 -84 79 -86 -9 -9 -227 103 -262 134 -116 101 -222 349 -186
435 12 30 12 29 21 -30 15 -111 78 -251 145 -326 37 -41 146 -135 127 -109
-146 195 -183 263 -214 394 -20 82 -20 91 -6 141 9 29 16 56 16 59 0 12 -46 4
-115 -19z"/>
<path d="M4497 8913 c-3 -15 -3 -51 0 -80 8 -72 32 -79 96 -29 16 13 17 17 4
48 -13 32 -69 88 -87 88 -4 0 -10 -12 -13 -27z"/>
<path d="M4313 8857 c-21 -31 -22 -34 -7 -76 8 -25 18 -73 21 -108 3 -35 9
-66 13 -68 5 -3 13 18 20 46 10 43 10 65 -5 145 -10 52 -19 94 -19 94 -1 0
-11 -15 -23 -33z"/>
<path d="M4221 8718 c-12 -28 -26 -69 -30 -92 -5 -22 -10 -48 -12 -55 -3 -11
9 -18 39 -25 52 -11 62 -2 62 59 0 38 -23 151 -32 160 -2 3 -14 -18 -27 -47z"/>
<path d="M4430 8708 c-35 -38 -70 -123 -70 -171 0 -46 16 -69 55 -81 19 -5 20
-1 20 82 0 74 4 95 26 140 24 47 24 52 8 52 -10 0 -28 -10 -39 -22z"/>
<path d="M7447 8716 c-61 -22 -129 -81 -159 -141 -42 -81 -60 -205 -42 -294
12 -58 24 -31 24 53 0 85 20 187 47 239 42 82 148 134 252 124 52 -5 54 -5 26
7 -49 21 -107 26 -148 12z"/>
<path d="M4691 8682 c-21 -40 -12 -123 26 -244 21 -65 41 -118 45 -118 19 0
-23 345 -45 367 -13 14 -16 13 -26 -5z"/>
<path d="M7474 8654 c-69 -25 -143 -115 -158 -191 -6 -38 -7 -38 30 -18 57 30
125 14 219 -50 36 -25 70 -45 75 -45 33 0 -71 108 -145 151 -62 36 -33 38 36
4 47 -24 71 -46 151 -137 29 -32 40 -37 93 -43 l60 -7 -41 44 c-54 58 -82 98
-139 198 -26 47 -55 91 -63 98 -20 16 -66 14 -118 -4z"/>
<path d="M4887 8653 c-6 -9 52 -155 66 -164 20 -14 157 33 157 54 0 22 -44 67
-83 85 -47 23 -132 38 -140 25z"/>
<path d="M4571 8593 c-15 -51 -14 -78 5 -148 10 -39 26 -71 46 -92 43 -44 118
-97 118 -82 0 7 -17 44 -39 83 -40 75 -60 125 -86 219 -8 31 -20 57 -25 57 -5
0 -14 -17 -19 -37z"/>
<path d="M3857 8513 c-95 -24 -197 -67 -197 -84 0 -5 6 -9 13 -9 7 0 44 -15
84 -34 67 -32 102 -65 133 -124 19 -39 24 -161 7 -214 l-14 -46 81 0 c60 1 99
-5 151 -23 54 -18 92 -24 165 -24 52 0 109 3 126 7 29 7 31 5 43 -40 27 -104
146 -174 385 -229 96 -22 126 -24 221 -19 101 5 255 33 395 71 68 18 80 19 80
2 0 -16 -74 -38 -265 -78 -191 -40 -300 -39 -469 1 -162 38 -231 74 -327 166
-41 41 -83 74 -92 74 -16 0 -16 -4 3 -40 16 -31 23 -72 30 -188 21 -320 39
-402 101 -462 22 -21 56 -44 76 -51 43 -14 125 -7 173 15 34 15 33 15 -50 10
-96 -7 -121 0 -174 46 -49 43 -63 99 -72 274 l-7 145 27 12 c24 11 37 7 134
-39 166 -80 334 -115 567 -116 129 -1 197 14 250 56 l27 21 -4 -23 c-11 -76
-188 -105 -495 -80 -119 10 -228 38 -392 98 -9 3 -12 1 -7 -6 4 -6 26 -17 49
-23 58 -15 67 -25 67 -73 0 -23 6 -51 14 -61 13 -18 15 -17 26 24 10 38 14 42
34 37 51 -13 161 -25 185 -20 22 4 32 -3 63 -42 29 -35 39 -42 43 -30 3 9 7
22 9 30 6 18 52 26 155 26 133 0 244 34 275 83 8 13 7 24 -6 48 -10 17 -18 39
-18 49 0 23 46 68 76 76 21 5 21 7 6 36 -8 17 -19 69 -23 116 -5 47 -14 102
-19 123 l-11 39 -91 0 c-50 0 -137 -7 -195 -16 -57 -8 -125 -14 -150 -12 -42
3 -50 7 -77 46 -17 23 -65 66 -106 94 -41 28 -120 83 -174 122 -55 39 -150 98
-211 131 -62 33 -137 74 -167 92 -110 63 -296 78 -461 36z m508 -143 c57 -28
111 -88 145 -164 27 -59 30 -62 78 -75 69 -17 136 -62 167 -111 40 -64 32 -82
-43 -99 -85 -20 -116 -9 -120 40 -4 48 20 74 51 57 14 -7 17 -13 10 -15 -9 -3
-10 -10 -3 -24 13 -22 80 -28 80 -6 0 19 -70 84 -103 96 -16 6 -53 11 -83 11
-46 0 -70 -8 -157 -52 -56 -29 -106 -54 -110 -57 -5 -2 -7 7 -5 20 2 17 21 32
75 58 88 44 123 76 122 110 0 14 -17 53 -37 85 -83 133 -242 144 -259 19 -4
-31 -1 -50 11 -69 44 -66 180 -73 228 -11 17 22 18 22 18 2 0 -12 5 -26 12
-33 10 -10 6 -18 -15 -40 -26 -25 -33 -27 -115 -27 -82 0 -91 2 -162 40 -55
29 -99 64 -163 129 -48 50 -84 93 -80 97 11 9 139 38 193 43 99 9 220 -2 265
-24z m-27 -113 c3 -12 -4 -17 -22 -17 -28 0 -33 9 -14 28 15 15 32 10 36 -11z"/>
<path d="M4015 8336 c-36 -11 -38 -13 -18 -20 12 -4 38 -28 57 -54 49 -67 105
-119 148 -137 48 -19 138 -20 164 0 17 13 16 14 -16 5 -37 -10 -134 1 -169 19
-31 17 -61 61 -61 90 0 15 9 44 20 66 11 22 20 41 20 42 0 8 -110 0 -145 -11z"/>
<path d="M4953 8439 c-19 -7 -22 -13 -17 -41 20 -113 63 -212 106 -243 44 -30
134 -10 158 34 23 43 12 89 -31 136 -65 70 -176 129 -216 114z"/>
<path d="M3025 8400 c4 -11 -2 -44 -11 -73 -28 -81 -24 -190 8 -252 14 -27 36
-59 48 -70 20 -18 19 -13 -9 43 -53 104 -56 147 -20 254 28 86 29 91 12 104
-26 19 -35 17 -28 -6z"/>
<path d="M3445 8413 c-63 -8 -181 -36 -205 -49 l-25 -12 30 -12 c17 -7 98 -16
180 -19 138 -7 155 -10 208 -36 67 -33 117 -85 117 -120 0 -25 0 -25 -52 12
-65 47 -128 53 -283 25 -102 -19 -152 -19 -214 -1 -7 2 -15 -4 -16 -13 -4 -22
37 -108 61 -130 58 -51 160 -61 289 -27 43 11 90 19 104 17 24 -3 24 -5 -14
-21 -67 -30 -177 -57 -231 -57 -64 0 -130 23 -168 58 -37 35 -76 117 -76 162
l0 35 110 1 c121 2 203 11 196 23 -3 4 -24 8 -48 10 -54 3 -206 53 -277 92
-52 27 -77 31 -54 8 8 -8 6 -20 -5 -42 -9 -18 -18 -62 -20 -99 -4 -61 -1 -75
31 -143 42 -89 115 -170 177 -198 38 -18 65 -21 175 -22 148 0 204 15 332 87
57 33 75 48 86 77 55 139 8 275 -117 338 -46 23 -211 65 -246 61 -8 0 -28 -3
-45 -5z"/>
<path d="M7323 8409 c-8 -8 -13 -39 -13 -75 l0 -62 82 24 c45 13 107 24 137
24 l56 1 -25 20 c-70 59 -208 98 -237 68z"/>
<path d="M5214 8291 c10 -16 66 -43 66 -32 0 12 -20 27 -49 36 -16 5 -21 4
-17 -4z"/>
<path d="M8530 8223 c2 -25 146 -190 157 -179 11 10 -41 88 -89 135 -50 48
-68 60 -68 44z"/>
<path d="M7215 8126 c-27 -12 -54 -24 -60 -25 -28 -8 -83 -42 -104 -65 -28
-30 -15 -35 20 -7 14 10 69 42 124 70 100 50 114 70 20 27z"/>
<path d="M7550 8140 c-38 -5 -11 -7 89 -8 79 -1 142 0 140 2 -9 7 -177 12
-229 6z"/>
<path d="M8420 8117 c-30 -10 -84 -22 -120 -26 l-65 -7 54 -8 c135 -20 235
-62 319 -133 148 -126 271 -381 273 -566 0 -66 2 -77 11 -57 6 15 8 74 5 145
-4 99 -10 137 -36 215 -68 209 -200 376 -351 441 -32 14 -40 13 -90 -4z"/>
<path d="M7453 8123 c9 -2 23 -2 30 0 6 3 -1 5 -18 5 -16 0 -22 -2 -12 -5z"/>
<path d="M7830 8119 c25 -4 59 -7 75 -7 26 0 25 1 -10 9 -22 4 -56 8 -75 7
-33 0 -32 -1 10 -9z"/>
<path d="M7953 8103 c9 -2 23 -2 30 0 6 3 -1 5 -18 5 -16 0 -22 -2 -12 -5z"/>
<path d="M1451 8035 c-34 -69 -66 -97 -168 -148 -28 -15 -59 -37 -70 -50 -10
-13 -24 -22 -31 -19 -32 10 -282 -241 -282 -284 0 -2 14 -11 31 -20 17 -8 51
-34 75 -56 24 -22 49 -38 56 -35 17 6 -86 105 -118 113 -13 3 -24 7 -24 8 0 2
50 54 110 116 61 62 110 110 110 106 0 -21 -50 -99 -96 -150 l-54 -59 67 -71
c37 -39 72 -74 79 -79 9 -5 17 9 28 50 40 142 112 233 231 293 63 31 117 39
193 26 23 -4 42 -5 42 -2 0 3 -23 36 -51 73 -28 37 -61 85 -72 105 -12 21 -25
38 -28 38 -3 0 -19 -20 -34 -45 -26 -40 -100 -105 -122 -105 -4 0 -26 -14 -48
-31 -39 -29 -39 -29 -47 -8 -5 12 -7 23 -6 24 2 2 28 15 58 30 102 52 130 74
175 145 25 39 45 77 45 85 0 31 -18 13 -49 -50z"/>
<path d="M1490 8045 c0 -24 38 -85 76 -124 25 -25 59 -74 75 -109 26 -56 31
-61 45 -48 13 14 13 19 0 51 -9 20 -25 48 -36 62 -28 36 -160 174 -160 168z"/>
<path d="M4073 7888 c90 -88 178 -208 231 -318 42 -86 59 -134 91 -255 24 -90
67 -195 80 -195 3 0 -1 13 -9 28 -36 69 -69 263 -86 497 -18 252 -21 260 -120
269 -39 4 -107 18 -152 32 -128 38 -130 34 -35 -58z"/>
<path d="M2961 7939 c-24 -3 -47 -13 -52 -22 -6 -10 -30 -18 -65 -23 -31 -3
-84 -21 -122 -40 -40 -21 -82 -34 -104 -34 -36 0 -38 -1 -38 -33 0 -49 35
-178 63 -234 31 -59 87 -115 95 -94 25 71 174 307 233 370 18 18 56 49 86 67
29 19 53 39 53 45 0 10 -65 9 -149 -2z m49 -24 c0 -3 -15 -11 -33 -19 -18 -7
-69 -42 -113 -77 -86 -70 -155 -116 -153 -102 3 21 178 169 219 185 44 17 80
23 80 13z"/>
<path d="M3805 7920 c-82 -49 -213 -99 -288 -112 -112 -18 -280 18 -351 76
l-29 24 -46 -29 c-71 -46 -126 -103 -205 -218 -89 -130 -126 -193 -126 -214 0
-13 67 -46 74 -35 1 1 19 41 41 88 68 148 170 304 224 343 10 6 20 19 23 27 5
17 9 12 91 -136 76 -135 154 -230 371 -449 l181 -183 130 -62 c71 -34 161 -83
199 -108 86 -56 158 -84 204 -80 40 3 55 -16 22 -27 -29 -9 -118 4 -155 23
-16 8 -50 30 -75 49 -25 19 -108 66 -185 103 -171 84 -226 128 -417 330 -232
245 -313 355 -362 493 -5 14 -23 -6 -81 -92 -77 -113 -137 -232 -157 -308 -12
-51 -20 -52 -115 -22 -84 27 -138 75 -174 154 -29 64 -49 153 -49 217 0 21 -4
38 -10 38 -13 0 -13 -12 5 -116 32 -180 58 -234 136 -285 58 -37 147 -74 203
-85 35 -6 40 -12 63 -63 44 -101 53 -117 82 -152 16 -19 32 -31 36 -27 7 7
-27 102 -66 187 -29 63 -19 60 15 -5 41 -78 56 -72 57 24 0 87 11 193 30 299
11 59 11 76 0 96 -11 20 -11 29 2 53 l15 28 27 -55 c47 -93 123 -187 345 -429
63 -69 118 -126 122 -128 4 -2 22 -17 40 -33 73 -67 151 -118 225 -149 113
-47 191 -88 247 -128 39 -29 60 -37 105 -40 59 -4 123 7 128 23 6 21 -17 38
-64 45 -27 5 -81 23 -120 42 -64 30 -75 39 -106 93 -35 60 -90 218 -122 350
-21 85 -44 133 -86 175 l-33 32 25 19 c13 10 29 19 34 19 34 1 37 17 16 86
-24 78 -29 147 -17 217 7 42 6 47 -10 46 -11 0 -41 -13 -69 -29z m-759 -337
c-49 -99 -67 -155 -68 -216 l0 -40 -15 34 c-17 40 -13 77 19 156 29 70 100
183 105 166 2 -6 -16 -51 -41 -100z"/>
<path d="M3906 7924 c-10 -27 -6 -86 11 -159 8 -38 16 -88 17 -110 1 -27 6
-40 16 -41 148 -18 197 -29 261 -60 39 -19 73 -34 75 -34 9 0 -49 105 -102
186 -74 112 -207 234 -255 234 -9 0 -20 -7 -23 -16z"/>
<path d="M8374 7824 c-18 -14 -18 -15 4 -4 12 6 22 13 22 15 0 8 -5 6 -26 -11z"/>
<path d="M1395 7723 c-78 -41 -172 -168 -221 -301 -15 -41 -30 -69 -34 -63 -3
6 -32 17 -62 23 -45 9 -60 9 -72 -1 -9 -7 -13 -18 -10 -23 4 -6 2 -13 -3 -17
-20 -14 -77 -117 -153 -277 -44 -93 -85 -177 -90 -186 -15 -26 -13 -27 23 -17
17 6 83 11 145 12 61 0 112 4 112 8 0 3 -9 26 -19 50 -11 25 -24 93 -31 159
-7 63 -16 119 -21 125 -5 5 -9 15 -9 22 0 17 53 92 65 93 7 0 9 -51 7 -143 -5
-161 14 -282 49 -313 29 -26 32 -12 9 45 -25 64 -25 111 -1 176 11 28 33 86
49 130 110 301 171 413 254 473 61 44 66 53 13 25z"/>
<path d="M1553 7719 c-249 -49 -397 -356 -324 -669 33 -138 93 -279 145 -337
24 -28 13 -30 -23 -4 -15 11 -66 34 -112 51 -204 75 -352 92 -465 53 -94 -32
-113 -45 -194 -128 -41 -43 -95 -97 -120 -121 -47 -46 -46 -51 6 -32 55 20
214 -35 214 -74 0 -5 -26 -34 -59 -64 -32 -30 -77 -81 -99 -114 l-41 -59 40
-39 c30 -31 39 -47 39 -74 l0 -35 43 7 c23 3 48 10 55 14 8 5 12 -2 12 -22 0
-21 -6 -31 -20 -35 -25 -7 -25 -26 1 -82 25 -53 81 -85 150 -85 38 0 50 -5 75
-31 16 -17 54 -48 84 -69 31 -21 62 -45 69 -54 22 -27 35 -19 70 47 55 101
103 179 137 222 35 43 68 105 79 145 l7 25 -24 -27 c-13 -15 -69 -46 -133 -74
-96 -41 -118 -47 -181 -47 -60 0 -82 5 -135 31 -97 47 -119 71 -158 177 -37
97 -31 161 24 271 69 141 170 222 313 253 73 15 124 14 201 -5 85 -21 164 -61
224 -114 26 -23 47 -37 47 -31 0 6 -21 75 -46 153 -65 203 -73 246 -80 403 -9
210 24 325 120 413 42 38 50 42 98 42 59 0 101 -17 106 -42 3 -13 -2 -16 -23
-12 -36 6 -102 -13 -109 -32 -18 -48 9 -117 59 -150 20 -13 38 -15 82 -10 102
12 154 63 161 157 6 75 -11 120 -58 163 -59 53 -143 68 -257 45z m-728 -929
c-4 -6 -32 -23 -64 -39 -31 -16 -90 -61 -130 -100 -45 -44 -82 -71 -95 -71
-44 1 196 202 254 213 14 2 29 5 33 6 5 0 5 -4 2 -9z"/>
<path d="M1840 7716 c0 -2 8 -10 18 -17 15 -13 16 -12 3 4 -13 16 -21 21 -21
13z"/>
<path d="M2463 7703 c-24 -22 -119 -143 -160 -203 -62 -92 -100 -210 -90 -281
14 -102 78 -179 179 -215 111 -39 276 15 370 121 29 32 85 151 75 161 -10 10
-81 26 -111 25 -16 0 -38 6 -49 14 -35 25 -51 18 -74 -33 -45 -98 -96 -123
-159 -80 -74 51 -67 102 13 97 55 -4 81 17 63 50 -6 12 -22 26 -36 31 -54 21
-134 -42 -134 -105 0 -37 51 -115 81 -122 25 -7 14 -23 -16 -23 -30 0 -71 49
-85 100 -17 61 1 109 59 161 26 24 66 69 87 99 44 62 58 49 29 -27 -9 -24 -15
-47 -11 -50 15 -15 34 11 45 64 12 56 11 64 -15 139 -15 43 -30 83 -34 87 -4
4 -16 0 -27 -10z"/>
<path d="M3127 7578 c-3 -35 -11 -106 -16 -158 -6 -52 -12 -144 -15 -205 -2
-60 -6 -119 -8 -130 -2 -16 7 -23 47 -37 61 -20 75 -11 75 46 0 51 25 197 49
291 20 79 19 87 -13 104 -12 7 -41 44 -65 82 -24 38 -44 69 -46 69 -1 0 -5
-28 -8 -62z"/>
<path d="M4500 7533 c0 -113 13 -159 59 -204 45 -45 90 -55 286 -64 139 -6
378 -35 445 -55 54 -15 103 -73 165 -195 93 -181 143 -236 254 -282 66 -27 96
-28 146 -7 95 39 165 114 180 190 9 53 -10 66 -31 21 -29 -60 -127 -77 -213
-35 -46 22 -163 132 -240 227 -24 29 -67 68 -95 86 -63 40 -184 79 -291 94
-44 6 -98 16 -120 21 -22 5 -107 14 -190 20 -176 12 -207 19 -257 60 -45 37
-77 126 -60 165 11 24 0 45 -25 45 -10 0 -13 -22 -13 -87z"/>
<path d="M3904 7557 c-3 -10 6 -36 23 -64 31 -51 53 -112 73 -203 30 -136 93
-276 137 -308 76 -53 130 -72 210 -72 94 0 140 13 261 74 139 70 282 107 417
109 105 2 112 1 164 -28 51 -28 91 -73 91 -103 0 -7 -16 3 -35 22 -63 63 -87
71 -210 70 -150 -1 -258 -28 -410 -103 -70 -35 -146 -65 -182 -72 l-63 -12 0
-49 c0 -44 3 -50 28 -59 29 -11 98 -4 141 14 14 6 44 25 66 43 39 30 53 38
158 91 79 39 163 56 277 57 89 1 110 -2 140 -20 28 -16 35 -26 35 -52 0 -65
47 -69 64 -5 26 91 6 155 -63 208 -52 40 -101 54 -187 55 -102 0 -163 -12
-374 -75 -214 -63 -255 -70 -336 -54 -71 14 -108 41 -134 98 -23 52 -13 63 21
22 43 -51 107 -83 178 -88 62 -5 166 11 166 26 0 11 -78 33 -90 26 -17 -11
-49 15 -69 54 -11 21 -32 89 -46 150 -14 62 -31 121 -37 131 -34 53 -199 118
-325 127 -70 5 -83 4 -89 -10z"/>
<path d="M7965 7506 c-62 -28 -98 -69 -120 -136 -14 -41 -15 -59 -5 -104 15
-73 45 -114 110 -153 63 -38 106 -42 144 -12 23 18 26 28 26 79 0 42 -5 64
-19 81 l-20 24 -25 -25 c-27 -28 -37 -61 -20 -67 7 -2 19 4 29 13 15 16 16 14
13 -22 -2 -32 -7 -40 -26 -42 -31 -5 -79 15 -87 35 -10 28 29 87 76 113 36 21
57 25 121 25 83 0 94 8 58 40 -18 16 -19 20 -5 27 8 5 19 7 24 4 4 -3 28 -8
52 -10 l44 -5 -44 39 c-46 42 -42 49 13 26 54 -22 115 -119 161 -256 21 -61
23 -63 29 -35 22 100 -70 281 -168 332 -108 56 -275 69 -361 29z"/>
<path d="M1489 7443 c0 -27 -3 -33 -8 -19 -5 14 -14 1 -35 -54 -33 -84 -47
-140 -35 -140 4 0 31 13 59 30 28 16 67 32 87 34 48 6 59 19 29 36 -25 13 -59
72 -72 124 -9 38 -24 32 -25 -11z"/>
<path d="M3286 7428 c-12 -36 -38 -330 -33 -379 9 -105 117 -258 218 -310 52
-26 73 -24 103 12 25 29 30 48 26 96 -4 55 51 176 71 156 5 -5 0 -27 -12 -50
-41 -84 -19 -252 45 -336 78 -103 270 -211 312 -176 28 23 41 63 48 145 6 81
30 179 48 201 5 7 7 17 3 23 -8 14 -109 63 -265 131 l-125 53 -179 176 c-98
96 -196 197 -217 223 -24 30 -41 44 -43 35z"/>
<path d="M2552 7338 c-8 -8 -7 -19 5 -41 12 -23 17 -27 24 -16 21 33 -4 82
-29 57z"/>
<path d="M8344 7303 c2 -21 12 -72 22 -113 11 -49 17 -121 18 -208 l1 -133 33
68 c39 81 41 125 11 244 -20 81 -65 179 -82 179 -4 0 -6 -17 -3 -37z"/>
<path d="M1162 7252 c-24 -104 -7 -220 35 -236 17 -7 17 13 -2 133 -8 53 -16
110 -17 126 -3 26 -5 22 -16 -23z"/>
<path d="M2870 7237 c0 -97 98 -231 190 -262 54 -18 131 -17 138 3 2 7 -5 12
-15 12 -10 0 -46 7 -78 15 -78 21 -128 69 -185 181 -24 46 -45 84 -47 84 -2 0
-3 -15 -3 -33z"/>
<path d="M1491 7240 c-29 -10 -62 -27 -73 -38 -19 -19 -19 -25 -9 -126 7 -59
23 -144 36 -189 26 -90 62 -177 73 -177 11 1 70 83 86 121 15 33 15 33 16 7 0
-14 -9 -55 -20 -90 -24 -75 -25 -94 -6 -101 20 -8 87 12 110 31 19 17 19 17 0
-16 -23 -40 -67 -75 -126 -102 -24 -10 -36 -19 -28 -19 11 -1 12 -3 3 -9 -9
-6 -9 -18 3 -52 32 -92 66 -227 73 -287 8 -76 16 -87 25 -33 7 47 81 135 114
137 32 2 56 -67 29 -84 -7 -4 -40 -40 -74 -80 -47 -56 -60 -77 -56 -94 5 -19
3 -21 -13 -15 -14 5 -16 4 -7 -5 35 -36 213 128 213 197 0 11 -13 51 -30 89
-16 39 -30 80 -30 92 0 27 -10 53 -20 53 -8 0 -22 -40 -25 -70 -3 -25 -100
-163 -103 -147 -2 7 11 43 27 79 19 40 42 123 60 214 36 178 45 250 34 286
-16 55 -35 34 -48 -55 -5 -32 -9 -37 -28 -35 -41 6 -49 18 -42 57 11 55 7 220
-6 260 -15 47 -47 81 -75 81 -18 0 -23 7 -28 45 -4 26 -3 53 3 64 16 29 2 32
-58 11z m114 -191 c9 -17 15 -38 13 -47 -2 -10 -11 3 -20 31 -19 54 -16 61 7
16z m115 -433 c0 -2 -8 -10 -17 -17 -16 -13 -17 -12 -4 4 13 16 21 21 21 13z
m-88 -68 c-6 -7 -25 -22 -44 -32 -28 -17 -31 -17 -19 -3 7 10 25 23 40 31 34
18 35 18 23 4z"/>
<path d="M8306 7163 c53 -220 10 -337 -145 -393 -75 -28 -80 -45 -12 -37 89
11 140 49 184 137 32 66 31 217 -4 314 -37 105 -50 93 -23 -21z"/>
<path d="M2760 7060 c-36 -33 -70 -59 -77 -60 -22 0 -38 -83 -38 -195 0 -98 3
-114 24 -152 14 -24 28 -43 33 -43 4 0 24 33 44 73 43 84 77 136 152 229 l54
67 -27 28 c-14 15 -40 47 -58 70 -18 23 -34 42 -37 42 -3 0 -34 -26 -70 -59z"/>
<path d="M7688 7103 c6 -2 18 -2 25 0 6 3 1 5 -13 5 -14 0 -19 -2 -12 -5z"/>
<path d="M7756 7075 c14 -14 42 -60 62 -103 34 -71 37 -85 40 -185 3 -63 -1
-127 -8 -155 -25 -102 -128 -263 -217 -342 -25 -22 -80 -60 -122 -84 -113 -67
-113 -67 -56 -62 81 7 237 62 301 106 32 22 117 97 189 168 71 70 162 153 201
184 80 64 124 106 154 148 26 36 18 39 -13 6 -35 -37 -118 -86 -148 -86 -26 0
-54 -21 -43 -32 8 -9 -32 -69 -41 -60 -5 4 -6 3 -3 -3 4 -5 -9 -28 -28 -50
-19 -22 -31 -31 -27 -20 6 18 5 18 -10 6 -9 -7 -15 -17 -12 -21 4 -7 -49 -70
-60 -70 -2 0 4 13 13 30 9 16 20 30 25 30 4 0 7 5 7 11 0 6 11 25 26 41 49 59
74 123 74 188 l0 62 -32 -8 c-79 -18 -80 -18 -105 81 -35 136 -113 245 -174
245 -16 0 -15 -3 7 -25z"/>
<path d="M7560 7078 c-44 -12 -65 -31 -97 -85 -31 -54 -26 -78 7 -30 30 44 68
67 113 67 43 0 87 -33 87 -66 0 -28 -7 -29 -34 -9 -41 31 -44 13 -6 -25 49
-49 60 -75 60 -145 0 -132 -184 -368 -428 -549 -51 -38 -90 -71 -88 -74 8 -8
122 36 217 84 182 91 301 232 355 418 l14 51 -5 -55 c-3 -34 -19 -84 -43 -135
-63 -131 -160 -215 -372 -322 -36 -18 -54 -30 -41 -27 38 10 268 111 287 126
95 77 189 199 227 297 27 66 31 89 31 171 0 87 -3 101 -33 163 -68 141 -134
179 -251 145z"/>
<path d="M2240 7044 c0 -15 29 -71 43 -83 9 -7 15 -17 12 -21 -2 -4 21 -15 51
-25 60 -19 101 -15 216 23 57 18 77 48 26 38 -138 -26 -207 -16 -302 44 -25
16 -46 27 -46 24z"/>
<path d="M9937 6991 c-78 -70 -102 -75 -281 -66 -234 13 -295 11 -353 -9 l-52
-17 28 -52 c16 -29 32 -65 35 -81 l7 -29 17 34 c30 61 71 72 282 80 196 7 231
14 292 54 21 14 38 23 38 19 0 -21 -29 -49 -83 -76 l-62 -33 -160 0 c-173 -1
-228 -11 -263 -48 -22 -24 -56 -106 -44 -108 4 0 30 0 59 1 29 1 87 -8 130
-21 132 -37 236 -25 321 39 37 27 49 24 33 -7 -22 -40 -175 -111 -240 -111
-14 0 -59 16 -100 36 -50 24 -92 37 -130 40 l-56 4 45 -14 c82 -24 116 -43
179 -100 71 -63 104 -71 139 -33 24 26 29 57 10 58 -7 0 25 13 72 28 70 24 91
36 122 71 21 23 38 48 38 55 0 19 -28 38 -45 31 -17 -6 -17 -7 22 56 43 69 85
229 63 243 -5 3 -34 -16 -63 -44z m-56 -205 c-37 -38 -111 -81 -157 -90 -19
-5 -61 0 -107 12 -78 20 -140 17 -188 -9 -38 -20 -29 -3 13 24 49 32 114 36
193 12 70 -22 122 -11 203 41 37 24 69 44 71 44 3 0 -10 -15 -28 -34z"/>
<path d="M1105 7020 c-9 -14 3 -67 26 -111 17 -35 124 -139 141 -139 13 0 9
16 -11 41 -10 13 -48 68 -84 122 -36 53 -68 93 -72 87z"/>
<path d="M3216 6968 c26 -177 187 -356 311 -346 30 2 38 7 38 23 0 15 -9 21
-35 25 -113 19 -254 158 -290 284 -14 53 -31 62 -24 14z"/>
<path d="M2953 6938 c-55 -61 -148 -198 -184 -270 -39 -77 -40 -83 -23 -95 22
-16 78 -17 107 -1 12 6 90 80 174 165 118 117 153 159 153 179 0 14 -4 23 -8
20 -18 -11 -80 -7 -135 8 -32 9 -59 16 -61 16 -1 0 -12 -10 -23 -22z"/>
<path d="M4140 6956 c0 -2 8 -10 18 -17 15 -13 16 -12 3 4 -13 16 -21 21 -21
13z"/>
<path d="M2592 6903 c-4 -10 -7 -63 -7 -118 0 -132 26 -199 97 -256 27 -21 65
-41 85 -45 59 -11 161 3 292 40 69 20 126 34 128 32 2 -2 -3 -24 -12 -48 -36
-107 -35 -226 2 -276 55 -75 228 -172 320 -180 44 -4 55 -2 51 9 -3 8 -18 18
-34 22 -16 5 -45 13 -64 19 -109 31 -218 107 -250 173 -20 41 -22 56 -16 143
3 53 8 114 12 135 6 34 4 37 -18 37 -13 0 -75 -13 -138 -30 -140 -36 -243 -47
-293 -31 -85 28 -139 140 -141 293 0 54 -2 98 -4 98 -1 0 -6 -8 -10 -17z"/>
<path d="M9121 6892 c7 -75 -13 -150 -63 -238 -70 -126 -111 -250 -112 -344
-1 -86 12 -190 23 -190 4 0 11 55 14 123 10 184 50 322 108 371 38 32 121 59
170 54 34 -3 39 -1 39 18 0 12 -16 53 -36 90 -20 38 -41 79 -47 91 -7 13 -31
29 -55 37 l-43 15 2 -27z"/>
<path d="M5125 6901 c-3 -5 -1 -12 5 -16 5 -3 10 -1 10 5 0 7 9 9 23 5 17 -5
19 -4 7 4 -19 13 -37 14 -45 2z"/>
<path d="M2508 6893 c-61 -9 -222 -332 -375 -753 -25 -69 -83 -201 -130 -294
-46 -92 -82 -171 -79 -174 3 -3 88 7 188 23 101 15 244 35 320 44 135 17 159
25 179 63 9 16 2 28 -42 74 -30 29 -57 64 -62 76 -6 16 -10 19 -16 10 -4 -7
-32 -16 -62 -19 -46 -4 -59 -1 -89 19 -30 21 -79 89 -80 111 0 4 12 4 26 1 23
-6 36 4 113 84 92 97 141 127 256 157 165 42 373 -13 424 -114 55 -108 69
-282 30 -386 -24 -65 -102 -151 -164 -180 -50 -23 -146 -44 -204 -45 -63 0
-41 14 50 34 148 32 236 99 279 212 30 78 31 181 3 244 -24 55 -96 123 -148
140 -81 27 -221 -4 -303 -66 -53 -41 -72 -80 -72 -151 0 -52 4 -66 27 -94 30
-35 79 -60 109 -54 10 2 24 4 31 4 35 3 97 80 104 131 4 21 0 24 -29 26 -62 3
-59 20 9 63 69 44 92 48 143 27 53 -22 86 -79 86 -147 0 -89 -24 -154 -77
-205 -88 -84 -202 -104 -474 -83 -176 13 -266 8 -459 -27 -119 -22 -277 -84
-302 -119 -4 -5 -8 -19 -8 -30 0 -20 5 -19 76 16 96 47 208 87 293 104 109 23
370 47 389 36 23 -13 11 -17 -113 -31 -233 -28 -391 -70 -560 -149 -64 -30
-87 -46 -100 -71 -9 -17 -14 -34 -11 -38 3 -3 36 7 74 23 355 146 490 168 903
147 226 -12 212 -7 430 -143 147 -91 208 -114 281 -107 40 4 57 12 74 32 26
30 54 34 54 9 0 -25 -9 -35 -58 -61 -88 -48 -187 -26 -347 78 -126 81 -228
128 -295 135 l-55 6 55 -24 c89 -39 171 -82 295 -156 125 -75 175 -91 281 -91
57 0 68 3 89 26 24 26 25 26 25 5 0 -30 -24 -83 -46 -103 -11 -9 -46 -33 -79
-53 -60 -37 -60 -37 -22 -32 48 7 100 40 134 83 20 27 27 49 30 102 3 37 7 69
8 70 2 2 9 -7 16 -19 33 -62 -10 -186 -82 -238 -23 -17 -48 -31 -55 -31 -9 0
-2 -23 21 -68 70 -142 68 -247 -9 -507 -40 -137 -41 -143 -42 -300 -1 -88 -2
-165 -3 -172 -2 -22 -111 -47 -206 -47 -108 0 -196 26 -284 85 l-58 39 -44
-15 c-24 -8 -63 -19 -87 -25 -35 -9 -46 -18 -58 -45 -21 -50 -18 -138 6 -183
66 -126 362 -359 605 -477 103 -50 331 -135 365 -135 8 0 35 14 60 30 25 17
62 33 83 36 20 4 37 9 37 13 0 3 -14 24 -30 45 -33 43 -41 75 -11 39 11 -13
25 -23 32 -23 7 0 21 -7 31 -17 10 -9 18 -11 18 -5 0 6 -26 29 -57 51 -72 50
-102 79 -114 111 -25 61 31 110 129 113 51 2 59 4 52 18 -8 14 -37 29 -119 60
-20 8 -22 14 -17 45 11 55 9 151 -4 189 -6 19 -32 53 -57 75 -71 62 -117 52
-162 -34 l-20 -40 -18 40 c-27 60 -24 196 4 250 44 83 119 125 226 129 57 2
72 6 95 28 71 67 240 120 367 116 69 -3 72 -2 158 50 56 33 93 63 103 82 14
28 13 32 -6 60 -12 16 -38 37 -58 47 -37 18 -82 19 -82 1 0 -5 -4 -9 -10 -9
-14 0 -12 64 2 78 36 36 124 -15 158 -91 17 -38 18 -38 24 -12 11 42 -11 102
-48 130 -66 50 -136 46 -163 -10 -16 -33 -16 -39 0 -88 40 -127 3 -196 -120
-220 -29 -6 -35 -2 -70 41 -21 26 -52 67 -68 90 -20 30 -47 53 -87 73 -65 33
-74 51 -65 130 13 106 73 192 174 249 41 24 58 41 79 82 35 68 114 144 165
158 44 12 59 7 59 -19 0 -33 40 -175 51 -182 8 -4 6 -10 -6 -16 -12 -7 -6 -10
27 -10 33 -1 37 1 18 6 -22 6 -23 8 -7 14 10 4 16 11 13 16 -3 5 1 12 10 15
23 9 54 7 54 -3 0 -5 17 -20 38 -32 113 -70 192 -187 192 -284 0 -66 -35 -190
-66 -238 -14 -22 -23 -41 -21 -43 2 -3 20 2 38 10 19 8 67 27 107 41 80 30
129 65 143 103 l10 25 30 -41 c21 -28 35 -66 47 -123 l17 -82 61 -13 c76 -15
166 -60 241 -120 72 -57 103 -92 204 -221 91 -116 133 -154 190 -173 21 -7 39
-17 39 -22 0 -4 -27 -35 -60 -68 l-61 -59 11 -41 c16 -59 13 -225 -5 -294 -28
-106 -82 -193 -180 -292 -70 -71 -107 -99 -165 -127 -41 -20 -71 -37 -67 -37
4 0 96 22 205 49 560 141 781 247 1457 700 160 107 303 205 319 218 l29 24
-29 -8 c-16 -4 -110 -7 -209 -7 -170 2 -187 4 -315 37 -221 56 -416 148 -579
272 -53 40 -60 50 -47 57 13 7 46 -10 143 -73 300 -196 638 -287 963 -257 90
8 132 17 197 43 303 123 564 374 803 772 121 202 382 312 577 243 31 -11 58
-19 59 -17 8 8 -38 79 -79 124 -104 110 -227 127 -444 62 -23 -7 -45 -10 -49
-6 -14 13 18 36 89 62 58 22 89 27 160 27 152 0 239 -56 352 -226 74 -112 126
-232 165 -383 6 -24 16 -43 22 -43 38 0 203 169 272 279 l28 44 -29 -7 c-70
-15 -150 -18 -172 -6 -52 27 -63 115 -31 239 11 42 25 109 31 149 12 79 25 89
70 53 13 -10 57 -39 98 -65 70 -46 72 -46 52 -17 -19 27 -76 142 -115 236 -79
186 -165 365 -175 365 -5 0 -25 -20 -46 -45 -20 -25 -50 -52 -65 -60 -41 -21
-106 -19 -156 5 l-42 21 -73 -29 c-169 -67 -215 -76 -354 -76 -117 0 -136 3
-196 27 -88 36 -91 36 -73 -15 22 -63 33 -118 24 -118 -5 0 -30 41 -56 90 -83
157 -155 206 -409 279 -218 63 -355 75 -651 59 -138 -7 -170 -14 -314 -70
-180 -69 -314 -145 -464 -263 -51 -39 -119 -91 -152 -115 -32 -24 -93 -76
-134 -116 -198 -190 -300 -263 -456 -322 -203 -77 -476 -100 -639 -54 -143 41
-331 150 -388 226 -15 19 -39 58 -53 86 -23 46 -25 61 -25 173 1 67 5 136 10
154 l9 31 -76 7 c-43 4 -101 16 -131 26 -30 10 -64 16 -76 13 -52 -13 -238 61
-337 133 -40 30 -64 40 -98 41 -133 7 -294 78 -398 176 -57 53 -79 184 -46
271 30 79 35 76 -73 39 -54 -18 -133 -39 -175 -45 -70 -10 -82 -9 -142 11
-124 41 -189 149 -190 315 -1 44 2 92 7 108 8 28 9 28 -45 20z"/>
<path d="M3162 6839 c-11 -19 -55 -65 -98 -104 -186 -169 -181 -164 -157 -165
13 0 61 11 108 25 47 13 114 29 149 36 57 10 65 14 84 47 30 51 29 22 -3 -112
-44 -188 -28 -281 60 -348 28 -21 57 -38 66 -38 19 0 29 38 29 105 0 57 23
176 48 246 l19 56 -55 27 c-69 34 -74 30 -96 -92 -17 -94 -20 -183 -7 -249 11
-59 -5 -54 -17 5 -28 125 -23 203 22 313 l25 61 -23 22 c-22 20 -115 157 -127
185 -4 10 -12 4 -27 -20z"/>
<path d="M9095 6811 c-3 -12 -38 -49 -76 -83 -76 -68 -123 -146 -134 -222 -8
-52 12 -163 27 -148 5 5 21 53 34 107 26 103 75 210 118 260 26 30 52 92 43
101 -3 3 -8 -4 -12 -15z"/>
<path d="M4125 6756 c-8 -19 -18 -79 -21 -133 -8 -115 1 -143 66 -216 102
-115 247 -140 294 -49 25 49 46 169 46 261 l0 91 -73 0 c-49 0 -80 5 -95 16
-39 27 -45 10 -38 -105 6 -110 30 -222 60 -278 19 -38 9 -43 -22 -10 -32 34
-62 162 -70 294 l-7 117 -60 23 c-32 13 -61 23 -63 23 -2 0 -10 -16 -17 -34z"/>
<path d="M4605 6782 c-5 -4 -20 -19 -33 -33 -20 -23 -24 -43 -32 -155 -5 -71
-13 -166 -16 -212 -6 -69 -4 -88 12 -117 18 -33 18 -35 -1 -55 -18 -20 -25
-21 -137 -14 l-117 7 -12 -29 c-16 -38 -16 -180 -1 -225 7 -20 22 -45 32 -54
11 -10 20 -22 20 -27 0 -4 -46 -8 -102 -8 -80 0 -105 3 -120 17 -23 21 -31 13
-19 -19 9 -23 15 -25 102 -31 114 -9 213 -9 261 -1 47 8 55 34 22 73 -32 38
-51 86 -69 172 -22 104 -25 99 53 97 51 -2 75 2 100 17 42 25 48 48 24 88 -30
49 -34 95 -17 206 8 55 15 131 15 168 0 59 3 70 26 94 24 26 31 57 9 41z
m-246 -636 c5 -19 17 -72 27 -117 9 -44 28 -97 41 -116 13 -18 23 -38 23 -43
0 -6 -22 -10 -48 -10 l-49 0 -6 98 c-4 53 -9 125 -13 160 -8 69 8 87 25 28z"/>
<path d="M3585 6708 c-6 -34 -2 -46 42 -115 35 -56 67 -91 117 -129 110 -84
159 -107 242 -112 54 -3 78 -9 90 -23 22 -24 10 -39 -31 -39 -44 0 -50 -18
-50 -161 0 -91 3 -110 19 -128 36 -40 45 -28 45 64 0 50 7 109 17 145 19 67
40 93 31 39 -25 -174 -30 -240 -19 -276 18 -60 31 -71 96 -79 l59 -7 -7 49
c-18 137 -19 199 -2 239 11 26 13 41 6 43 -16 6 -125 89 -141 108 -8 10 -13
42 -14 80 0 35 -3 64 -6 64 -4 0 -12 -14 -19 -31 -20 -47 -48 -61 -95 -48 -61
17 -126 53 -196 109 -77 61 -112 105 -149 185 l-28 60 -7 -37z"/>
<path d="M980 6681 c-30 -9 -75 -30 -98 -46 -84 -55 -172 -214 -172 -309 0
-53 25 -133 56 -178 106 -153 349 -137 430 29 20 39 28 74 31 138 l6 84 -33
31 c-46 43 -83 41 -105 -7 -17 -36 -33 -123 -23 -123 3 0 31 12 62 26 73 33
90 27 37 -15 -62 -49 -137 -73 -168 -53 -14 9 11 102 46 170 36 71 143 89 203
35 40 -35 88 -123 119 -215 29 -84 32 -108 37 -248 5 -187 -5 -254 -83 -515
-55 -183 -87 -316 -78 -325 2 -3 8 2 13 10 5 8 47 67 94 130 79 106 88 125
131 250 86 255 110 391 102 592 -4 121 -9 155 -32 221 -53 153 -177 283 -307
322 -69 20 -199 19 -268 -4z"/>
<path d="M9165 6616 c-49 -21 -149 -145 -132 -162 3 -3 31 21 61 53 32 35 76
69 105 83 28 13 51 27 51 32 0 12 -51 9 -85 -6z"/>
<path d="M3526 6568 c-64 -35 -85 -106 -100 -340 l-6 -87 35 -7 c81 -15 105
16 155 196 17 63 38 122 46 130 12 12 14 12 14 0 0 -9 -5 -31 -10 -50 -67
-224 -66 -252 8 -315 44 -38 153 -105 171 -105 7 0 26 -11 43 -25 44 -38 62
-34 53 12 -4 21 -14 51 -23 68 -8 16 -17 64 -20 106 -4 63 -1 82 17 117 11 23
21 43 21 46 0 2 -19 11 -42 21 -24 9 -64 30 -89 46 -25 16 -49 29 -54 29 -24
0 27 -287 54 -304 9 -6 51 -90 51 -102 0 -11 -71 69 -85 96 -7 14 -23 58 -35
99 -18 59 -22 88 -17 149 l6 75 -52 58 c-28 33 -55 59 -59 59 -14 0 -58 -100
-65 -145 -3 -25 -10 -48 -15 -51 -15 -9 1 81 28 164 13 40 24 75 24 77 0 9
-14 4 -54 -17z"/>
<path d="M9247 6566 c-117 -42 -199 -173 -214 -341 -7 -81 9 -131 64 -207 26
-34 67 -94 91 -133 43 -69 44 -69 37 -30 -4 22 -19 78 -35 125 -49 148 -57
201 -37 262 22 70 56 127 86 147 24 16 24 15 17 -9 -5 -14 -10 -75 -12 -136
-2 -88 0 -115 12 -130 15 -18 15 -18 10 1 -19 74 -17 80 8 34 14 -25 26 -59
28 -75 2 -24 -1 -30 -20 -32 -32 -5 -47 11 -62 63 -7 25 -17 48 -21 51 -16 10
-9 -50 12 -106 12 -30 29 -86 39 -125 11 -38 19 -60 19 -48 1 12 26 52 56 90
43 54 56 78 61 116 7 52 7 51 35 36 25 -13 59 8 112 67 77 86 97 183 54 264
-25 48 -97 104 -155 120 -51 14 -139 12 -185 -4z"/>
<path d="M8800 6540 c-25 -4 -60 -5 -77 -2 -67 10 -102 -58 -103 -194 0 -50
-3 -94 -7 -97 -3 -4 -12 1 -20 11 -12 15 -13 11 -8 -32 9 -70 23 -94 62 -107
18 -6 31 -15 28 -20 -10 -14 78 -10 124 6 23 8 64 17 91 21 44 6 50 9 50 30 0
13 -23 71 -51 128 -55 114 -62 156 -35 218 23 55 28 52 -54 38z m15 -362 c32
-37 24 -50 -10 -18 -21 20 -86 164 -84 187 0 4 16 -25 34 -65 19 -41 46 -87
60 -104z"/>
<path d="M6900 6488 c0 -29 -3 -69 -6 -89 l-6 -36 -69 40 c-79 45 -79 45 -177
-20 -29 -19 -56 -32 -59 -29 -4 3 -3 6 1 6 12 0 -22 54 -55 89 -35 34 -126 84
-140 76 -4 -3 -35 -62 -68 -130 -47 -97 -66 -127 -86 -135 -34 -13 -82 -13
-90 0 -9 15 -25 12 -25 -5 0 -8 7 -15 15 -15 10 0 1 -13 -21 -32 -49 -43 -94
-115 -94 -151 0 -36 15 -27 24 14 13 67 174 182 251 179 22 -1 43 -1 47 -1 4
1 0 17 -8 38 -15 35 -15 38 21 110 42 85 59 91 115 43 19 -16 40 -29 47 -30
12 0 53 -47 53 -61 0 -19 -37 -7 -69 21 -18 17 -35 30 -37 30 -2 0 9 -18 25
-41 17 -22 32 -46 34 -52 5 -14 50 5 149 64 l67 40 56 -36 c31 -19 64 -49 73
-65 9 -17 20 -30 24 -30 4 0 15 35 24 78 10 42 19 68 21 57 2 -11 13 -61 25
-112 l21 -92 -37 -62 c-20 -34 -35 -64 -32 -66 18 -18 106 95 106 135 0 16
-15 83 -34 151 -48 171 -86 223 -86 119z"/>
<path d="M578 6472 c19 -13 5 -41 -53 -102 -57 -61 -105 -131 -105 -155 0 -8
4 -23 9 -33 54 -109 66 -130 73 -119 17 27 7 64 -27 97 -19 19 -35 43 -35 54
1 27 131 191 171 215 l30 18 -25 17 c-14 9 -31 16 -38 16 -11 0 -11 -2 0 -8z"/>
<path d="M4101 6430 c-2 -31 78 -125 136 -161 34 -21 210 -50 247 -41 21 6
-42 26 -128 42 -94 18 -202 87 -243 155 -9 15 -12 16 -12 5z"/>
<path d="M7957 6376 c-90 -109 -275 -222 -427 -261 -36 -9 -72 -21 -80 -27
-26 -16 128 -2 220 22 197 49 521 161 520 180 -2 23 -84 84 -148 109 l-50 20
-35 -43z m152 -21 c11 -11 -10 -15 -48 -9 -22 4 -41 11 -41 17 0 9 78 2 89 -8z"/>
<path d="M6704 6374 c-16 -8 -40 -25 -54 -38 -60 -54 -150 -63 -193 -20 -24
24 -27 25 -34 9 -4 -13 2 -25 23 -42 16 -13 36 -30 45 -38 20 -19 61 -19 123
0 28 8 87 18 133 22 46 3 86 9 88 13 2 4 -4 16 -13 26 -10 10 -21 27 -24 36
-4 9 -20 24 -36 32 -25 13 -32 13 -58 0z"/>
<path d="M8533 6373 c-18 -7 -17 -127 2 -190 18 -60 53 -99 115 -125 34 -15
50 -17 67 -9 35 16 27 31 -16 31 -22 0 -46 6 -53 13 -7 7 -20 16 -29 19 -32
12 -49 71 -49 172 0 97 -3 103 -37 89z"/>
<path d="M3935 6283 c-17 -45 -17 -151 -1 -201 10 -29 21 -54 24 -56 4 -2 7
59 8 135 1 105 -2 139 -11 139 -7 0 -16 -8 -20 -17z"/>
<path d="M2695 6284 c-111 -27 -189 -76 -292 -184 -72 -75 -80 -86 -66 -97 21
-16 94 -17 127 -2 16 8 32 29 42 56 44 115 145 185 286 199 45 4 66 10 60 16
-11 11 -126 20 -157 12z m-157 -132 c-14 -15 -39 -48 -56 -73 -29 -43 -49 -59
-73 -59 -5 0 -9 4 -9 10 0 14 151 163 158 156 3 -4 -6 -19 -20 -34z"/>
<path d="M8153 6247 c-12 -21 -40 -34 -199 -87 -125 -42 -265 -78 -409 -106
l-40 -7 40 -13 c123 -39 325 11 511 125 79 49 122 86 112 97 -4 3 -10 -1 -15
-9z"/>
<path d="M6722 6229 c-24 -4 -89 -24 -145 -43 -56 -19 -163 -53 -237 -76 -148
-46 -221 -88 -281 -163 -49 -59 -81 -117 -65 -117 6 0 16 4 22 9 5 6 41 25 79
44 39 20 103 58 143 85 40 28 117 70 170 94 96 43 98 43 227 46 72 2 156 -1
187 -6 54 -8 59 -8 73 15 9 13 17 40 18 60 2 37 2 37 -48 49 -59 14 -85 15
-143 3z"/>
<path d="M6224 6192 c-16 -11 -100 -90 -185 -177 -85 -86 -190 -188 -235 -226
-76 -64 -189 -129 -226 -129 -9 0 -24 -7 -32 -16 -15 -14 -17 -13 -26 11 -5
14 -10 32 -10 40 0 8 -4 16 -9 19 -12 8 -23 -38 -16 -67 6 -22 -16 -89 -38
-115 -6 -7 -12 -23 -13 -35 -2 -12 -6 -39 -10 -59 -8 -49 6 -49 40 0 17 25 26
51 26 78 0 50 10 85 21 78 5 -3 16 1 24 9 8 8 35 18 61 22 26 3 58 12 73 18
64 29 232 180 386 347 76 83 186 143 290 159 39 6 95 19 125 30 47 17 51 20
25 21 -16 0 -77 3 -135 6 -92 4 -109 3 -136 -14z"/>
<path d="M3590 6122 c0 -27 34 -84 67 -112 61 -51 230 -128 295 -136 56 -6 58
-6 68 20 5 15 14 25 19 21 5 -3 12 -1 15 4 3 5 -14 25 -39 46 -49 39 -55 37
-26 -11 18 -30 18 -31 0 -42 -28 -18 -41 -15 -136 29 -98 45 -197 112 -237
159 -14 18 -26 27 -26 22z"/>
<path d="M7020 6105 c-31 -18 -16 -18 30 0 23 9 28 14 15 14 -11 0 -31 -6 -45
-14z"/>
<path d="M9450 6062 c-19 -26 -57 -74 -84 -107 -60 -75 -86 -129 -85 -180 1
-39 1 -40 10 -10 11 38 137 197 153 192 16 -5 63 -87 70 -122 4 -18 -6 -5 -23
33 -22 46 -35 62 -50 62 -14 0 -23 -9 -27 -27 -4 -16 -11 -31 -16 -34 -9 -6 0
-57 32 -174 21 -77 28 -199 22 -395 -3 -78 -2 -90 7 -90 13 0 40 66 61 152 12
45 29 97 39 115 l17 34 24 -173 c13 -95 25 -200 27 -233 14 -191 40 71 28 285
-3 69 -10 152 -16 185 -5 33 -9 63 -9 68 0 16 -28 6 -48 -18 -12 -14 -28 -25
-36 -25 -20 0 -116 250 -116 300 1 33 63 -100 80 -170 19 -78 23 -82 65 -54
58 38 35 163 -43 243 -26 27 -52 50 -59 52 -11 4 0 67 22 122 13 32 -10 17
-45 -31z"/>
<path d="M8803 6066 c-81 -38 -111 -109 -78 -180 20 -42 25 -46 72 -56 71 -17
121 28 95 84 -15 33 2 56 41 56 18 0 42 -7 53 -15 25 -17 79 -106 118 -195 16
-36 41 -92 56 -125 15 -33 44 -97 64 -143 60 -139 140 -242 187 -242 19 0 26
15 10 22 -4 2 -29 38 -55 81 -51 84 -106 209 -168 382 -53 148 -82 199 -153
269 -93 92 -148 106 -242 62z"/>
<path d="M443 6065 c-27 -53 -88 -306 -128 -535 -21 -124 -47 -391 -40 -419
l6 -24 18 30 c33 53 188 149 296 183 22 7 81 27 130 45 50 18 114 38 143 45
62 14 70 25 113 136 17 44 34 83 40 89 15 16 10 27 -11 20 -27 -9 -70 17 -136
80 -53 50 -61 55 -91 49 -52 -10 -151 43 -210 112 -50 57 -70 91 -101 164 -17
41 -19 43 -29 25z"/>
<path d="M2859 6074 c0 -5 0 -28 1 -51 4 -96 -80 -199 -190 -235 -26 -9 -46
-22 -48 -31 -5 -25 92 -23 162 4 63 23 146 93 170 143 21 46 21 118 -1 145
-18 22 -92 41 -94 25z"/>
<path d="M522 6039 c-12 -18 -9 -27 18 -69 63 -98 161 -165 227 -155 36 6 43
2 118 -63 88 -76 120 -96 136 -87 15 10 -4 29 -59 61 -26 15 -68 45 -93 66
-25 21 -54 38 -65 38 -78 0 -139 45 -211 155 -26 41 -50 75 -53 75 -3 0 -11
-9 -18 -21z"/>
<path d="M6514 6050 c-130 -26 -274 -115 -399 -247 -53 -57 -93 -103 -89 -103
5 0 47 32 94 72 131 110 241 173 428 247 45 18 82 35 82 37 0 6 -72 2 -116 -6z"/>
<path d="M1778 6043 c-10 -2 -18 -11 -18 -18 0 -15 -46 -32 -100 -38 -26 -2
-36 -8 -38 -24 -3 -19 0 -19 52 -12 54 7 116 35 116 52 0 5 11 7 26 4 l25 -4
-22 23 c-12 13 -23 23 -23 23 -1 -1 -9 -3 -18 -6z"/>
<path d="M1914 5968 c3 -13 6 -45 7 -73 1 -46 1 -48 10 -20 11 35 2 115 -13
115 -6 0 -8 -10 -4 -22z"/>
<path d="M1741 5939 c-57 -21 -110 -39 -116 -39 -8 0 -19 -36 -30 -92 -20
-108 -57 -246 -80 -302 -9 -21 -15 -40 -13 -42 6 -5 135 172 143 195 3 11 10
21 14 21 14 0 21 -13 12 -24 -5 -6 -11 -67 -14 -136 -5 -117 -5 -122 8 -75 7
28 14 82 15 120 2 70 2 70 16 38 8 -18 16 -33 19 -33 15 0 123 61 146 82 31
29 63 118 56 156 -8 39 -59 172 -66 171 -3 0 -53 -18 -110 -40z"/>
<path d="M5905 5784 c-17 -8 -56 -39 -88 -69 -32 -30 -60 -55 -63 -55 -3 0
-26 -15 -52 -32 -33 -23 -64 -35 -102 -39 -53 -7 -53 -7 18 -6 91 0 124 16
177 82 39 47 109 108 137 118 7 2 11 7 8 10 -3 3 -19 -1 -35 -9z"/>
<path d="M4310 5706 c0 -74 2 -84 19 -89 11 -3 35 -27 53 -53 52 -76 144 -169
196 -196 42 -23 132 -47 132 -35 0 2 -42 36 -93 75 -109 83 -186 162 -216 220
-12 23 -21 45 -21 49 0 4 49 -42 108 -103 60 -61 136 -129 169 -152 33 -23 67
-48 75 -56 35 -35 84 -56 130 -56 38 0 50 5 67 26 35 44 27 58 -19 34 -21 -11
-56 -20 -77 -19 l-38 1 47 13 c26 7 62 22 81 34 27 16 36 18 47 8 10 -9 11 -9
6 1 -9 14 20 17 29 2 3 -5 2 -10 -3 -10 -6 0 -5 -10 1 -25 17 -36 47 -32 205
26 75 29 152 57 170 64 34 12 59 31 51 39 -4 4 -103 -25 -154 -45 -11 -5 -37
-15 -58 -23 -21 -9 -61 -18 -88 -22 -58 -8 -168 13 -176 33 -8 20 -19 16 -31
-13 -13 -27 -66 -54 -107 -54 -41 0 -105 36 -182 103 -260 227 -254 221 -251
247 2 14 13 30 26 36 23 11 22 11 -9 18 -17 3 -44 6 -60 6 l-29 0 0 -84z"/>
<path d="M5832 5660 c-91 -92 -110 -106 -136 -101 -5 1 -12 -2 -15 -6 -3 -4
-23 -16 -44 -25 -42 -20 -42 -30 -5 -117 l18 -43 131 127 c72 70 153 142 180
161 35 26 46 40 42 52 -10 28 -35 52 -54 52 -10 0 -63 -45 -117 -100z"/>
<path d="M9341 5741 c-19 -34 3 -268 30 -331 12 -28 27 -50 34 -50 45 0 13
286 -43 385 -9 17 -10 17 -21 -4z"/>
<path d="M5523 5485 l2 -100 -63 -33 c-116 -62 -206 -80 -527 -107 -59 -5 -76
-2 -110 15 -22 12 -57 21 -78 21 -120 0 -241 75 -374 233 -44 53 -63 54 -63 3
0 -75 68 -168 171 -233 23 -14 52 -35 63 -47 31 -29 141 -77 215 -93 130 -27
333 -15 509 31 89 22 268 104 308 140 l34 30 -15 63 c-8 34 -28 88 -44 120
l-29 57 1 -100z m-1106 -69 c61 -63 128 -106 239 -153 l89 -38 210 1 c168 1
221 4 265 18 30 9 75 22 100 27 53 13 182 72 205 95 15 15 17 15 30 -2 24 -31
18 -39 -42 -58 -32 -10 -90 -29 -129 -42 -226 -75 -420 -101 -581 -75 -204 32
-390 145 -451 274 -27 57 -29 86 -3 37 11 -19 41 -57 68 -84z"/>
<path d="M2292 5492 c-9 -6 5 -11 45 -15 78 -9 237 -60 350 -112 220 -103 369
-276 441 -513 24 -77 27 -103 26 -232 0 -132 -2 -152 -28 -225 -35 -101 -71
-157 -147 -230 -33 -31 -58 -60 -55 -62 12 -12 177 -54 232 -60 46 -4 63 -2
70 8 4 7 8 59 8 114 1 87 5 108 30 165 91 209 106 417 40 555 -31 67 -93 135
-126 140 -26 5 -26 5 21 -74 85 -140 91 -266 28 -511 -36 -140 -38 -181 -11
-322 8 -47 -3 -48 -38 -2 -39 52 -45 128 -17 229 12 44 30 110 40 147 35 131
41 215 21 293 -19 76 -84 189 -152 265 l-40 45 37 3 c21 1 58 -1 83 -6 60 -10
169 17 218 55 l37 28 -90 5 c-100 6 -135 20 -303 124 -211 131 -368 183 -582
192 -70 3 -131 1 -138 -4z"/>
<path d="M1478 5368 c-87 -87 -126 -135 -169 -208 -31 -52 -61 -112 -68 -132
-7 -20 -21 -48 -33 -63 -16 -20 -19 -34 -14 -63 17 -96 17 -107 2 -127 -15
-20 -15 -20 -16 1 0 28 -39 77 -56 70 -7 -3 -36 18 -64 45 -61 60 -81 60 -93
1 -6 -31 -12 -41 -20 -34 -22 18 -177 -15 -177 -38 0 -7 -7 -7 -21 1 -12 6
-44 9 -70 7 -58 -6 -53 6 17 41 31 16 69 25 118 27 119 7 120 7 112 61 -3 26
-13 58 -22 71 -15 22 -20 24 -67 18 -29 -4 -61 -13 -72 -20 -16 -10 -185 -30
-185 -22 0 2 24 19 53 39 61 42 91 53 169 62 64 7 81 21 76 62 -3 25 -12 31
-88 60 -151 57 -261 37 -392 -72 -66 -55 -107 -120 -137 -214 -14 -43 -14
-325 -1 -428 21 -161 52 -339 64 -372 l13 -34 43 74 c120 210 137 225 267 236
92 7 146 31 173 76 25 40 25 83 1 123 -15 25 -29 33 -72 41 -30 6 -81 9 -114
6 -49 -3 -56 -2 -41 8 10 6 73 15 140 19 82 4 132 12 153 24 36 18 63 61 63
101 0 15 4 24 10 20 6 -3 10 -22 10 -41 0 -28 4 -34 22 -34 12 0 46 14 76 31
30 17 57 28 60 24 11 -10 -40 -149 -105 -285 -87 -181 -105 -227 -143 -350
-18 -58 -36 -109 -40 -114 -10 -10 -4 99 10 173 5 30 10 62 9 70 -2 29 -38
-103 -49 -174 -29 -204 -39 -278 -46 -360 -7 -77 -9 -84 -15 -50 l-6 40 -1
-40 c-2 -119 54 -448 109 -633 21 -75 40 -136 42 -137 6 -6 47 -16 47 -12 0 2
-7 24 -15 48 -9 24 -30 127 -48 229 -28 166 -32 206 -32 385 0 116 4 207 10
217 7 11 11 -24 12 -120 3 -180 17 -287 64 -517 22 -104 39 -203 37 -220 -2
-25 1 -31 20 -33 27 -4 27 -5 3 66 -26 77 -69 336 -82 496 -11 131 -6 302 12
429 20 144 83 327 154 447 18 30 54 92 79 137 26 45 72 107 102 137 87 86 247
161 432 201 57 12 88 25 103 41 17 18 19 24 8 24 -8 0 -21 -6 -27 -12 -8 -8
-53 -15 -110 -19 -76 -5 -112 -12 -167 -35 -131 -56 -243 -147 -308 -251 -126
-204 -167 -276 -193 -337 -15 -38 -30 -64 -32 -58 -4 14 58 171 118 297 55
114 118 190 244 292 117 95 182 123 317 136 92 9 109 14 105 27 -2 8 -30 82
-60 163 -54 142 -95 320 -82 353 12 32 -19 8 -126 -98z"/>
<path d="M2046 5443 c-86 -18 -253 -83 -324 -126 -55 -33 -58 -43 -26 -95 11
-17 19 -20 32 -13 39 20 227 60 339 72 95 10 151 10 263 0 172 -14 271 -44
374 -111 170 -111 257 -273 259 -484 1 -141 -24 -230 -95 -341 -57 -90 -207
-165 -328 -165 -66 0 -146 48 -171 103 -36 80 -24 133 47 202 45 43 47 46 33
71 -40 76 -166 71 -229 -9 -21 -27 -25 -42 -25 -103 0 -84 13 -114 68 -150 40
-27 40 -53 -1 -40 -98 32 -148 188 -93 294 42 81 135 119 228 93 l33 -10 -15
36 c-8 19 -15 37 -15 39 0 2 -25 4 -56 4 -69 0 -112 -20 -170 -78 -69 -69 -88
-113 -89 -204 0 -69 3 -80 30 -120 20 -27 55 -57 98 -82 l67 -39 -6 -76 c-12
-141 40 -255 154 -342 36 -27 67 -48 68 -46 2 2 -1 19 -6 38 -15 52 -12 121 8
156 26 48 106 107 170 127 31 10 98 37 147 60 73 35 101 55 152 109 114 123
159 252 150 437 -10 224 -94 392 -286 572 -192 182 -528 277 -785 221z"/>
<path d="M5352 5433 c-6 -2 -10 -9 -7 -13 3 -5 -3 -8 -12 -8 -10 1 -67 -20
-128 -47 -69 -30 -130 -50 -162 -53 -30 -2 -58 -11 -65 -20 -11 -13 -8 -14 27
-8 22 5 78 12 125 16 83 9 226 51 271 82 l22 14 -23 22 c-25 23 -27 24 -48 15z"/>
<path d="M863 5356 c-47 -15 -128 -60 -138 -77 -15 -24 45 -1 74 29 36 35 71
42 72 15 2 -62 14 -81 52 -88 52 -10 116 12 159 55 42 42 46 54 21 65 -36 15
-197 15 -240 1z"/>
<path d="M9089 5361 c-4 -35 -1 -55 20 -139 13 -51 21 -95 18 -98 -3 -3 -14 0
-26 8 -29 18 -52 -7 -58 -64 -7 -63 11 -78 92 -78 103 0 165 17 203 57 17 19
32 40 32 46 0 7 -15 20 -32 30 -18 10 -46 29 -63 43 l-30 24 44 -15 c24 -8 52
-15 62 -15 11 0 19 -5 19 -11 0 -6 5 -9 11 -7 6 2 9 6 8 8 -1 3 3 15 10 28 9
17 16 20 25 13 8 -7 12 -5 13 8 1 14 -4 17 -17 14 -31 -8 -248 79 -265 106
-11 19 -65 52 -66 42z m117 -263 l29 -33 -30 25 c-16 14 -34 28 -39 32 -6 5
-6 8 0 8 6 0 23 -15 40 -32z"/>
<path d="M4730 5322 c0 -8 43 -32 57 -32 4 0 -3 9 -15 20 -22 21 -42 26 -42
12z"/>
<path d="M9470 5173 c-45 -85 -117 -196 -147 -228 -10 -11 -46 -56 -80 -100
-65 -85 -233 -255 -252 -255 -6 0 -11 -7 -11 -15 0 -31 29 -11 151 108 102 98
144 148 215 255 49 73 101 154 116 180 26 44 61 132 53 132 -2 0 -22 -35 -45
-77z"/>
<path d="M1955 5220 c-113 -20 -177 -40 -182 -56 -2 -6 10 -18 26 -26 27 -13
40 -12 118 4 178 37 436 33 562 -9 145 -48 215 -103 266 -206 30 -60 36 -84
36 -137 1 -102 -17 -156 -70 -210 -41 -42 -56 -50 -131 -70 -47 -12 -100 -31
-118 -42 -95 -58 -76 -192 33 -233 124 -48 313 51 385 201 12 25 30 88 38 140
15 87 15 102 0 190 -27 159 -100 275 -223 353 -164 104 -484 148 -740 101z"/>
<path d="M4198 5226 c-17 -12 -17 -15 -1 -46 9 -19 18 -55 21 -82 4 -47 5 -48
38 -48 32 0 47 14 24 22 -5 2 -19 37 -31 78 -24 87 -28 93 -51 76z"/>
<path d="M4132 5167 c-42 -44 -60 -93 -40 -113 19 -20 77 -21 89 -3 16 26 8
149 -10 149 -4 0 -21 -15 -39 -33z"/>
<path d="M935 5122 c18 -100 28 -132 39 -132 17 0 195 91 236 120 51 36 27 45
-136 47 l-146 1 7 -36z"/>
<path d="M1718 5144 c-16 -15 56 -194 78 -194 23 0 26 38 6 68 -11 15 -31 51
-46 80 -27 54 -29 56 -38 46z"/>
<path d="M2060 5107 c0 -14 -23 -87 -51 -164 -68 -184 -95 -292 -109 -448 -11
-111 -10 -145 3 -235 20 -131 39 -190 99 -308 61 -120 117 -192 220 -284 174
-156 189 -175 291 -348 148 -253 236 -545 207 -689 -25 -120 -119 -247 -223
-299 -54 -27 -175 -45 -244 -36 -29 3 -53 3 -53 -1 0 -15 71 -203 109 -290 32
-73 45 -90 63 -93 44 -4 134 -24 268 -57 92 -23 180 -37 276 -44 288 -22 380
-10 544 72 88 43 119 66 191 137 95 93 195 236 229 326 38 104 52 368 24 484
-20 87 -77 202 -115 234 -31 27 -63 33 -88 17 -11 -7 -8 -12 12 -22 33 -18
100 -103 121 -154 45 -106 59 -302 31 -421 -20 -88 -86 -233 -138 -306 -41
-58 -115 -133 -192 -197 -48 -40 -186 -108 -251 -125 -74 -19 -116 -20 -59 -2
266 86 493 315 586 591 21 60 24 89 24 200 -1 141 -18 212 -70 296 -35 54 -67
72 -143 78 -64 6 -67 7 -64 31 2 14 10 36 19 48 8 13 13 25 11 26 -2 1 -61 21
-133 44 -260 85 -466 202 -683 390 l-81 69 -69 -5 c-126 -9 -253 38 -356 129
-74 67 -106 131 -106 214 0 65 25 133 63 174 25 26 30 21 -68 84 -29 19 -61
52 -79 80 -26 43 -30 57 -30 126 0 64 5 88 27 132 39 79 78 121 147 158 53 28
69 32 120 29 50 -2 62 0 83 20 38 36 141 55 191 36 35 -14 12 -24 -52 -24 -54
0 -72 -4 -85 -18 -25 -28 -20 -85 13 -156 l29 -63 43 8 c24 4 46 8 50 9 16 0
90 74 106 104 10 20 16 57 16 106 1 62 -4 85 -26 130 -48 97 -130 164 -248
201 -51 16 -102 22 -232 26 l-168 6 0 -26z"/>
<path d="M9497 5088 c-9 -23 -15 -43 -13 -45 2 -2 11 15 20 38 9 23 15 43 13
45 -2 2 -11 -15 -20 -38z"/>
<path d="M1905 5107 c-44 -5 -81 -10 -83 -12 -1 -1 11 -26 28 -56 36 -65 36
-74 8 -102 -22 -22 -23 -28 -17 -132 8 -157 6 -272 -6 -284 -6 -6 -54 -13
-108 -17 -53 -4 -97 -10 -97 -13 0 -3 19 -16 43 -29 65 -35 148 -111 168 -156
20 -45 25 -120 9 -160 -49 -131 -322 -203 -434 -115 -36 28 -27 34 20 13 51
-22 155 -22 221 0 64 21 127 66 154 109 65 105 -101 291 -297 332 -79 16 -190
13 -243 -7 -43 -16 -148 -136 -190 -218 -57 -109 -108 -270 -116 -360 -3 -41
-8 -101 -11 -132 -8 -93 10 -67 24 35 13 93 75 294 117 377 32 63 100 128 165
158 74 35 184 35 250 2 104 -52 129 -91 108 -167 -7 -27 -32 -53 -50 -53 -2 0
-3 24 -4 54 0 61 -16 91 -70 132 -50 39 -142 45 -201 16 -59 -31 -135 -120
-181 -214 -46 -95 -65 -161 -87 -305 -18 -124 -18 -177 0 -76 33 180 123 393
207 488 83 94 198 116 198 38 0 -26 -5 -27 -48 -12 -57 20 -96 -14 -180 -158
-62 -105 -80 -152 -118 -311 -39 -160 -50 -229 -40 -265 7 -30 137 -93 270
-131 201 -59 537 -54 741 10 109 35 251 88 273 102 22 14 23 17 8 28 -112 82
-265 236 -326 329 -115 177 -168 407 -150 651 13 181 72 401 145 542 l42 82
-31 -1 c-17 -1 -67 -6 -111 -12z"/>
<path d="M1152 5048 c-79 -67 -93 -94 -68 -133 21 -32 39 -32 64 -1 20 26 87
185 80 191 -2 2 -36 -24 -76 -57z"/>
<path d="M9550 5076 c0 -8 -4 -16 -8 -18 -5 -1 -43 -75 -86 -163 -79 -163
-187 -337 -270 -434 -43 -49 -72 -91 -63 -91 2 0 18 20 36 45 18 25 61 65 96
90 35 26 86 74 113 108 64 81 135 221 163 322 24 85 35 155 25 155 -3 0 -6 -6
-6 -14z"/>
<path d="M3266 5003 c19 -25 52 -78 72 -117 30 -61 36 -83 40 -156 5 -105 -8
-196 -48 -326 -35 -112 -62 -265 -59 -329 4 -61 -11 -75 -81 -75 -40 0 -97 13
-184 41 -153 48 -198 50 -116 2 79 -45 191 -76 275 -76 71 0 150 16 160 33 3
5 0 69 -6 142 l-11 133 40 120 c22 66 45 147 52 180 17 81 18 251 2 296 -16
46 -84 137 -119 161 -48 31 -54 20 -17 -29z"/>
<path d="M4436 5021 c28 -16 73 -54 100 -83 28 -31 41 -41 30 -23 -39 64 -100
114 -156 130 -14 3 -2 -7 26 -24z"/>
<path d="M3979 5000 c-46 -24 -104 -84 -126 -130 -20 -43 -25 -164 -5 -166 6
-1 19 -2 29 -3 21 -1 132 -118 158 -166 24 -46 32 -49 76 -31 53 22 63 39 55
94 -19 145 -19 156 5 186 44 56 136 73 196 36 18 -10 44 -37 59 -59 23 -35 26
-48 22 -100 -6 -86 -36 -124 -165 -214 -138 -96 -198 -158 -262 -268 -88 -156
-110 -259 -91 -434 13 -130 56 -345 70 -359 7 -7 9 60 7 205 -2 183 1 223 16
279 62 218 153 344 380 530 144 118 194 245 152 388 -50 168 -259 258 -421
181 -55 -26 -95 -98 -101 -183 -5 -53 -2 -69 21 -114 25 -49 36 -129 20 -145
-4 -4 -20 19 -37 50 -25 47 -28 63 -23 102 3 25 1 70 -5 101 -15 78 0 130 55
185 41 40 42 44 22 49 -37 10 -70 6 -107 -14z"/>
<path d="M9618 4893 c-36 -84 -132 -218 -210 -295 l-68 -68 54 0 c43 0 73 -8
131 -36 42 -20 78 -35 79 -33 8 10 36 211 47 333 13 160 5 185 -33 99z"/>
<path d="M9381 4864 c-24 -36 -85 -118 -135 -182 -144 -181 -253 -352 -227
-352 5 0 17 12 26 27 10 15 28 37 41 50 45 45 152 190 216 293 75 121 130 221
125 226 -2 2 -22 -26 -46 -62z"/>
<path d="M960 4685 c-14 -7 -41 -17 -60 -20 -59 -10 -64 -17 -43 -59 17 -36
18 -37 58 -30 22 3 53 13 69 21 24 13 27 19 22 45 -3 17 -6 37 -6 44 0 17 -8
17 -40 -1z"/>
<path d="M4862 4594 c-18 -42 -67 -67 -192 -99 -76 -19 -118 -36 -152 -61
-325 -233 -478 -497 -478 -824 0 -101 17 -286 30 -327 8 -25 9 -23 5 12 -14
133 -15 196 -5 325 19 244 45 338 124 458 54 82 115 145 203 212 90 68 151 96
261 120 123 26 159 44 193 99 20 31 29 39 29 25 0 -10 8 -42 18 -69 10 -28 17
-57 14 -65 -3 -12 -2 -12 8 -3 9 9 7 30 -13 100 -14 48 -27 97 -29 108 -3 17
-5 15 -16 -11z"/>
<path d="M933 4551 c-49 -8 -58 -14 -50 -35 5 -11 16 -13 44 -9 21 3 44 10 51
16 13 10 17 38 5 36 -5 -1 -27 -5 -50 -8z"/>
<path d="M9047 4514 c-29 -29 -37 -44 -37 -73 l0 -36 40 65 c56 90 55 100 -3
44z"/>
<path d="M9355 4490 c-35 -5 -164 -84 -165 -100 0 -3 30 -5 68 -5 78 -1 127
-23 183 -82 64 -66 82 -115 87 -227 8 -177 -37 -292 -164 -421 l-72 -74 24
-58 c13 -32 24 -66 24 -75 1 -91 104 122 165 342 24 85 55 206 70 269 25 106
45 155 70 173 18 14 60 8 100 -12 49 -25 48 -25 39 3 -17 54 -179 202 -261
239 -55 24 -119 35 -168 28z"/>
<path d="M810 4426 c-54 -35 -96 -46 -176 -46 -62 0 -77 -3 -102 -25 -40 -33
-92 -142 -92 -192 0 -73 50 -319 79 -388 5 -11 14 -39 20 -62 11 -41 49 -80
139 -142 29 -21 32 -21 32 -4 2 180 34 485 71 666 23 117 45 166 76 173 19 5
21 9 12 25 -12 24 -16 23 -59 -5z"/>
<path d="M4837 4426 c-10 -25 -70 -47 -165 -62 -101 -15 -145 -34 -238 -99
-160 -114 -268 -278 -300 -455 -21 -117 -16 -133 15 -49 41 110 98 212 154
274 65 73 180 158 243 181 49 17 52 17 90 -2 21 -10 41 -27 42 -37 5 -27 -34
-64 -103 -99 -79 -40 -182 -107 -221 -144 -84 -80 -153 -205 -189 -344 -38
-142 -18 -417 35 -483 17 -21 18 -17 13 108 -10 251 55 471 170 572 46 40 75
55 179 94 145 53 220 114 274 222 41 81 63 172 45 190 -8 8 -11 5 -11 -13 -1
-37 -53 -154 -90 -200 -45 -57 -55 -50 -14 11 44 66 68 147 66 229 -1 98 13
127 36 75 6 -14 18 -25 25 -25 15 0 57 -41 57 -56 0 -5 13 -17 29 -27 15 -9
68 -51 117 -93 49 -42 106 -84 127 -94 l37 -18 0 41 c0 37 -6 46 -55 93 -51
47 -148 102 -286 164 -27 12 -49 29 -52 40 -6 23 -22 26 -30 6z"/>
<path d="M3935 4376 c-63 -20 -121 -53 -144 -82 l-20 -26 63 -62 c34 -33 69
-75 76 -93 l14 -32 44 82 c51 96 82 138 137 189 l40 37 -85 0 c-47 0 -103 -6
-125 -13z"/>
<path d="M5036 4351 c100 -35 117 -44 176 -93 68 -57 92 -99 85 -152 -5 -38
-3 -45 17 -55 12 -7 42 -44 67 -83 45 -73 86 -107 152 -128 33 -10 45 -10 78
5 42 19 51 35 20 35 -52 0 -81 23 -160 129 -65 87 -156 186 -235 256 -35 32
-123 79 -178 96 -96 29 -113 21 -22 -10z"/>
<path d="M8180 4355 c0 -14 -7 -42 -15 -62 -9 -20 -13 -43 -11 -50 7 -18 31
-16 47 3 10 13 10 17 0 24 -9 5 -11 18 -6 39 5 26 10 31 23 24 25 -12 136 -9
226 6 44 7 96 10 115 6 l36 -7 -37 -18 c-20 -10 -90 -30 -155 -45 -148 -33
-171 -41 -208 -77 -17 -15 -36 -28 -43 -28 -6 0 -40 -28 -75 -62 -49 -48 -67
-74 -77 -111 -16 -58 -8 -132 19 -184 22 -43 89 -111 77 -79 -32 90 -30 163 9
259 27 67 106 175 151 206 44 30 188 65 240 57 28 -3 52 0 71 9 33 18 88 19
132 4 17 -6 31 -13 31 -15 0 -11 -35 -42 -42 -38 -4 3 -8 -1 -8 -8 0 -8 16
-28 35 -47 19 -18 35 -37 35 -42 0 -5 4 -9 8 -9 10 0 9 41 -1 57 -10 16 1 59
19 74 8 6 14 15 14 20 0 5 -44 30 -97 56 -108 53 -103 52 -355 42 -77 -3 -110
-1 -119 9 -21 20 -39 14 -39 -13z"/>
<path d="M9193 4364 c-6 -3 -43 -44 -81 -92 -38 -48 -82 -98 -98 -112 -28 -26
-27 -23 13 45 21 34 15 30 -44 -30 -54 -56 -83 -100 -141 -210 -132 -250 -165
-355 -164 -520 1 -60 4 -123 7 -140 l6 -30 -33 35 c-53 55 -87 80 -46 33 48
-54 59 -78 114 -230 67 -188 77 -230 76 -311 -1 -58 2 -71 12 -63 7 6 43 22
81 36 l69 26 60 -31 c76 -40 149 -49 197 -25 40 21 119 91 111 99 -3 3 -26 6
-51 6 -25 0 -63 4 -84 9 -24 6 -48 5 -67 -2 -38 -15 -65 5 -49 36 11 19 9 20
-32 13 -54 -9 -87 -29 -99 -62 -9 -23 -40 -34 -40 -14 0 5 12 34 27 64 25 51
25 57 11 73 -41 47 -108 230 -108 296 0 32 9 15 25 -47 17 -64 43 -117 80
-161 l25 -30 59 59 c64 63 68 85 26 118 -12 10 -27 30 -33 45 -12 30 -92 381
-92 404 0 23 16 -4 39 -66 12 -33 30 -70 39 -83 l17 -22 50 51 c56 57 84 74
140 84 60 11 86 28 147 94 95 103 136 222 125 367 -12 159 -105 269 -242 287
-22 3 -45 4 -52 1z"/>
<path d="M9080 4301 c-11 -23 -19 -41 -16 -41 7 0 47 72 42 77 -2 3 -14 -13
-26 -36z"/>
<path d="M8094 4306 c-16 -12 -17 -19 -8 -44 14 -38 1 -66 -28 -56 -13 4 -27
-1 -43 -16 -26 -24 -36 -47 -60 -132 -13 -45 -21 -58 -36 -58 -47 0 -86 -28
-122 -86 -66 -109 -119 -138 -191 -104 -23 10 -53 27 -68 36 -15 10 -31 15
-35 10 -4 -4 -8 -38 -8 -74 l0 -67 -39 -13 c-107 -35 -189 -36 -306 -6 -56 15
-2 -16 69 -39 l74 -24 85 23 c47 13 88 22 90 19 2 -2 -36 -23 -84 -47 -49 -24
-91 -44 -94 -46 -2 -2 2 -7 10 -12 13 -8 13 -12 -2 -26 -16 -17 -18 -16 -24 2
-8 22 -94 114 -107 114 -15 0 2 -52 34 -103 16 -27 27 -53 23 -58 -8 -13 63
-41 84 -34 9 3 37 30 62 60 27 33 68 66 101 85 31 16 59 37 63 45 3 8 3 52 -1
97 l-6 83 56 -57 c31 -30 59 -68 63 -82 7 -29 16 -31 62 -15 27 9 30 14 22 30
-6 10 -19 19 -30 19 -36 0 -29 18 14 34 50 19 77 47 96 96 20 52 48 88 80 105
16 8 31 15 33 15 2 0 7 -30 11 -66 8 -83 23 -111 80 -158 51 -41 60 -40 21 2
-47 50 -75 120 -75 186 1 79 22 125 99 211 48 54 61 76 61 102 0 17 5 35 10
38 14 9 12 25 -3 25 -7 0 -22 -6 -33 -14z"/>
<path d="M3576 4240 c-66 -21 -126 -114 -126 -196 0 -58 13 -54 48 16 31 64
64 86 96 65 12 -7 56 -27 98 -45 83 -34 149 -95 185 -170 10 -22 12 -18 12 41
2 129 -47 217 -149 269 -48 24 -122 33 -164 20z m134 -95 c17 -9 30 -20 30
-25 0 -6 -7 -7 -17 -1 -10 5 -34 16 -53 24 -29 13 -31 16 -12 16 13 1 36 -6
52 -14z"/>
<path d="M4931 4220 c-5 -17 -7 -29 -3 -26 8 5 37 -11 170 -87 35 -21 67 -37
70 -37 4 0 29 -31 55 -68 74 -104 91 -172 92 -369 0 -90 3 -163 6 -163 34 0
66 151 48 228 -5 20 -9 67 -9 104 0 150 -42 225 -145 263 -27 11 -69 36 -93
56 -23 20 -67 48 -96 62 -32 15 -57 35 -61 46 -9 30 -21 26 -34 -9z"/>
<path d="M8365 4223 c-28 -7 -125 -71 -147 -96 -10 -12 -37 -58 -60 -102 -38
-74 -41 -86 -42 -160 0 -96 14 -128 81 -182 60 -49 122 -107 104 -97 -9 5 -12
3 -7 -5 4 -6 15 -10 24 -9 9 2 17 -1 18 -7 0 -5 31 -41 68 -80 82 -85 170
-214 238 -349 51 -102 62 -128 104 -246 12 -36 23 -58 23 -50 2 35 -44 172
-89 265 -26 55 -64 135 -84 178 -20 44 -74 128 -123 192 -158 207 -178 251
-171 370 6 89 36 151 82 170 56 24 106 2 106 -46 0 -24 -4 -29 -25 -29 -37 0
-75 -21 -81 -46 -8 -32 24 -93 52 -100 67 -17 165 40 205 118 32 63 24 158
-18 218 -55 81 -159 118 -258 93z"/>
<path d="M4897 4135 c-20 -48 -100 -154 -141 -186 -14 -11 -40 -26 -58 -33
l-33 -14 47 -12 c81 -21 188 -113 188 -162 0 -10 -21 -58 -46 -106 -43 -81
-46 -91 -41 -143 3 -31 13 -69 23 -85 49 -79 123 -130 178 -121 153 24 244 51
134 40 l-58 -6 0 35 c0 20 16 66 40 114 58 113 73 172 68 264 -4 62 -12 92
-41 154 -20 42 -51 90 -69 106 -31 29 -32 30 -9 30 31 0 88 -61 117 -125 13
-28 29 -83 36 -123 11 -63 10 -85 -4 -153 -9 -43 -28 -104 -42 -134 -31 -68
-43 -125 -27 -125 40 0 116 61 109 87 -1 4 4 39 11 77 17 87 9 228 -18 317
-29 91 -83 164 -167 224 -39 28 -93 66 -120 85 -27 19 -51 36 -54 37 -3 2 -13
-17 -23 -42z"/>
<path d="M4483 4130 c-83 -41 -148 -101 -215 -195 -50 -71 -67 -110 -26 -60
107 130 160 175 271 229 91 44 105 54 86 59 -34 9 -29 11 -116 -33z"/>
<path d="M376 4081 l-28 -41 43 -102 c87 -206 127 -244 73 -71 -14 49 -34 126
-43 172 l-17 83 -28 -41z"/>
<path d="M3563 4068 c-41 -11 -52 -28 -18 -28 38 0 76 -22 122 -73 60 -65 65
-79 64 -177 l-1 -88 36 -21 c44 -26 45 -26 34 3 -11 29 -25 153 -17 146 3 -3
27 -65 52 -138 51 -145 84 -226 85 -201 0 36 -62 335 -81 384 -47 126 -179
218 -276 193z"/>
<path d="M2207 4019 c-17 -64 2 -143 50 -204 66 -85 218 -155 334 -155 66 0
75 12 35 49 -40 37 -60 104 -53 178 8 77 -6 81 -41 13 -28 -55 -24 -111 13
-178 14 -25 23 -47 21 -50 -3 -2 -17 4 -33 15 -15 10 -54 27 -85 36 -76 24
-152 92 -189 172 -16 33 -29 71 -30 85 0 14 -4 34 -8 44 -7 18 -8 18 -14 -5z"/>
<path d="M4546 3839 c-116 -27 -215 -148 -262 -319 -15 -51 -18 -102 -18 -240
0 -152 4 -192 27 -305 38 -180 43 -262 23 -365 -29 -144 -149 -371 -251 -473
-93 -93 -345 -229 -526 -283 -26 -8 -52 -21 -59 -29 -11 -13 -6 -15 37 -15
146 0 382 110 540 251 173 154 266 315 302 523 21 117 6 321 -34 477 -47 182
-42 334 15 454 63 132 160 194 299 194 44 0 94 -4 110 -9 36 -10 111 7 111 26
0 7 -17 31 -37 52 -59 62 -169 86 -277 61z"/>
<path d="M5394 3826 c-3 -8 -4 -27 -2 -43 3 -27 6 -28 53 -28 l50 0 7 -50 c33
-250 -39 -447 -213 -582 -67 -53 -71 -68 -7 -30 60 35 180 162 210 222 52 104
63 152 63 290 0 153 -10 181 -78 214 -51 25 -75 27 -83 7z"/>
<path d="M7915 3820 c3 -5 8 -10 11 -10 2 0 4 5 4 10 0 6 -5 10 -11 10 -5 0
-7 -4 -4 -10z"/>
<path d="M7911 3767 c-6 -16 -11 -33 -11 -38 0 -10 -43 -3 -72 13 -10 5 -18
14 -18 21 0 25 -20 -19 -20 -45 0 -25 3 -27 58 -32 129 -14 231 -37 357 -81
l40 -15 -25 20 c-14 11 -61 38 -105 61 -93 48 -177 99 -187 113 -4 6 -12 -2
-17 -17z"/>
<path d="M455 3695 c4 -11 18 -51 31 -90 81 -247 154 -429 231 -575 58 -112
53 -106 91 -95 36 10 38 18 17 95 -32 118 -64 269 -75 363 -12 95 -14 98 -44
114 -62 32 -142 92 -200 149 -32 33 -55 50 -51 39z"/>
<path d="M4563 3667 c-75 -17 -134 -71 -180 -165 -36 -72 -38 -82 -42 -189 -3
-118 10 -227 34 -274 13 -23 23 -29 72 -35 32 -5 123 -8 203 -9 l145 0 0 112
c0 90 4 116 17 129 15 15 13 19 -23 51 -50 45 -81 126 -82 213 -1 55 4 74 30
123 l31 57 -76 -1 c-43 0 -100 -6 -129 -12z"/>
<path d="M5447 3663 c-4 -3 -7 -36 -7 -73 0 -80 -21 -155 -66 -235 -60 -108
-95 -140 -217 -199 -62 -30 -132 -71 -156 -92 -44 -38 -91 -124 -91 -166 0
-19 1 -19 21 6 12 15 30 26 44 26 21 0 24 -6 30 -47 3 -27 10 -72 16 -101 12
-57 8 -72 -14 -54 -17 15 -27 6 -27 -25 0 -25 108 -160 192 -239 176 -167 445
-333 643 -397 181 -58 440 -93 620 -82 132 8 405 59 489 91 13 5 16 -3 16 -52
0 -117 10 -42 16 117 6 155 4 169 -20 262 -33 124 -33 161 0 84 45 -106 57
-194 51 -377 -3 -104 -12 -189 -22 -230 -22 -84 -135 -319 -213 -440 -33 -52
-70 -110 -81 -128 l-21 -33 33 24 c45 35 94 58 152 73 68 19 160 18 189 -1 21
-14 35 -14 140 4 64 10 118 20 120 22 2 2 -1 36 -6 74 -13 102 -2 175 34 230
16 25 33 45 37 45 3 0 19 12 34 26 26 24 27 27 13 43 -20 22 -20 31 -1 31 19
0 19 20 0 111 -20 96 -45 148 -94 202 -23 24 -41 47 -41 51 0 3 17 6 38 6 21
0 59 7 85 16 46 15 47 17 47 57 0 23 -9 150 -21 282 -18 191 -25 242 -38 251
-34 25 -61 52 -61 62 0 35 -197 155 -255 155 -29 0 -32 9 -10 27 9 7 13 21 10
31 -4 10 19 69 55 145 33 70 58 129 56 131 -2 2 -16 -11 -31 -29 -35 -42 -72
-123 -90 -200 -7 -33 -23 -70 -34 -82 -27 -29 -26 -36 2 -36 27 0 229 -99 267
-131 l25 -21 -30 6 c-202 36 -255 33 -286 -17 -10 -18 -24 -48 -29 -68 l-10
-37 -47 14 c-65 20 -147 69 -232 139 -82 68 -207 275 -255 423 -10 28 -19 52
-21 52 -2 0 -50 -27 -107 -61 -328 -194 -681 -324 -1033 -379 -38 -6 -81 -13
-93 -16 l-24 -5 27 -34 26 -35 -29 0 c-39 0 -132 29 -132 41 0 5 29 40 65 77
42 43 61 70 55 76 -6 6 4 19 31 36 22 15 75 59 118 98 118 107 171 226 171
390 0 84 -5 103 -23 85z"/>
<path d="M4774 3605 c-48 -103 -28 -233 43 -283 54 -37 58 -36 20 8 -40 47
-67 120 -67 179 0 20 11 62 24 94 30 73 13 75 -20 2z"/>
<path d="M8235 3627 c22 -20 44 -36 49 -37 15 0 -20 34 -56 54 -32 18 -32 18
7 -17z"/>
<path d="M7728 3605 c-67 -18 -173 -70 -219 -106 -62 -49 -128 -150 -156 -237
-47 -147 -25 -249 72 -341 63 -60 112 -76 207 -68 82 7 114 23 166 82 75 85
79 192 11 270 -53 60 -127 69 -189 23 -37 -27 -39 -58 -5 -89 33 -32 32 -55
-3 -67 -56 -19 -95 35 -95 133 0 104 58 178 173 217 92 32 246 32 347 -1 331
-107 602 -516 603 -909 0 -194 -89 -516 -188 -675 -13 -22 -21 -41 -18 -44 13
-13 147 140 204 233 75 123 97 182 117 325 19 138 19 229 0 348 -21 128 -55
225 -127 361 -88 166 -144 243 -250 346 -107 104 -206 160 -342 194 -91 23
-234 26 -308 5z"/>
<path d="M7500 3587 c-47 -19 -63 -34 -120 -108 -52 -68 -69 -99 -79 -145 -21
-91 -47 -138 -112 -194 -32 -28 -59 -55 -59 -60 0 -5 17 -19 38 -31 20 -13 89
-65 152 -116 63 -51 119 -93 124 -93 5 0 -23 33 -62 74 -87 92 -108 144 -98
247 9 82 29 157 61 219 31 59 129 166 184 202 54 34 45 35 -29 5z"/>
<path d="M9107 3510 c-76 -84 -100 -160 -75 -234 10 -30 20 -42 41 -47 26 -7
35 -2 84 46 l56 54 51 -24 c61 -29 76 -21 76 42 0 37 -8 58 -46 114 -78 118
-116 128 -187 49z"/>
<path d="M3721 3517 c-44 -15 -58 -56 -32 -89 18 -21 18 -21 17 22 -1 35 3 45
17 48 34 7 49 -5 36 -29 -10 -19 1 -33 119 -153 182 -185 201 -223 233 -456
23 -174 24 -241 5 -305 -8 -26 -18 -73 -21 -104 -6 -53 -5 -55 11 -36 28 34
73 138 84 194 12 66 13 224 1 307 -5 33 -24 96 -42 139 -48 116 -217 335 -305
396 -49 33 -55 49 -21 49 20 1 21 1 4 11 -29 17 -69 19 -106 6z"/>
<path d="M7166 3482 c-7 -11 56 -101 72 -102 24 0 12 -29 -24 -56 -20 -16 -49
-54 -66 -88 -17 -34 -44 -77 -61 -96 -26 -30 -28 -35 -13 -38 25 -5 77 39 131
110 55 73 67 99 70 153 3 40 -23 85 -50 85 -6 0 -21 9 -33 20 -11 11 -23 16
-26 12z"/>
<path d="M1030 3402 c1 -135 21 -287 49 -368 29 -83 29 -85 10 -97 -10 -6 -19
-15 -19 -18 0 -4 44 -8 98 -11 120 -6 164 -27 275 -129 66 -61 86 -72 173
-104 55 -19 107 -35 116 -35 27 0 93 -96 151 -221 91 -191 114 -243 122 -268
4 -14 32 -81 63 -150 30 -70 67 -155 82 -191 16 -36 44 -100 64 -142 66 -145
98 -247 103 -338 7 -106 -7 -159 -54 -211 -50 -55 -72 -51 -29 6 71 92 69 207
-4 400 -105 276 -399 918 -468 1023 -54 83 -50 53 9 -55 29 -54 78 -154 110
-223 31 -69 96 -209 143 -312 75 -161 88 -197 92 -255 7 -81 -6 -117 -65 -185
-29 -33 -58 -53 -97 -67 -67 -26 -150 -28 -176 -4 -25 22 -24 1 3 -47 18 -32
44 -53 107 -90 11 -6 11 -16 2 -51 -22 -80 10 -182 81 -264 50 -57 82 -69 164
-62 137 12 189 42 239 142 27 53 29 61 23 148 -10 146 -58 300 -201 637 -46
107 -87 206 -91 220 -4 14 -38 86 -75 160 -37 74 -86 174 -108 221 -27 56 -59
105 -93 140 -29 30 -62 66 -73 81 -12 15 -49 62 -82 105 -92 118 -167 237
-244 388 -38 75 -70 140 -72 145 -2 5 -39 18 -83 30 -44 12 -117 39 -162 60
l-83 39 0 -47z"/>
<path d="M5280 3339 c-101 -95 -124 -104 -260 -103 -64 0 -129 4 -145 7 -28 6
-28 6 -7 -5 15 -7 21 -17 17 -27 -14 -35 -25 -117 -25 -180 0 -39 -6 -78 -15
-95 -20 -38 -20 -37 25 -102 22 -32 40 -50 40 -42 0 8 -11 32 -25 52 -20 30
-23 41 -14 57 6 11 17 43 25 69 20 69 50 99 180 186 63 42 122 86 132 99 11
13 43 44 73 70 45 38 79 76 67 75 -2 -1 -32 -28 -68 -61z"/>
<path d="M9196 3248 c-9 -12 -16 -41 -16 -64 0 -75 69 -118 190 -118 62 0 130
22 130 43 0 10 -112 98 -170 133 -57 35 -112 37 -134 6z"/>
<path d="M3692 3194 c-37 -26 -102 -114 -102 -137 l1 -22 19 23 c10 13 25 22
32 21 25 -3 38 1 38 12 0 5 -4 7 -10 4 -5 -3 -10 -2 -10 4 0 6 21 17 48 24 58
18 131 9 170 -20 43 -32 109 -133 132 -203 24 -72 49 -257 50 -364 0 -62 -2
-68 -14 -51 -13 18 -14 18 -21 -4 -6 -20 -12 -22 -41 -18 -31 5 -34 4 -34 -19
0 -47 -40 -136 -116 -262 -43 -70 -95 -144 -116 -166 -21 -21 -38 -40 -38 -42
0 -13 90 51 141 101 76 74 203 225 225 267 15 28 27 85 55 252 16 94 -11 257
-57 351 -27 56 -115 171 -160 208 -68 57 -146 73 -192 41z"/>
<path d="M9076 3087 c-23 -17 -35 -82 -23 -119 9 -29 70 -57 144 -65 47 -6
106 18 157 63 27 24 28 26 10 39 -11 8 -35 20 -54 26 -19 6 -61 25 -92 40 -62
31 -113 37 -142 16z"/>
<path d="M3838 3050 c71 -69 110 -189 122 -373 4 -76 10 -141 13 -143 3 -3 11
4 17 17 9 15 11 59 8 138 -4 94 -10 129 -32 186 -34 89 -78 155 -125 184 l-36
23 33 -32z"/>
<path d="M4820 3040 c0 -5 5 -10 10 -10 6 0 10 5 10 10 0 6 -4 10 -10 10 -5 0
-10 -4 -10 -10z"/>
<path d="M4238 2813 c4 -177 -10 -299 -44 -364 -22 -45 -153 -198 -283 -331
-30 -32 -52 -58 -47 -58 17 0 141 95 201 154 70 70 181 249 203 330 21 78 21
278 -1 348 -9 31 -21 59 -25 62 -4 2 -6 -61 -4 -141z"/>
<path d="M798 2894 c-33 -17 -68 -77 -98 -164 -12 -36 -34 -90 -50 -120 -52
-103 -98 -198 -105 -219 -8 -25 20 -34 110 -35 l60 -1 13 42 c12 35 23 48 68
74 66 37 90 68 143 182 42 93 66 109 50 35 -17 -79 -74 -181 -119 -213 -101
-73 -100 -71 -100 -136 0 -32 4 -59 9 -59 6 0 40 7 77 16 37 8 81 14 98 13 41
-4 52 4 67 49 28 86 143 332 155 332 8 0 14 -7 14 -16 0 -15 -46 -123 -112
-262 -30 -64 -35 -118 -12 -143 27 -30 68 -49 106 -49 38 0 69 38 87 106 14
54 67 131 102 149 36 19 69 19 69 0 0 -8 -4 -14 -8 -13 -18 6 -88 -70 -114
-123 -36 -71 -36 -101 0 -131 15 -12 58 -59 96 -103 99 -114 110 -125 124
-125 22 0 126 -57 147 -80 55 -61 114 -62 233 -3 72 36 74 38 68 67 -7 33 -56
143 -186 416 -44 91 -82 175 -85 188 -9 31 -68 67 -134 82 -46 11 -66 24 -132
85 -108 101 -158 124 -300 135 -63 5 -139 16 -169 25 -69 19 -137 19 -172 -1z"/>
<path d="M648 2855 c-90 -47 -123 -116 -133 -277 -4 -62 -9 -121 -11 -130 -8
-26 21 -22 38 5 21 32 104 233 122 296 9 30 25 69 36 88 11 19 20 36 20 39 0
10 -28 2 -72 -21z"/>
<path d="M4950 2847 c0 -29 24 -97 35 -97 9 0 -4 55 -21 94 l-13 31 -1 -28z"/>
<path d="M8174 2831 c-18 -11 -40 -39 -54 -67 -20 -44 -22 -59 -17 -141 8
-131 10 -132 86 -62 35 32 59 59 52 59 -6 0 -30 -17 -52 -37 l-42 -38 21 42
c30 58 65 83 118 83 36 0 49 -6 79 -35 52 -53 47 -76 -7 -30 -16 14 -34 25
-38 25 -26 0 -100 -120 -100 -162 0 -23 -18 -33 -65 -33 -32 0 -42 -5 -54 -27
-19 -32 -11 -44 19 -28 14 7 51 11 95 8 98 -5 130 -30 187 -144 56 -113 62
-186 25 -293 -29 -81 -97 -206 -139 -253 -15 -18 -28 -34 -28 -37 0 -3 -12
-20 -28 -36 -15 -17 -36 -41 -47 -54 l-20 -24 25 16 c14 9 39 33 55 54 17 20
48 58 71 83 54 60 62 76 145 280 111 275 112 280 112 405 0 87 -5 124 -22 175
-41 120 -137 243 -217 276 -48 20 -123 18 -160 -5z m202 -110 c51 -23 106 -87
147 -171 30 -61 32 -70 32 -180 0 -107 -2 -121 -34 -203 -19 -48 -36 -86 -38
-83 -2 2 5 41 17 86 24 95 30 261 12 327 -17 58 -70 132 -119 167 -35 24 -55
30 -117 34 -74 5 -87 14 -42 32 35 15 99 11 142 -9z"/>
<path d="M8057 2733 c-3 -10 -8 -30 -11 -44 -3 -15 -36 -55 -72 -90 -70 -68
-127 -142 -117 -153 4 -3 13 -6 20 -6 30 0 120 -50 152 -84 44 -46 55 -46 47
2 -4 20 -7 117 -8 215 -1 97 -2 177 -4 177 -1 0 -5 -8 -7 -17z"/>
<path d="M8915 2729 c-17 -4 -47 -24 -68 -43 l-37 -34 0 -88 c-1 -49 -5 -118
-9 -154 -5 -36 -12 -90 -16 -120 l-6 -55 28 50 c16 28 77 124 136 214 59 90
107 174 107 187 0 45 -61 65 -135 43z"/>
<path d="M7439 2685 c-2 -5 0 -57 6 -115 10 -103 10 -104 13 -39 3 68 -10 172
-19 154z"/>
<path d="M1925 2538 c4 -23 36 -97 71 -163 63 -121 122 -247 209 -450 26 -60
62 -144 80 -185 50 -116 111 -311 145 -465 45 -198 43 -195 96 -195 48 0 59
-16 18 -26 -22 -6 -25 -11 -19 -33 15 -63 105 -211 105 -174 0 6 -4 15 -10 18
-14 8 -12 60 3 118 l13 49 63 -141 c90 -201 169 -281 278 -281 72 0 73 21 6
85 l-58 56 50 -7 c64 -11 190 -11 236 -1 60 12 124 78 169 171 99 204 65 419
-90 577 -46 46 -67 59 -128 78 -92 30 -215 26 -286 -9 -65 -31 -137 -99 -171
-162 -61 -111 -26 -236 79 -284 80 -36 132 -40 208 -15 106 35 161 109 124
166 -9 14 -25 25 -35 25 -13 0 -18 6 -16 18 2 12 11 17 37 16 53 -1 90 -25
123 -78 26 -43 30 -58 29 -115 -4 -190 -163 -296 -351 -235 -73 23 -215 135
-274 214 -42 56 -144 284 -197 440 -27 80 -79 219 -114 310 -36 91 -95 244
-132 340 -74 193 -133 294 -204 347 -58 44 -65 42 -57 -9z"/>
<path d="M7618 2446 c-59 -16 -116 -59 -134 -102 -7 -18 -16 -59 -19 -91 -3
-41 -2 -50 4 -33 5 14 9 37 10 53 1 40 71 112 128 131 26 9 69 16 97 16 121 0
169 -38 244 -190 42 -88 46 -101 46 -170 0 -88 -22 -142 -86 -215 -48 -54 -72
-60 -31 -7 107 137 94 334 -25 400 -50 28 -82 24 -118 -15 -20 -22 -24 -36
-22 -71 3 -45 3 -45 53 -58 28 -7 52 -13 54 -14 17 -2 -31 35 -61 47 -31 12
-36 18 -27 29 6 8 30 14 54 14 51 0 100 -35 121 -87 30 -70 9 -191 -42 -244
-14 -14 -24 -32 -22 -39 3 -11 -54 -48 -94 -63 -7 -2 -11 -7 -8 -10 21 -23
246 144 305 227 67 95 67 167 -2 299 -87 165 -251 240 -425 193z"/>
<path d="M7605 2345 c-52 -19 -75 -48 -75 -96 0 -41 9 -49 30 -24 7 8 37 29
67 46 43 25 71 33 127 37 l71 5 -60 23 c-70 27 -105 29 -160 9z"/>
<path d="M448 2343 c-46 -7 -52 -24 -39 -105 14 -84 59 -184 102 -228 44 -43
53 -39 45 23 -3 28 -9 106 -12 172 -4 66 -11 126 -16 133 -10 12 -27 13 -80 5z"/>
<path d="M8145 2326 c-57 -25 -60 -37 -31 -118 81 -228 95 -388 44 -498 -30
-67 -69 -113 -166 -196 -78 -66 -182 -115 -276 -129 -65 -10 -57 -25 12 -25
162 0 284 69 424 240 86 106 128 250 136 467 4 133 3 143 -17 169 -13 17 -21
41 -21 65 0 38 -1 39 -37 39 -21 -1 -52 -7 -68 -14z"/>
<path d="M587 2312 c-14 -23 -16 -80 -6 -162 12 -102 23 -140 39 -140 14 0
110 197 110 224 -1 25 -17 49 -45 63 -27 15 -93 25 -98 15z"/>
<path d="M854 2265 c-17 -7 -41 -26 -53 -41 -21 -26 -23 -37 -19 -104 4 -60
11 -87 34 -130 31 -56 64 -78 64 -43 0 25 63 221 83 258 16 30 16 30 11 -35
-3 -36 -9 -86 -13 -111 -10 -60 -7 -112 6 -116 7 -3 31 24 54 59 23 35 53 76
66 91 13 16 23 41 23 57 0 71 -174 150 -256 115z"/>
<path d="M7619 2191 c-24 -27 -58 -66 -76 -86 -30 -35 -35 -37 -83 -33 -59 4
-59 5 6 -94 73 -109 163 -166 245 -155 49 6 126 61 151 107 23 41 19 101 -8
131 -22 24 -27 19 -15 -14 13 -33 -2 -88 -34 -124 l-24 -28 -1 62 c0 68 -12
87 -59 98 -55 12 -77 60 -60 133 5 25 8 46 6 48 -2 3 -24 -18 -48 -45z"/>
<path d="M8317 2153 c15 -70 14 -306 -1 -348 -6 -15 -5 -16 2 -5 5 8 17 49 27
90 24 96 23 210 -1 274 -29 75 -43 69 -27 -11z"/>
<path d="M1200 2192 c0 -4 27 -27 61 -52 33 -24 84 -69 112 -100 47 -50 55
-55 82 -49 17 4 24 7 16 8 -7 0 -59 46 -116 101 -77 75 -109 100 -129 100 -14
0 -26 -3 -26 -8z"/>
<path d="M7388 2190 l-57 -5 35 -37 c19 -21 40 -38 47 -38 22 0 57 30 57 49 0
29 -20 37 -82 31z"/>
<path d="M8121 1895 c0 -109 1 -110 15 -70 17 43 14 130 -5 162 -8 13 -10 -11
-10 -92z"/>
<path d="M3635 1950 c-3 -6 1 -7 9 -4 18 7 21 14 7 14 -6 0 -13 -4 -16 -10z"/>
<path d="M1454 1924 c-45 -22 -58 -52 -51 -121 5 -51 11 -62 46 -95 22 -21 44
-38 49 -38 10 0 22 71 22 131 0 28 5 41 19 49 28 14 76 12 118 -5 l37 -16 -24
27 c-69 75 -150 101 -216 68z"/>
<path d="M1945 1875 c-36 -23 -88 -41 -170 -60 -27 -7 -22 -10 50 -29 57 -15
81 -26 83 -38 4 -20 -40 -43 -99 -53 -48 -7 -119 -70 -159 -139 -50 -88 -38
-182 39 -299 24 -38 48 -93 61 -142 27 -97 56 -150 111 -199 78 -71 180 -102
299 -90 41 4 68 9 60 11 -8 3 -32 14 -53 24 -21 11 -55 22 -75 25 -81 13 -136
58 -190 153 -30 55 -36 76 -40 143 l-5 79 -53 53 c-66 66 -80 112 -63 194 9
48 62 172 72 172 2 0 2 -24 -1 -53 -4 -49 -2 -54 22 -65 15 -7 46 -12 70 -12
108 0 151 49 151 170 0 60 -5 85 -25 124 -14 27 -29 51 -35 53 -5 1 -28 -8
-50 -22z"/>
<path d="M7965 1802 c-44 -37 -106 -81 -139 -97 -58 -30 -59 -31 -76 -95 -10
-36 -22 -80 -28 -97 -14 -44 0 -43 95 3 126 60 241 200 251 304 3 38 1 50 -9
50 -8 0 -50 -31 -94 -68z"/>
<path d="M2391 1852 c-18 -6 -14 -24 45 -199 83 -250 195 -496 254 -563 31
-35 30 -34 -12 55 -37 78 -42 97 -41 153 1 83 32 143 100 197 28 22 54 46 57
54 14 31 -88 164 -166 217 -23 16 -45 32 -46 37 -12 26 -152 62 -191 49z"/>
<path d="M7506 1796 c-13 -9 -9 -14 27 -30 125 -55 131 -264 9 -350 -41 -29
-42 -31 -20 -37 13 -4 39 -7 59 -8 34 -1 37 2 67 63 62 125 66 272 8 310 -83
54 -128 69 -150 52z"/>
<path d="M8086 1714 c-45 -86 -106 -146 -207 -205 -99 -57 -109 -80 -13 -28
116 62 215 157 239 228 9 29 15 54 13 56 -2 2 -16 -21 -32 -51z"/>
<path d="M3504 1732 c-108 -33 -147 -56 -205 -119 -52 -56 -37 -69 23 -20 104
84 239 129 387 128 57 0 106 -3 109 -6 6 -6 -10 -20 -78 -67 l-45 -31 30 33
30 32 -79 -7 c-103 -9 -171 -27 -259 -69 -54 -26 -66 -34 -46 -35 14 -1 34 -7
44 -15 17 -12 16 -14 -18 -20 -20 -4 -39 -11 -42 -16 -3 -6 14 -47 39 -92 48
-90 76 -172 76 -225 0 -18 5 -33 10 -33 6 0 10 4 10 9 0 5 20 21 44 35 60 35
98 97 130 212 28 102 55 162 80 183 23 19 20 1 -8 -63 -13 -30 -34 -92 -46
-138 -32 -126 -85 -207 -162 -251 -51 -28 -48 -41 4 -20 68 27 156 91 175 126
9 17 19 68 23 112 4 50 15 99 29 129 18 39 22 60 17 97 -6 40 -4 47 11 45 10
0 23 11 30 26 8 15 28 32 48 39 71 26 38 37 -140 44 -123 5 -135 4 -221 -23z"/>
<path d="M7395 1721 c-17 -10 -38 -29 -46 -42 -22 -33 -41 -95 -36 -116 2 -11
8 -1 16 26 18 64 59 101 111 101 54 0 75 -12 89 -51 20 -57 14 -81 -31 -126
-46 -47 -62 -103 -29 -103 32 0 102 60 122 103 24 53 25 144 3 176 -35 50
-142 67 -199 32z"/>
<path d="M2062 1636 c-35 -97 -147 -149 -237 -112 -18 8 -36 12 -39 8 -14 -13
-4 -24 37 -42 36 -16 50 -18 83 -9 90 25 156 86 171 159 8 40 0 38 -15 -4z"/>
<path d="M7406 1619 c-33 -26 -63 -84 -72 -136 -4 -30 -1 -45 18 -73 33 -49
108 -96 176 -111 31 -7 63 -15 71 -19 20 -10 -137 -46 -289 -65 -148 -19 -261
-42 -274 -55 -6 -6 -21 -10 -36 -10 -22 -1 -23 -2 -7 -11 10 -6 49 -21 88 -34
l69 -24 184 43 c146 34 207 54 299 97 78 37 110 56 99 60 -10 4 -57 12 -105
18 -209 28 -293 105 -243 224 16 38 55 67 91 67 18 0 25 5 25 19 0 36 -54 42
-94 10z"/>
<path d="M3806 1494 c-3 -9 -6 -29 -6 -45 0 -37 -36 -172 -56 -211 -9 -17 -33
-49 -55 -73 l-39 -42 34 -6 c47 -8 109 -51 140 -98 14 -21 26 -43 26 -48 0 -5
-22 -8 -49 -8 -44 2 -54 -2 -85 -32 -19 -18 -51 -67 -72 -108 -54 -108 -103
-166 -166 -197 l-53 -25 36 -1 c30 0 43 8 78 45 41 44 121 165 121 184 0 5 24
35 54 66 53 56 54 57 102 53 47 -3 49 -2 46 21 -4 37 -74 123 -118 146 -22 10
-40 20 -42 21 -1 0 13 17 32 37 52 55 96 194 96 305 0 34 -14 43 -24 16z"/>
<path d="M6810 1340 c-49 -19 -95 -47 -130 -78 -30 -26 -66 -53 -80 -59 -23
-10 -20 -11 23 -11 27 0 61 -6 77 -12 31 -13 56 -7 160 36 72 30 342 104 407
111 24 3 40 9 37 14 -7 12 -131 12 -138 0 -4 -5 -39 -14 -79 -21 -114 -18
-204 -40 -317 -76 -58 -19 -112 -33 -120 -31 -28 5 104 69 235 112 l130 44
-65 0 c-49 0 -84 -7 -140 -29z"/>
<path d="M7225 1295 c-5 -2 -77 -18 -160 -35 -82 -18 -166 -41 -185 -51 -19
-11 -31 -19 -25 -19 5 0 1 -6 -10 -13 -16 -13 -14 -15 23 -20 30 -5 58 -1 109
17 94 34 179 52 329 72 71 9 130 17 132 19 2 2 -21 10 -51 19 -49 14 -135 20
-162 11z"/>
<path d="M7690 1222 c-19 -9 -37 -20 -40 -24 -10 -14 -185 -66 -310 -93 -176
-37 -166 -33 -129 -58 18 -12 42 -41 55 -64 l22 -42 184 122 c102 67 205 134
229 149 49 31 43 36 -11 10z"/>
<path d="M3160 1184 c-12 -27 -25 -59 -30 -71 -10 -25 -67 -64 -132 -91 -58
-23 -180 -23 -228 1 l-34 18 29 -31 c145 -151 366 -133 430 35 19 49 17 157
-3 177 -9 9 -17 0 -32 -38z"/>
<path d="M6438 1139 c-143 -11 -295 -43 -398 -84 -47 -19 -153 -56 -235 -83
-214 -70 -349 -146 -392 -221 -45 -77 -73 -109 -119 -136 -49 -29 -114 -83
-114 -95 0 -4 20 -10 45 -13 54 -8 121 -40 137 -67 19 -29 27 -25 48 24 10 25
34 55 57 72 21 15 83 71 138 124 101 96 184 158 251 186 61 25 61 10 0 -32
-137 -93 -177 -126 -234 -194 -36 -43 -82 -85 -111 -102 -28 -15 -58 -42 -66
-58 l-16 -30 52 0 c56 0 110 -21 137 -54 24 -29 58 -47 77 -40 8 3 24 23 36
43 11 21 37 46 57 57 52 28 89 69 122 134 38 76 68 110 146 165 45 33 72 45
91 43 24 -3 22 -5 -28 -38 -79 -51 -139 -115 -191 -206 -37 -64 -55 -85 -85
-99 -93 -43 -95 -68 -6 -83 46 -8 81 -21 109 -41 l42 -30 64 76 c107 129 199
193 326 228 86 24 94 14 51 -62 -29 -50 -34 -67 -34 -125 0 -36 4 -70 8 -74 4
-5 24 8 43 28 55 59 119 70 208 39 l54 -19 19 22 c11 11 42 53 71 91 45 62
106 127 168 178 12 10 57 33 101 51 44 18 106 52 137 76 57 42 58 43 54 84
-11 97 -56 142 -184 186 -183 64 -429 94 -636 79z"/>
<path d="M3534 1070 l-61 -20 -12 -53 c-6 -29 -29 -82 -50 -117 -22 -36 -38
-67 -35 -69 5 -5 63 40 108 85 l38 39 -17 -35 c-27 -55 -65 -89 -131 -120 -89
-40 -98 -63 -25 -62 53 1 86 19 151 86 30 31 58 56 61 56 12 0 -50 -106 -79
-135 -34 -35 -81 -55 -126 -55 -40 0 -87 16 -98 33 -5 9 -10 9 -19 0 -8 -8
-28 -10 -55 -6 -23 3 -63 2 -88 -1 -42 -7 -46 -10 -46 -34 1 -15 7 -38 15 -52
8 -14 14 -29 15 -34 0 -20 -145 4 -207 34 -86 43 -131 97 -177 217 -59 151
-55 142 -55 108 -1 -32 14 -96 29 -130 5 -11 16 -37 24 -58 22 -56 108 -141
169 -167 38 -17 79 -24 150 -28 53 -3 97 -1 97 4 0 5 -7 34 -15 64 -8 30 -15
57 -15 59 0 11 111 -10 150 -28 54 -25 136 -27 208 -6 68 21 132 85 178 181
35 72 83 133 132 166 20 14 22 19 13 37 -29 53 -131 72 -227 41z"/>
<path d="M3868 1033 c43 -41 52 -55 52 -84 0 -34 -1 -35 -69 -58 -80 -27 -96
-43 -175 -163 -35 -54 -74 -99 -101 -119 -25 -18 -44 -34 -42 -35 7 -7 239
-66 383 -98 394 -86 708 -124 1054 -127 l125 -1 16 69 c9 38 22 80 29 94 27
52 86 113 149 155 50 33 81 64 118 118 l51 73 -237 7 c-347 9 -602 43 -940
122 -57 13 -177 38 -265 54 -89 17 -170 33 -181 36 -12 4 2 -14 33 -43z"/>
<path d="M5182 437 c-40 -23 -54 -55 -59 -138 -4 -56 -2 -79 6 -79 16 0 175
96 191 115 9 11 8 22 -5 49 -9 19 -23 40 -30 46 -21 17 -78 21 -103 7z"/>
<path d="M5426 357 c-14 -14 -26 -36 -26 -49 1 -37 18 -150 25 -156 7 -7 58
22 105 60 19 15 40 28 46 28 21 0 47 38 40 62 -8 32 -68 70 -120 75 -38 5 -48
2 -70 -20z"/>
<path d="M6510 348 c-25 -13 -46 -31 -48 -41 -4 -21 28 -86 66 -137 15 -19 30
-44 33 -55 6 -19 7 -18 17 7 6 14 16 29 21 33 13 7 55 98 65 138 5 21 1 33
-18 52 -32 32 -77 33 -136 3z"/>
<path d="M5773 300 c-27 -11 -45 -43 -37 -67 16 -46 78 -173 85 -173 5 0 16
15 25 33 9 17 30 47 45 65 50 56 51 119 4 140 -30 14 -90 15 -122 2z"/>
</g>
</svg>
