<?xml version="1.0" encoding="UTF-8"?><svg id="uuid-e206cbe6-cddf-466d-a72f-a4a1184a6b46" xmlns="http://www.w3.org/2000/svg" viewBox="0 0 992.67 966.16"><path d="M496.03,966.16c-156.47-3.86-287.57-62.28-388.6-183.26-56.45-67.6-91.5-145.68-102.79-233.15-20.71-160.43,28.08-297.67,143.27-410.59C218.12,70.33,302.82,26.78,399.47,9.42c164.75-29.58,311.54,10.32,436.63,122.16,81.94,73.26,132.63,165.47,149.95,274.23,21.83,137.11-10.38,261.57-96.27,370.67-76.83,97.59-177.94,156.67-299.73,180.49-30.99,6.06-62.32,8.71-94.02,9.19ZM481.09,930.76c46.12-.16,77.31-2.86,108.06-9.23,107.55-22.29,197.87-74.39,267.36-159.65,85.34-104.7,117.03-224.82,93.48-357.86-19.04-107.59-72.98-196.15-158.02-264.32-114.37-91.68-245.18-122.55-388.64-95.29-108.25,20.56-198.53,74.33-268.16,159.94-83.49,102.65-115.04,220.44-94.16,351.17,14.13,88.47,53.44,165.37,115.35,229.98,92.36,96.4,206.57,142.91,324.73,145.26Z" stroke-width="0"/><path d="M497.04,55.43c154.45,5.14,279.26,66.92,368.35,195.19,38.46,55.37,60.53,117.42,68.35,184.48,20.37,174.74-70.31,337.43-220.37,420.12-53.64,29.56-110.93,48.1-171.87,53.21-145.47,12.22-270.29-33.07-371.36-139.02-59.65-62.53-96.69-137.46-108.48-223.25-20.38-148.32,26.1-273.76,135.32-375.33,63.44-58.99,139.45-94,224.75-108.72,24.83-4.28,49.89-6.31,75.31-6.68ZM396.73,163.65c.53,1.78.58,3.99,1.69,5.27,4.06,4.66,8.48,9,12.69,13.4,1.78-3.16-3.89-10.65-14.47-18.59-5.29-7.57-4.5-16.76-6.37-25.27-1.21,4.76-2.23,9.4-2.65,14.1-.45,5.01,3.75,9.81,9.1,11.09ZM375.02,156.2c-.49,8.35,8.63,17.45,18.47,18.17-6.95-5.44-15.4-9.09-18.49-18.13,1.52.9,3.19,1.63,4.54,2.75,3.27,2.71,6.39,5.61,9.58,8.43.31-.37.63-.74.94-1.1-1.77-2.39-3.77-4.63-5.26-7.18-4.25-7.27-9.32-14.28-8.41-23.41,2.41,3.56,4.83,7.12,7.24,10.68.67-.15,1.34-.3,2.01-.45,0-4.38.31-8.79-.15-13.12-.19-1.75-2.07-3.32-3.19-4.98-1.77,1.38-3.77,2.56-5.21,4.22-.71.81-.39,2.52-.53,3.82-3.9,3.96-4.7,14.67-1.54,20.31ZM406.27,672.73c-.59.78-1.47,1.47-1.72,2.35-4.28,14.59-10.79,27.83-22.41,38.09-1.59,1.4-2.99,3.02-4.61,4.38-1.48,1.24-3.14,2.26-4.72,3.38.49.42.97.83,1.46,1.25,17.31-11.99,30.43-26.81,31.99-49.47,2.33-13.57,1.13-26.56-6.13-38.61-2.01-3.35-4.38-5.99-10.14-6.3,9.3,7.5,13.4,16.44,14.67,26.72.74,6.05,1.1,12.14,1.63,18.22ZM819.08,346.08c.46.11,1.23.44,1.32.31,4.72-6.95,11.91-8.15,21.16-8.4-2.86-5-5.16-9.39-7.88-13.51-.76-1.15-2.93-2.23-4.12-1.94-.98.23-1.88,2.47-2.1,3.93-1.08,7.3-3.52,13.97-8.39,19.62-.67,1.84-1.25,3.71-2.02,5.51-3.65,8.52-5.79,17.2-3.22,25.71,1.18-7.1,2.47-14.85,3.77-22.6.48-2.88.98-5.75,1.48-8.63ZM422.06,370.29c.43,1.47,1.32,2.98,1.21,4.41-.44,5.42-1.59,10.81-1.74,16.23-.23,8.26,3.04,10.77,10.61,9.68v-25.12c-2.12-1.63-4.82-3.81-7.67-5.77-.43-.3-1.55.4-2.37.62-6.59-1.27-7.06-1.16-7.68,5.08-.44,4.44-.27,8.98.09,13.43.14,1.72,1.56,3.33,2.13,4.47,1.86-7.91,3.64-15.48,5.42-23.05ZM746.5,745.75c5.52-1.33,6.87-6.19,8.14-10.54,4.46-15.31,7.32-30.74.22-46.19-9.16-.89-11.07,1.52-8.26,10.04,1.65,5.01,2.52,10.28,4.28,15.25,4.01,11.33,1.71,21.65-4.27,31.54-9.14,9.03-18.72,17.34-32,19.76,11.25.57,20.44-3.59,27.52-12.11,1.86-2.24,2.93-5.14,4.37-7.74ZM763.77,660.7c-4.32-.47-8.63-.95-12.95-1.42-.13-.51-.27-1.02-.4-1.52,3.1-.97,6.15-2.46,9.32-2.81,9.6-1.06,13.49,6.75,18.79,12.53-2.54-7.3-6.67-13.43-13.17-17.71-5.28-3.47-13.5-2.78-17.03,1.15-3.91,4.35-4.6,15.17-.7,20.46.73-4.55,1.86-8.6,6.51-9.56,3.19-.65,6.48-.82,9.73-1.21,1.89,2.41,3.77,4.83,5.66,7.24-1.65.63-2.97.62-3.52-.03-3.37-4-5.61-2.26-7.43,1.35-1.33,2.64-2.72,5.32-3.57,8.13-.9,2.99-1.86,4.74-5.54,3.7-1.27-.36-3.03,1.02-4.57,1.6,17.42-1.36,23.07,3.5,29.25,25.99.78-2.88,1.64-5.57,2.21-8.32,1.76-8.5,2.9-17.05.17-25.55-2.11-6.56-5.71-11.9-12.77-14.03ZM390.08,311.45c-1.87-1.59-3.86-3.06-5.6-4.79-7.04-7.03-13.95-14.19-21.05-21.17-1.32-1.3-3.27-1.96-5-2.95-.04-.73-.12-1.99-.2-3.25-.45.02-.89.04-1.34.06-.6,5.87-.97,11.79-1.86,17.62-2.37,15.43,2.75,25.68,15.55,35.04,5.76,4.21,10.06,1.63,10.71-5.5.34-3.74,1.27-7.47,2.32-11.08.9-3.1,3.07-4.86,6.59-4.07-3.62,5.36-5.7,11-4.77,17.73,2.02,14.55,12.06,21.94,24.11,27.39,5.02,2.27,7.93-.33,8.79-6.37.86-6.04,1.41-12.24,3.29-17.97,1.34-4.09.4-5.66-3.09-7.11-8.12-3.37-16.2-6.85-24.23-10.43-1.56-.69-2.8-2.09-4.23-3.13ZM254.52,696.98c-4.43-14.6-12.97-29.09-18.96-31.72,2.25,3.98,4.45,7.61,6.39,11.37,3.62,7.03,7.1,14.13,10.63,21.2,1.44,4.05,2.69,8.17,4.36,12.12,6.53,15.41,13.43,30.67,19.73,46.17,3.09,7.6,4.05,15.7,2.08,23.91-1.3,5.41-5.8,9.63-9.5,9.31,1.78-3.48,3.93-6.99,5.43-10.76,2.49-6.29.32-12.49-1.57-18.42-2.32-7.3-5.34-14.37-8.06-21.54-1.64,14.15-11.5,24.28-30.5,23.64,2.82,2.72,4.54,5.5,6.99,6.5,4.2,1.72,4.02,3.98,3.14,7.69-2.11,8.92,5.74,22.57,13.46,24.18,10.92,2.27,21.56-2.78,25.34-13.25,1.53-4.24,1.18-9.57.39-14.18-3.16-18.3-10.71-35.17-18-52.07-3.52-8.16-7.55-16.1-11.35-24.14ZM399.96,587.21c-2.68-1.06-4.41-2.09-6.27-2.42-4.97-.87-5.88-3.21-4.56-8.05,2.01-7.36.63-14.19-5.93-19.19-4.78-3.64-6.31-3.41-9.51,1.57-1.15,1.79-2.26,3.6-4.05,6.47-1.43-4.12-2.82-7.25-3.59-10.52-2.53-10.73,5.07-23.82,15.35-24.79,6.82-.65,12.4-2.68,18.19-6.15,5.2-3.12,11.48-4.43,17.32-6.55-2.32-3.17-4.54-6.71-7.27-9.78-2.26-2.54-4.82-5.18-7.81-6.6-4.16-1.99-5.58-4.88-5.36-9.1.49-9.39,5.1-16.38,12.82-21.34,3.73-2.39,6.68-4.94,9.17-8.96,2.8-4.54,7.67-8.02,12.17-11.22,2.82-2,5.74-1.33,6.12,3.23.21,2.62,1.09,5.17,1.57,7.77.61,3.28,2,4.67,5.55,3.18,1.46-.61,3.73-.74,5.02,0,2.99,1.71,5.7,3.95,8.34,6.19,8.81,7.48,13.17,16.56,9.62,28.25-1.27,4.16-2.71,8.27-4.1,12.48.39-.03.58,0,.72-.06,7.22-3.42,16.85-2.91,20.45-12.42.05-.14,2.56.12,2.77.65,1.75,4.36,3.7,8.73,4.62,13.29.71,3.5,2.11,5.12,5.5,5.94,11.36,2.78,20.19,9.55,28.23,17.83,9.04,9.31,13.82,23.29,28.37,25.8-2.7,2.7-4.9,5.39-7.58,7.44-2.9,2.21-3.42,4.63-2.79,8.05,2.49,13.68.04,26.49-7.84,38.02-2.42,3.54-5.35,6.79-8.43,9.79-3.06,2.98-6.59,5.48-9.5,7.86,57.52-8.69,102.87-42.34,149.92-74.64-35.97,2.75-66.49-7.74-93.03-30.37,2.42-.39,4.79-.14,6.48,1.07,16.6,11.86,34.65,20.25,54.86,23.82,19.8,3.5,39,2.92,56.76-7.94,20.73-12.68,36.91-29.88,48.99-50.81,7.2-12.46,16.13-22.15,30.7-25.78,8.02-2,15.66-1.68,23.83,1.73-4.53-8.52-9.92-15.28-19.23-16.13-6.11-.56-12.41.77-18.6,1.45-2.81.31-5.56,1.11-8.84,1.8.34-1.74.29-2.22.48-2.36,11.72-8.3,29.94-9.91,40.97,1.04,5.41,5.37,9.94,12.03,13.44,18.84,4.22,8.2,6.94,17.18,10.3,25.79,7.35-3.81,19.24-16.94,20.82-23.17-1.83.11-3.66.13-5.47.35-9.35,1.17-13.86-2.62-12.65-11.97,1.16-8.94,3.53-17.72,5.63-27.87,4.99,2.95,9.51,5.63,15.06,8.91-7.28-16.26-14.07-31.42-20.81-46.49-1.22.4-1.64.41-1.82.62-.88.99-1.69,2.03-2.52,3.06-4.63,5.73-10.68,7.51-17.19,4.18-3.29-1.69-5.87-1.26-8.88.03-16.33,7-32.91,10.12-49.95,2.72.72,4.27,1.39,8.22,2.05,12.17-.64.21-1.27.42-1.91.63-1.4-2.49-2.9-4.92-4.17-7.47-3.31-6.65-7.15-12.8-14.24-16.1-25.27-11.76-52.02-14.54-79.13-10.61-11.06,1.6-21.97,6.61-32.1,11.74-21.24,10.78-38.79,26.76-56.04,42.92-17.8,16.66-39.6,22.48-63.08,22.58-15.25.06-28.85-6.2-40.85-15.42-7.71-5.93-12.65-13.6-11.95-23.93.31-4.65.65-9.3.67-13.96,0-1.15-1-3.11-1.87-3.31-6.07-1.42-12.19-3.16-18.36-3.48-10.76-.56-19.85-4.72-28.52-10.62-2.32-1.58-5.25-2.81-8.01-3.09-11.66-1.19-21.82-5.86-30.55-13.32-2.78-2.37-5.13-6.41-5.65-9.98-.84-5.74.01-11.73.14-17.24-5.23,1.39-11.25,3.28-17.39,4.55-14.68,3.03-26.56-4.75-28.35-19.05-.7-5.6-.88-11.26-1.37-17.85-1.7,1.25-4.21,2.16-5.13,3.91-6.26,11.87-12.56,23.75-18.11,35.96-7.62,16.77-14.6,33.83-21.84,50.78-.96,2.24-1.78,4.53-2.87,7.33,2.16-.25,3.79-.39,5.41-.62,14.09-1.96,28.21-3.82,42.26-6.03,2.47-.39,4.71-2.29,7.58-3.75-3.96-4.3-7.08-7.69-10.24-11.13-11.86,2.1-18.05-1.58-18.96-11.68,4.87,2.31,7.08-1.45,9.29-4.31,8.74-11.3,20.38-16.46,34.35-15.71,14.14.76,24.47,5.54,26.68,21.96.57,4.26.78,8.63.57,12.93-.98,20.18-25.61,30.23-38.12,24.37,4.75-1.08,9.28-1.96,13.74-3.14,12.2-3.22,20.01-13.22,20.34-25.82.26-10.16-7.41-19.99-16.35-20.75-7.19-.61-13.77,1.04-19.88,5.09-4.94,3.27-7.32,7.3-6.59,13.38.71,5.9,4.79,10.53,9.94,10.42,5.43-.12,10.23-5.34,10.31-11.04-2.04-.81-4.02-1.59-7.21-2.85,3.41-2.25,5.89-3.57,7.99-5.34,7.4-6.26,17.16,1.5,17.63,8.76.81,12.64-3.52,23.07-18.44,25.79-6.14,1.12-12.57.63-18.87.88-1.98.08-4.06-.19-5.92.32-4.75,1.3-9.34,3.96-14.11,4.26-15.55.96-30.06,5.21-43.91,12-2.42,1.19-4.32,3.43-6.46,5.19,1.13.95,1.63,1.05,2.03.88,2.31-.94,4.61-1.9,6.88-2.93,15.64-7.07,32-11.08,49.21-10.79,9.8.16,19.61.7,29.36,1.63,4.32.41,8.87,1.5,12.68,3.49,7.35,3.84,14.02,8.99,21.4,12.75,6.59,3.36,13.8,6.77,20.14-1.13.44-.55,3.05-.39,3.38.17,1.52,2.62,3.54,5.47,3.66,8.3.35,8.67-4.43,14.61-12.03,18.64.64,1.22,1.2,2.2,1.68,3.22,3.21,6.8,6.02,13.64,4.26,21.49-1.3,5.81-1.34,12.07-3.51,17.5-4.78,12-5.16,24.27-4.43,36.8.17,2.86.28,5.81-3.49,6.74-13.28,3.26-26.05,2.75-37.71-5.31-3.73-2.58-15.26-1.06-17.92,2.54-2.97,4.04-2.58,13.8.97,17.4,5.55,5.63,10.99,11.43,17.01,16.53,16.61,14.08,35.72,23.61,56.61,29.55,1.72.49,3.99.21,5.65-.52,3.42-1.51,6.6-3.58,10.24-5.62-2.9-4.22-5.73-8.47-8.69-12.62-3.09-4.35-1.86-8.96,3.16-10.71,3.07-1.07,6.29-1.74,10.53-2.88ZM492.77,658.49c2.1,2.77,3.69,4.94,5.35,7.05,15.67,19.82,35.91,33.5,59.21,42.41,19.99,7.65,40.96,9.95,62.23,7.08,9.33-1.26,18.52-3.64,27.71-5.79,1.64-.38,4.26-2.2,4.21-3.25-.37-8.06-1.18-16.1-2.07-24.12-.39-3.53-1.28-7-1.95-10.49.76.01,1.52.02,2.29.04,14.44,35.1,3.25,66.14-16.94,95.93,1.68.01,2.67-.41,3.71-.6,5.67-1.05,11.32-2.41,17.04-2.89,2.58-.22,5.36,2.14,7.95,1.96,5.55-.39,11.04-1.66,16.49-2.57-.38-11.78-3.78-24.11,8.56-30.57.24-2.79.33-4.6.58-6.38.16-1.11,1-2.26.8-3.25-1.54-7.63-2.66-15.47-8.87-21.17-1.39-1.28-2.6-2.75-3.89-4.13,5.44-1.17,10.3-2.21,15.08-3.24-1.06-13.15-2.08-25.21-2.97-37.27-.47-6.35-2.92-10.39-8.36-12-3.95-1.17-8.07-2.01-12.16-2.34-9.79-.79-11.21.34-14.22,9.77-.18.57-.56,1.08-1,1.88-11.78-3.34-21.74-9.37-28.44-19.29-6.49-9.61-11.69-20.1-17.59-30.42-29.5,18.96-62.55,31.02-98.54,35.91,1.34,1.94,2.4,3.49,3.47,5.04-.15.44-.3.87-.45,1.31-4.49-.84-8.97-1.68-14.13-2.64.7,4.59,1.34,8.74,2,13.02-1.6.33-2.8.57-5.1,1.04ZM269.51,692.43c3.84,9.28,7.54,18.29,11.35,27.26.24.57,1.28.94,2.01,1.13,15.87,3.98,31.58,8.64,48.09,9.51,11.67.62,23.22.84,34.36-3.34,2.13-.8,3.97-2.38,5.95-3.6l-.83-1c-12.01,5.94-18.19,7.37-26.96,5.9,19.89-4.21,34.82-14.54,45.77-30.52,11.06-16.14,14.84-33.57,8.19-52.5-3.18-9.07-6.36-11.23-15.69-11.41-1.27-.02-2.54-.25-4.52-.46.91-3.19,1.69-5.92,2.5-8.77-26.22-6.58-48.99-19.37-68.72-37.74-1.2-1.11-3.36-2.16-4.81-1.88-9.43,1.81-17.84-.91-25.7-5.56-7.8-4.61-14.11-10.6-15.3-20.34-.86-7.06,2.02-12.87,6.17-18.03-3.98-3.11-8.25-5.44-11.13-8.91-6.21-7.47-5.66-16.18-1.61-24.32,4.26-8.57,10.97-14.51,21.28-15.01,2.16-.1,4.32-.61,6.42-1.15,4.55-1.16,9.02-2.7,13.62-3.55,1.41-.26,3.15,1.24,4.73,1.93-.14.69-.28,1.38-.41,2.08-2.87,0-5.75.02-8.62,0-3.58-.02-5.7,1.86-4.76,5.25,1.11,4.02,2.17,9.59,5.08,11.2,3.76,2.09,8.64-.79,11.6-4.65,1.29-1.68,2.53-3.56,3.2-5.54,3.47-10.39-2.2-23.37-12.37-28.82-12.41-6.65-25.69-6.74-39.03-5.74-.89,2.82-1.54,5.2-2.38,7.51-5.16,14.17-10.36,28.15-11.54,43.56-2.05,26.73,7.06,48.45,26.53,66.28,3.29,3.01,7.12,5.51,10.07,8.82,10.89,12.21,18,26.74,23.98,41.75,3.67,9.22,6.4,18.76,5.98,29.07-.48,11.62-10.68,28.12-24.79,30.16-5.52.8-11.14.94-17.7,1.46ZM569.47,806.07c-13.43,11.61-26.32,22.76-39.21,33.91,6.92.59,12.36,2.07,16.55,7.28,1.92,2.38,4.19,2.07,5.79-1.06.95-1.85,2.23-4.18,3.94-4.89,5.87-2.42,9.25-6.92,11.56-12.4,3.03-7.2,9.48-10.93,15.27-15.25,1.45-1.09,4.08-.6,6.17-.83-.25,1.61-.69,2.04-1.2,2.35-8.32,4.93-14.98,11.26-19.34,20.17-1.5,3.06-5.3,4.99-8.04,7.46-1.15,1.04-2.25,2.12-3.25,3.07,5.92,2.07,11.4,3.98,17.19,6.01,8.4-10.03,17.17-20.84,31.93-23.48,1.76-.32,3.63-.04,5.45-.04-.53,1.94-.65,4.15-1.69,5.77-2.64,4.12-3.67,8.39-2.55,13.91,1.55-.87,2.69-1.83,3.99-2.17,4.07-1.05,8.95-3.71,12.15-2.41,7.7,3.13,11.18-.35,14.44-6.08.73-1.29,1.56-2.64,2.66-3.59,5.88-5.04,11.65-10.24,17.88-14.81,3.5-2.57,7.95-3.81,11.71-6.09,5.82-3.53,6.71-9.52,2.17-14.59-1.71-1.92-3.96-3.69-6.31-4.64-23.61-9.56-48.2-11.63-72.76-5.94-16.39,3.8-32.17,10.36-48.06,16.13-9.11,3.3-16.53,8.97-21.12,17.96-1.05,2.06-3.37,3.53-5.28,5.06-2.91,2.33-5.98,4.48-8.9,6.65,5.53,2.51,10.5,4.78,15.2,6.91,1.44-2.02,2.83-4.72,4.89-6.71,5.96-5.75,12.04-11.4,18.37-16.74,5.8-4.9,11.76-9.76,20.42-10.9ZM170.88,561.24c2.91-7.36,5.38-14.94,8.83-22.05,7.73-15.96,27.77-20.25,40.82-9.24,3.64,3.07,3.11,6.96,2.35,10.53-.42,1.95-2.99,3.43-4.59,5.12,0-13.37-8.83-20.9-20.08-17.63-7.94,2.3-20.02,20.44-19.25,28.64,1.76-3.61,3.17-6.97,4.98-10.09,4.08-7.05,7.93-14.44,16.64-16.94,5.29-1.52,7.67.84,6.59,6.79-1.08-.27-2.23-.37-3.2-.85-3.27-1.61-5.94-.58-7.98,2-12.43,15.66-17.21,34.16-19.25,53.53-.19,1.78,1.74,4.69,3.46,5.62,13.08,7.04,27.14,10.33,42.02,10.71,18.8.49,36.55-3.65,53.67-11.05,1.25-.54,2.44-1.2,4.3-2.12-17.94-13.99-32.57-29.49-37.59-52.88-5.81,10.54-14.75,13.29-24.44,14.34-7.1.76-13.07-2.51-14.44-7.6.93.4,1.66.66,2.35,1.01,9.8,5.06,18.75,2.37,27.15-3.29,5.35-3.6,6.12-7.82,3.54-13.75-3.23-7.43-9.75-11.25-16.44-14.59-11.11-5.54-25.86-2.68-34.14,6.39-9.57,10.5-12.58,23.79-15.28,37.4ZM379.3,830.47c39.81,10.76,80.32,18.43,122.19,17.09.33-.7.93-1.43.99-2.2.92-11.13,7.7-18.02,16.29-24.18,4.49-3.22,7.77-8.12,11.6-12.26-.28-.71-.56-1.43-.84-2.14-43.06,3.71-84.18-7.71-125.72-15.79-.1.5-.21,1-.31,1.5,2.71.85,5.43,1.7,9.04,2.84-2.1.41-3.27.65-4.68.92,1.81,5.09.32,7.7-4.84,8.65-5.77,1.06-9.36,5.24-12.5,9.94-3.46,5.18-7.24,10.14-11.2,15.64ZM247.34,231.75c.2-.51.41-1.01.61-1.52,1.95.38,3.92.69,5.85,1.17,4.83,1.18,9.07,2.41,13.28-2.62,13.88-16.62,31.18-29.38,49.27-41,9.78-6.28,20.1-11.71,30.05-17.75,1.7-1.03,4.09-3.48,3.82-4.81-1.73-8.72-3.31-17.37-.56-26.99-52.26,19.58-96.14,49.38-133.17,89.77,2.71,2.66,5.55,4.67,7.37,7.38,5.1,7.64,12.2,10.07,20.96,9.43,2.98-.22,8.26,5.19,9.09,8.67-6.48-1.98-13-3.98-19.52-5.97.14,1.24.54,1.69.98,1.74,6.6.8,11.01,4.09,13.73,10.37,1.64,3.79,11.4,3.64,13.99.21,4.24-5.61,8.45-11.24,12.64-16.82-2.91-.99-6.55-2.38-10.29-3.45-1.97-.56-4.1-.55-6.16-.79.04,1.81.12,3.62.09,5.43,0,.42-.39.84-1.31,2.69-3.9-5.5-7.31-10.31-10.72-15.12ZM170.8,654.84c.47.16.95.33,1.42.49.09,1.1.44,2.26.22,3.29-1.87,8.63-4.88,16.6-13.19,21.26-1.01.57-2.57,1.07-2.82,1.92-.81,2.72-1.13,5.59-1.64,8.4,1.93.2,3.87.66,5.78.54,2.3-.14,4.75-1.52,6.81-1.02,4.43,1.07,5.27-1.43,6.55-4.64,3.2-8.03,6.68-15.95,10.32-23.8.57-1.22,2.54-1.79,3.87-2.66.29.44.58.87.87,1.31-.19.61-.33,1.25-.58,1.84-3.5,8.25-7.23,16.4-10.44,24.76-1.86,4.85.35,8.37,5.34,9.95,4.07,1.29,6.81-.34,8.61-5.16.58-1.56.67-3.42,1.61-4.69,2.91-3.93,5.95-7.83,9.37-11.31.75-.77,3.29.22,5,.4-.86,1.25-1.43,3.05-2.62,3.67-5.21,2.72-7.14,7.81-9.09,12.65-.62,1.53.77,4.38,2.02,6.04,2.67,3.57,5.68,6.93,8.86,10.07,3.13,3.1,6.46,6.04,10.01,8.63,3.03,2.21,6.97,3.32,9.66,5.83,4.2,3.92,8.33,4.63,13.62,2.74,10.62-3.8,11.55-6.11,6.54-16.22-5.82-11.76-11.87-23.47-16.74-35.63-2.38-5.95-6.03-8.4-11.59-10.18-3.59-1.15-7.16-3.33-9.92-5.92-5.42-5.08-10.81-9.84-18.53-10.92-8.52-1.19-17.01-2.64-25.56-3.62-4.27-.49-9.05-.74-11.34,4.13-5.64,12.02-11.06,24.14-16.54,36.24-.18.39-.02.93-.02,1.99,2.48.33,4.91.53,7.29,1.01,3.58.72,5.89.16,6.54-4.14.24-1.6,2.03-3.52,3.6-4.26,6.7-3.16,10.32-8.55,12.61-15.31.92-2.71,2.71-5.13,4.1-7.69ZM520.23,226.86c3.34,0,7.02-.24,10.64.1,1.78.17,4.32.95,5.02,2.26,2.19,4.06,5.67,3.89,9.06,3.3,31.88-5.55,47.31-34.17,44.19-60.95-1.05-9.02-3.69-17.84-5.26-26.82-2.22-12.68-.81-24.59,8.92-34.18,13.11-12.92,28.83-13.91,45.41-9.18,5.94,1.69,11.47,4.79,17.19,7.25.39-.43.78-.85,1.17-1.28-3.21-3.04-6.01-6.74-9.7-8.99-11.03-6.75-23.15-8.15-35.98-6.89-27.57,2.69-42.42,17.88-47.71,43.11-2.56,12.23.06,24.15,3.39,35.85,3.02,10.6.16,19.86-6.21,28.07-8.22,10.6-20.24,13.85-32.88,15.43-1.9.24-3.8.53-4.57.63-.98,4.51-1.77,8.11-2.68,12.29ZM814.9,543.24c-.09-.29-.19-.57-.28-.86-1.35,1.49-3,2.81-4.01,4.51-11.18,18.81-22.07,37.74-18.73,61.01.5,3.48.72,7.01,1.45,10.43,2.6,12.1,11.58,22.69,8,36.69,3.34-1.5,6.03-2.71,7.4-3.33,1.01-3.5,1.19-6.28,2.54-8.28,1.82-2.71,1.38-4.54-.25-7.05-5.34-8.25-7.94-17.3-6.97-27.31,2.95,7.66,3.42,16.52,11.15,22.34,2.26-2.35,4.73-4.42,6.47-6.98.74-1.09.42-3.42-.21-4.83-1.24-2.78-3.72-5.14-4.48-8-2.41-9.12-4.29-18.38-6.27-27.61-.2-.91.35-1.98.55-2.98,2.36,3.19,3.56,6.56,5.07,9.77,1.25,2.65,2.98,4.06,5.56,1.04,3.92-4.58,8.67-7.59,14.93-7.99,1.5-.1,3.11-1.13,4.34-2.14,7.17-5.89,12.21-13.19,13.74-22.49,1.83-11.11,1.09-21.58-8.2-29.7-6.5-5.69-13.37-5.04-18.71,1.59-3.12,3.88-6.59,7.49-10.06,11.08-.66.69-2.01.72-3.05,1.05ZM327.4,816.12l.57-1.22c2.21.46,4.45.82,6.63,1.38,12.83,3.29,22.73-.98,28.78-12.66,4.57-8.83,6.47-18.25,3.99-27.98-2.44-9.6-7.26-18.21-16.07-23.14-13.84-7.74-28.78-4.23-38.74,8.13-8.23,10.21-5.24,22.45,6.52,26.72,7.8,2.83,18.77.13,22.67-5.69,1.91-2.84,2.9-5.71-.82-8.13-1.16-.75-2.05-1.91-3.07-2.88,1.9-.72,3.95-2.29,5.69-2,5.96,1.01,12.41,9.92,11.83,16.12-1.75,18.6-16.61,25.8-30.56,19.7-10.3-4.51-19.76-10.87-24.28-21.74-9.43-22.68-18.25-45.62-27.43-68.4-4.53-11.24-9.08-22.48-14.1-33.51-2.21-4.86-5.77-8.98-11.82-11.14.9,3.02,1.3,5.5,2.34,7.67,4.16,8.7,8.82,17.17,12.74,25.97,11.29,25.31,23.4,50.37,27.81,78.1.88,5.56,3.09,8.44,8.96,7.63.13-.02.33.49.67,1.02-1.28,1.14-2.59,2.31-4.19,3.73,1.3,2.98,2.61,5.99,3.91,8.98,1.6-3.67,2.93-6.72,4.83-11.1,2.43,5.45,4.07,9.94,6.37,14.07,3.12,5.61,6.22,11.39,10.33,16.25,3.28,3.89,8.2,5.98,14.43,3.91-2.89-3.53-5.44-6.65-7.99-9.76ZM387.55,197.16c19,5.13,23.38,17.37,17.96,34.65,10.58-4.19,19.34,3.29,27.27,3.11,3.54-3.66,6.03-6.24,8.51-8.81-16.56-.15-26.58-10.5-36.62-23.95,8.15-1.14,15.11-2.57,22.13-3.01,15.43-.96,22.63,1.63,29.54,16.35,1.33,2.83,2.99,4.26,5.92,5.13,6.38,1.9,12.09,5.01,14.49,11.77.49,1.37-.09,4.51-.64,4.63-4.23.88-8.58,1.48-12.89,1.5-.79,0-2.3-3.12-2.17-4.69.13-1.6,1.87-3.08,2.91-4.61,1.37.94,2.75,1.87,4.12,2.82,1.07.74,2.13,1.51,3.19,2.26-7.64-13.25-19.94-9.83-33.57.8,2.72-.33,4.62-.56,6.51-.79,1.91-.24,3.83-.47,5.71-.71,1.28,7.04,4.3,12.77,10.57,14.98,10.56,3.72,21.43,7.24,32.45,8.74,14,1.91,27.48-3.21,40.94-6.62,1.13-.29,2.51-2.59,2.47-3.92-.12-3.95-.88-7.88-1.39-11.82-.38-2.94-1.84-4.42-5.01-4.11-8.23.8-16.47,1.37-24.69,2.23-5.64.59-10.95,1.14-14.19-5.19-.97-1.9-3.21-3.32-5.13-4.56-15.17-9.76-30.27-19.65-45.67-29.04-9.28-5.65-19.82-6.15-30.31-4.82-7.48.94-14.91,2.56-22.39,7.69ZM292.19,574.48c-3.87-11,1.16-17.55,9.22-22.35,3.36-2,7.3-3.14,11.09-4.32,21.28-6.59,30.8-26.63,30.14-44.88-.55-15.12-6.16-27.97-15.7-39.47-22.11-26.62-63.29-35.38-96.22-14.81-1.95,1.22-4.09,2.18-2.42,5.38,1.6,3.07,3.52,1.61,5.45,1,18.4-5.89,37.35-6.85,56.13-3.79,22.08,3.59,43.39,20.62,41.43,51.29-1.27,19.83-10.59,34.1-30.89,37.4-7.3,1.18-15.23-2.18-18.23-8.13-3.46-6.87-2.21-11.86,4.5-17.96,3.18-2.89,2.94-5.37-.94-7.22-7.62-3.63-16.13,2.36-16.58,9.43-.46,7.3,1.93,12.92,8.74,17.06-2.39.7-4.56,1-6.08.15-6.18-3.44-9.65-12.62-6.77-20.16,1.48-3.89,4.56-7.93,8.04-10.08,3.39-2.09,8.22-1.84,13.78-2.87-2.35-1.03-3.95-2.27-5.62-2.38-8.59-.56-18.14,7.3-20.48,16.57-2.41,9.59,1.07,17.14,10.76,21.39,4.4,1.93,5.67,4.57,4.82,8.82-2.44,12.23,3.32,23.68,15.84,29.93ZM775.39,728.23c13.52-13.23,21.46-30.19,22.24-50.59.74-19.04-4.3-36.38-13.86-52.68-8.75-14.91-19.25-27.91-35.57-35.1-19.76-8.71-46.28-6.12-59.13,15.06-7.46,12.31-9.71,26.2,1.6,36.25,6.61,5.88,13.98,5.89,21.49,3.74,7.21-2.06,10.93-7.88,12.1-15.11,1.3-8.04-5.88-16.32-13.21-14.97-2.46.45-4.75,2.66-6.64,4.55-.34.34,1.48,3.16,2.61,4.6,2.17,2.77,1.28,4.6-1.55,5.86-3.35,1.49-5.32-.43-6.89-3.07-4.4-7.39-2.1-19.41,5.73-23.25,6.21-3.05,13.45-5.16,20.33-5.44,14.67-.61,27.12,5.71,37.39,15.95,20.69,20.62,30.77,45.26,25.08,74.48-2.69,13.82-7.93,27.14-11.73,39.72ZM167.42,480.3c-1.93-3.97-2.7-7.88-5.07-9.8-2.71-2.19-9.66,1.4-11.17,4.08h-14.85c6.9-5.86,12.76-10.41,20.94-9.98.78.04,1.75-.24,2.34-.72.9-.73,2.08-1.73,2.16-2.7.1-1.07-.62-2.91-1.47-3.27-8.26-3.54-16.4-6.84-25.74-2.77-20.61,8.99-23.08,25.05-22.54,42.83.27,9.04,2.13,18.05,3.42,27.05.87,6.08,2.02,12.11,3.05,18.16,2.37-2.11,3.82-4.13,4.82-6.35,5.04-11.21,12.32-18.56,25.94-17.68,2.77.18,6.52-3.16,8.53-5.85,3.21-4.28.28-10.54-4.98-11.42-3.19-.53-6.53-.4-9.79-.21-3.29.19-6.54.82-9.82,1.26,3.28-2.23,6.78-3.72,10.42-4.3,5.38-.87,10.92-.76,16.29-1.68,5.82-.99,8.43-5.76,6.97-12.11-3.75.72-7.5,1.45-11.52,2.22.57,2.18.93,3.51,1.28,4.84-4.71-5.02-10.09-4.89-15.94-2.23,6.1-10.03,16.13-7.64,26.71-9.35ZM194.16,455.04c.49.14.99.28,1.48.42,3.26-4.38,6.9-8.54,9.65-13.22,2.33-3.96,3.81-8.46,5.34-12.83,6.66-19.08,11.71-38.46,7.78-58.89-4.18-21.72-21.73-38.55-46.55-32.45-15.36,3.78-25.29,25.66-20.28,37.85,4.23,10.27,14.11,15.24,25.17,12.17,8.91-2.48,15.45-13.91,12.92-22.01-9.45,7.42-13.67,8.59-18.86,5.06,1.62-4.28,2.88-8.8,4.99-12.89,3.61-6.98,13.94-7.85,19-1.81,1.48,1.77,2.62,3.84,3.77,5.85,9.3,16.2,9.32,33.77,6.25,51.27-2.05,11.69-6.32,22.98-9.49,34.48-.63,2.27-.79,4.67-1.17,7.01ZM563.02,117.7c-58.32-10.34-116.07-10.89-172.62,7.31,2.82,7.06,5.32,13.32,7.65,19.18,28.9-12.42,59.71-15.16,90.25-18.3-.48-1.53-1.44-3.39-1.08-3.69,1.02-.86,2.56-1.44,3.92-1.5,20.02-.9,39.6,2.56,59.12,6.33,10.76,2.08,10.74,2.18,12.76-9.33ZM751.16,217.9c-16.76-6.69-34.11-9.9-52.07-8.65-5.38.38-10.86,1.51-15.95,3.28-7.18,2.49-13.94,6.16-21.06,8.87-30.81,11.71-38.31,47.63-17.9,68.97,8.59,8.98,18.99,13.55,31.47,10.87,17.43-3.74,28.37-19.95,25.96-37.67-1.95-14.35-14.62-21-26.01-13.67-5.69,3.66-7.6,12.37-4.1,18.68,2.97,5.36,9.6,6.75,16.19,3.33,2.19-1.14,4.3-2.43,6.45-3.65l1.26.7c-1.58,3.49-2.56,7.45-4.85,10.39-7.85,10.07-22.77,11.25-33.56,3.09-14.69-11.1-15.76-37.78-2.13-51.87,8.21-8.5,18.26-13.04,29.83-15.05,15.16-2.63,30.24-3.59,45.47-.82,6.97,1.26,14,2.13,21.01,3.18ZM345.94,241.31c8.42,25.42,50.81,69.19,73.24,73.1-2.25-6.3-4.5-13.03-7.04-19.66-3.59-9.39-2.68-20.8-13.23-27.55,2.29-1.51,4.04-2.42,5.47-3.68.92-.82,2.2-2.46,1.92-3.22-2.83-7.79-3.58-15.7-1.22-24.98-19.5,11.76-38.48,18.99-59.14,5.99ZM647.75,131.91c2.26-2.92,4.01-5.79,6.34-8.05,3.23-3.13,2.44-5.49-.36-8.29-10.38-10.36-23.2-13.18-37.15-11.81-13.71,1.34-27.65,11.19-28.81,25.17-.58,6.99,0,14.31,1.48,21.18,2.48,11.53,4.96,22.76,3.83,34.83-2.14,22.95-19.13,47.52-45.92,51.22-8.35,1.15-8.61,2.13-6.54,11.35,6.42-.85,13.06-1.15,19.41-2.67,32.13-7.7,47.09-36.95,42.04-67.47-1.86-11.24-5.34-22.2-7.91-33.33-3.11-13.44,4.49-27.51,16.84-30.34,14.16-3.24,28.71.96,35.42,15.87.32.71.78,1.37,1.34,2.34ZM114.75,462.79c4.9-3.27,9.2-7.18,14.25-9.3,10.51-4.42,21.45-7.79,32.13-11.82,2.46-.93,5.49-2.3,6.64-4.37,2.39-4.28,3.69-9.16,5.14-13-3.12-2.16-5.91-4.06-8.66-6.02-2.75-1.96-5.51-5.75-8.17-5.67-8.59.25-14.18-4.18-18.94-10.12-3.43-4.28-6.05-9.2-8.94-13.69-5.95,11.49-13.65,58.75-13.45,74ZM163.38,599.2c.44-.02.87-.05,1.31-.07-.4-4.27-1.15-8.53-1.13-12.8.08-12.95.79-25.84,4.63-38.36.42-1.38.59-3.03.26-4.42-1.4-5.95-.05-11.37,2.74-16.56,1.48-2.77,3.53-5.29,4.62-8.19,3.61-9.59,9.55-17.43,17.09-24.2,9.8-8.8,20.02-16.62,34.32-15.57,1.49.11,3.03-.55,4.11-.77-4.32-14.12-8.44-27.59-12.54-40.97-2.78,2.6-6.01,5.66-9.3,8.67-9.85,9-14.88,21.02-20.29,32.75-.71,1.54-.36,3.99.34,5.67,1.59,3.8.03,6.55-2.16,10.14-1.09-2.76-1.88-4.78-2.67-6.78-3.51,9.12-6.72,17.78-10.19,26.34-3.91,9.64-8.09,19.17-12.05,28.8-1.13,2.75-1.92,5.65-2.86,8.47-.24-.08-.48-.16-.72-.25-.17-1.84-.34-3.68-.51-5.52-.43-.01-.85-.02-1.28-.04-1.04,10.51-1.63,21.08-3.25,31.5-1.72,11.03,1.41,21.43,3.07,32,2.73,17.38,6.23,27.34,9.47,29.34,0-.58.1-1.07-.01-1.5-5.32-19.44-8.23-39.21-7.56-59.39.13-3.93,1.33-7.82,2.04-11.74.29.12.59.23.88.35.55,11.03,1.1,22.06,1.66,33.1ZM396.17,114.98c-3.16-1.1-5.25-2.29-7.44-2.5-7.89-.76-15.35,1.39-21.69,5.8-12.79,8.9-15.49,22.15-13.71,36.59.73,5.94,2.84,11.71,4.41,17.95-1.36.12-2.31.14-3.24.29-5.72.9-6.25,2.17-2.92,6.93,1.05,1.49,1.95,3.11,3.17,4.44,5.52,6,11.83,10.7,20.39,11.08,9.95.44,17.18-6.98,26.54-9.17-5.38-3.91-10.67-7.3-16.27-10.07-13.7-6.8-18.18-18.71-16.3-33.05,1.27-9.67,4.96-17.98,13.84-22.92,3.69-2.05,7.86-3.24,13.19-5.37ZM497.91,195.45c3.71,1.99,6.55,3.71,9.54,5.09,11.43,5.29,21.66,2.4,29.2-7.83,7.06-9.58,10.4-20.06,9.79-32.08-.97-18.93-18.05-35.74-36.69-35.51,9.88,5,18.18,20.22,16.76,30.72-2.01,14.82-9.76,24.61-21.64,27.27.33,2.55,1.72,5.71.7,7.51-1.17,2.08-4.47,2.95-7.67,4.83ZM473.06,562.21c2.42,1.47,5.9,3.1,8.81,5.45,6.62,5.35,6.94,9.1,2.28,16.25-1.26,1.93-2.39,4.03-3.17,6.19-2.28,6.4.04,13.7,6.06,18.7,4.47,3.72,9.44,4.4,12.94,2.52,1.59-5.14,2.64-8.79,3.86-12.39,2-5.9,5.07-11.63,5.98-17.68,1.65-11.03-2.81-20.35-11.11-27.98,4.09-.63,6.02.08,8.58,3.57,9.3,12.68,8.95,26.14,3.1,40.03-1.13,2.69-2.02,5.48-3.02,8.22.52.34,1.05.68,1.57,1.02,2.05-1.74,5.31-3.13,5.93-5.28,3.05-10.46,3.52-21.14.74-31.84-3.74-14.39-16.05-20.26-26.29-27.42-5.62,7.13-10.97,13.92-16.26,20.63ZM349.4,217.57c1.18,7.13,6.39,12.46,13.84,12.28,6.21-.15,12.38-1.66,18.58-2.49,1.8-.24,3.64-.24,5.46-.35.11.76.22,1.52.33,2.28-6.6,1.88-13.1,4.55-19.83,5.45-11.71,1.57-21.21-5.84-22.85-16.69-.71-4.71.16-5.4,4.74-5.14,4.18.23,8.4-.19,12.59-.32-.04-.4-.08-.8-.11-1.19-6.7-2.26-13.41-4.52-20.6-6.95-.9,1.98-2.32,4.1-2.86,6.43-2.53,10.94,8.92,30.98,23.35,32.29,11.68,1.07,21.77-2.12,32.12-6.55,13.02-5.57,11.22-24.65,2.76-30.47-8.05-5.54-17.25-7.84-26.9-7.13-5.42.4-10.74,2.2-16.11,3.37.06.72.12,1.45.17,2.17,6.18.15,12.35.37,18.53.43,7.71.08,14.36,2.82,19.56,8.37,1.7,1.82,2.13,4.83,3.14,7.3-.44.27-.88.54-1.31.81-6.62-6.48-13.93-8.66-23.17-6.16-6.73,1.82-14.02,1.55-21.44,2.25ZM474.23,580.76c-3.81,0-6.79-.09-9.76.02-9.76.36-15.69,5.83-19.44,14.42-4.09,9.37-3.71,19.02-2,28.72,1.51,8.52,3.03,9.87,11.61,10.59,5.79.49,11.6.59,17.4.97,4.08.27,6.11-.96,5.75-5.59-.41-5.21-.09-10.48-.09-17.02-8.26-8.35-9.99-19.24-3.47-32.12ZM236.1,459.48c-.15.65-.3,1.3-.45,1.95,1.85.29,3.79,1.09,5.54.78,14.72-2.62,29.39-4.58,44.35-1.57,15.92,3.2,26.87,9.57,30.42,24.64,2.94,12.49-1.04,25.23-16.5,28.52-2.09.44-4.22.92-6.19,1.74-5.54,2.31-8.22,6.75-7.24,11.63.9,4.5,5.7,8.25,11.08,8.39,8.91.23,16.2-3.47,21.78-10.16,13.68-16.39,11.67-51.95-14.09-62.85-8.56-3.62-17.98-5.5-27.18-7.23-14.18-2.66-27.92.54-41.51,4.17ZM516.51,311.39c.31-.41.63-.82.94-1.23-2.25-2.08-4.32-4.42-6.8-6.19-6.7-4.79-14.56-3.64-21.67-2.38-10.39,1.85-20.49,5.36-30.68,8.26-7.65,2.18-15.3,3.23-22.87-.03-5.15-2.22-8.06-8.51-5.96-12.18,7.5,9.83,17.77,12.79,28.25,7.77-1.74-.48-3.12-1.25-4.43-1.15-5.67.45-7.54-3.35-8.85-7.68-1.1-3.64-2.41-7.34-2.72-11.09-.64-7.72-5.11-11.98-11.83-14.4-4.2-1.51-8.48-2.96-12.85-3.75-3.3-.6-6.8-.12-9.62-.12,2.63,7.65,4.96,14.5,7.34,21.33,2.28,6.53,4.39,13.14,7,19.55,2.56,6.27,8.5,8.79,14.33,10.48,8.01,2.33,15.56-.38,23-3.53,8.21-3.48,16.46-7.07,25.01-9.47,11.43-3.22,23.03-4.53,32.4,5.8ZM234.2,662.93c-1.09-1.86-1.45-2.77-2.06-3.46-10.37-11.81-19.34-24.62-25.62-39.03-3.48-7.97-7.67-14.09-17.12-14.66-.94-.06-1.86-.66-2.77-1.06-3.54-1.54-7.08-3.1-10.62-4.66-.54.22-1.07.44-1.61.66,2.19,13.39,4.37,26.79,6.6,40.4,9.39-.71,17.32,1.63,24.1,7.38,2.66,2.26,5.04,4.85,7.73,7.05,5.93,4.85,13.05,6.19,21.38,7.38ZM422.3,513c3.67-.15,5.21-2.93,4.59-7.3-.3-2.13-.87-4.23-1.23-6.36-.78-4.75-.16-9,4.48-11.67,5.23-3.01,11.46-2.7,15.43.73,8.75,7.58,7.62,19.15-2.7,26.67-5.1,3.72-10.91,6.66-15.41,10.98-14.13,13.54-21.26,29.85-17.82,49.84,1.1,6.43,1.9,12.92,2.83,19.38,1.36-.78,1.62-1.41,1.6-2.04-.05-2.5-.14-4.99-.3-7.48-1.46-22.34,6.17-41.02,22.68-56.06,4.42-4.02,9.31-7.54,13.61-11.68,7.39-7.11,11.22-15.62,8.57-26.09-2.78-10.97-10.68-16.05-21.23-17.42-5.91-.77-11.91,0-15.87,5.11-4.3,5.56-5.37,11.91-3.06,18.82,1.51,4.51,2.44,9.22,3.81,14.56ZM230.31,269.47c-1.54-.18-2.47-.3-3.41-.39-3.54-.32-7.32-.8-8.37,3.87-.99,4.39,2.46,9.35,6.74,10.21,6.39,1.29,12.85-1.53,15.34-6.7,2.76-5.72,1.23-13.92-3.3-17.94-6.72-5.97-14.48-4.92-22.12-2.92-15.13,3.95-21.65,15.79-23.91,29.61-3.69,22.59,3.6,42.14,19.87,58.34-1.54-6.24-3.52-12.35-5.3-18.52-3.87-13.37-5.77-26.97-3.31-40.82,1.49-8.39,4.67-16.02,13.03-20.06,5.66-2.74,12.73-.49,14.74,5.31ZM847.18,380.26c5.83,4.5,9.01,1.65,11.89-2.33.68-.94,1.62-1.68,2.33-2.6,7.06-9.14,4.7-20.18-5.46-25.7-9.21-5-20.15-3.6-27.01,3.46-7.97,8.2-11.6,25.16-6.72,33.28,3.22,5.35,7.14,10.27,11.25,16.11-2.16-8.4-4.65-15.79-5.86-23.38-1.18-7.38,5.34-17.64,11.05-18.48-.32,1.39-.51,2.65-.92,3.84-1.6,4.62-1.17,9.08.72,13.53,2.38,5.59,7.29,11.53-1.95,15.2.99,2.41,1.71,4.18,2.48,6.08,4.13-5.49,10.45-9.77,8.2-18.99ZM426.82,567.66c5.4-11.17,12.86-20.56,23.27-27.34,3.27-2.13,6.94-4.25,10.67-4.88,2.58-.44,6.47.91,8.21,2.86,2.5,2.8-.88,5.04-2.89,6.87-1.32,1.2-3.09,1.89-4.62,2.88-6.11,3.97-12.98,7.17-18.15,12.13-14.04,13.45-18.27,30.79-16.9,49.64.37,5.05,2.19,9.99,3.34,14.98.49-.09.99-.17,1.48-.26-2.07-11.72-.49-23.18,2.35-34.49,2.42-9.64,7.03-18.08,16.04-23.02,4.92-2.7,10.48-4.19,15.64-6.47,6.15-2.72,11.09-6.84,14.62-13.85-3.1,2.38-5.41,4.15-7.73,5.92-.33-.27-.67-.55-1-.82,6.45-8.64,12.16-17.48,8.73-28.72-12.59,2.51-25.09,4.02-34.6,13.22-9.03,8.74-17.21,17.96-18.47,31.35ZM148.54,588.77c.91-23.46,2.42-45.99,9.27-66.77-5.94.7-12.29,1.27-18.55,2.29-1.95.32-4.59,1.43-5.37,2.97-2.28,4.48-5.64,9.52-5.22,14.03.97,10.45,4.16,20.67,5.96,31.07,1.36,7.9,6.31,12.36,13.92,16.41ZM783.55,611.85c-.63-1.29-1.1-2.7-1.92-3.85-5.48-7.71-11.1-15.31-16.54-23.04-6.35-9.02-7.49-18.58-2.48-28.6,2.07-4.15,5.69-5.78,9.93-4.36,1.7.57,2.75,3.08,4.09,4.71-1.37,1.01-2.86,1.89-4.09,3.05-1.62,1.51-4.57,3.77-4.22,4.76.77,2.2,2.96,4.28,5.09,5.49,1.24.71,3.63-.01,5.26-.68,8.63-3.54,13.1-15,9.05-22.85-4.85-9.4-16.84-12.75-25.52-8-9.59,5.24-13.12,14.29-15.81,23.64-1.69,5.89-.11,12.22,5.09,16.24,12.34,9.54,22.85,20.7,32.07,33.48ZM456.82,263.5c-.4,0-.79,0-1.19,0-.37,2.42-1.12,4.86-1.05,7.27.32,11.8,4.47,18.51,17.24,19.05,10.78.45,21.52,1.72,32.3,2.24,14.44.7,24.02,7.13,29.29,21.09,2.24,5.93,6.85,11.53,11.69,15.81,11.61,10.29,22.46,6.28,30.66-5.36.73-1.04.72-2.59,1.35-5.04-9.08,6.31-16.76,4.97-23.7-1.08-4.61-4.02-9.23-8.24-12.87-13.1-6.75-9.03-15.96-13.53-26.5-15.32-11.23-1.91-22.63-2.8-33.95-4.18-3.78-.46-7.6-.77-11.29-1.64-7.74-1.83-12.06-7.67-11.97-15.61.02-1.38,0-2.75,0-4.13ZM291.97,254.48c-8.65,10.41-16.92,19.56-20.53,31.93-2.74,9.37.87,16.87,7.91,22.04,14.06,10.31,38.08-1.13,40.06-19.43-3.54-.4-7.77.29-10.48-1.42-5.17-3.26-5.84-.27-7.47,3.38-3.65,8.14-11.05,8.97-16.38,2.15-1.61-2.05-2.04-3.82.41-5.43,2.61-1.71,5.26-3.35,8.39-5.35-4.36-2.59-7.46-.56-10.08,2.11-3.7,3.78-2.31,7.36,5.54,16.22-1.63.58-3.55,1.14-4.85.48-6.06-3.09-8.11-13.54-3.57-18.81,4.79-5.57,10-10.77,14.98-16.09-1.24-3.73-2.4-7.19-3.92-11.78ZM144.53,360.53c-.58-.03-1.16-.06-1.75-.1-3.83,4.78-7.66,9.55-10.93,13.63,2.81,4.36,4.96,7.71,7.59,11.79,1.44-.22,3.97-.6,7.52-1.14-.59,2.11-.53,4.52-1.66,5.38-2.46,1.89-1.74,3.63-.76,5.64,2.15,4.4,5.57,6.5,10.58,7.07,3.19.36,6.47,1.93,9.21,3.72,4.38,2.87,8.33,6.38,12.5,9.65,6.59-10.56,12.79-20.5,19.79-31.72-12.55,5.28-23.2,12.13-36.08,6.54-13.31-5.78-15.51-17.59-16.03-30.48ZM482.9,577.42c-3.73-9.66-15.62-11.57-22.47-10.06-14.01,3.09-19.77,13.72-22.83,26.21-3.28,13.43-2.43,27,.37,40.46,3.07,14.76,5.27,29.55-1.37,43.95-5.3,11.49-10.66,23.17-21.3,30.81-11.8,8.48-24.72,14.99-38.73,19.14-.91.27-1.74.8-2.6,1.21,2.7.69,5.14.58,7.48.04,17.18-3.99,31.69-12.67,43.58-25.58,13.09-14.21,19.77-31.13,18.11-50.44-1.1-12.79-4.34-25.38-6.05-38.14-1.75-13.01,2.47-24.29,12.22-33.08,7.04-6.35,15.81-5.41,24.42-4.55,2.82.28,5.7.04,9.16.04ZM450.43,284.72l1.1-.1c-.39-7.54-.97-15.08-1.1-22.63-.07-4.33,3.04-6.11,7.05-4.49,1.23.5,2.44,1.08,3.6,1.74,16.93,9.67,35.64,11.21,54.44,10.92,5.07-.08,10.59-3.32,14.94-6.45,2.71-1.95,3.61-6.4,5.04-9.17-.72.2-2.59.75-4.48,1.23-18.9,4.69-37.73,8.98-57.22,2.47-8.99-3-17.35-6.54-23.55-14.03-1.36-1.65-3.07-3.01-4.32-4.21,1.51,15.09,3,29.91,4.49,44.73ZM708.07,318.7c6.13,6.64,5.37,13.83,1.47,20.2-4.64,7.59-10.04,14.87-16.06,21.41-5.96,6.47-13.09,11.85-20.11,18.06,23.33-8.4,40.6-21.64,43.86-47.82,1.61,17.69-6.71,30.21-21.32,40.06,1.27,0,1.65.12,1.88-.02,13.37-8.39,22.68-19.88,25.52-35.62,1.72-9.53-1.69-18.15-7.93-25.37-5.2-6.02-16.92-4.87-19.36,1.53,6.34-3.06,10.82-2.67,13.35,1.31,1.35,2.14,2.55,4.43-1.29,6.25ZM761.69,252.23c.15.32.29.63.44.95,1.1-.27,2.19-.55,3.29-.83,10.96-2.78,21.45,1.61,28.17,10.86,10.16,13.97,8.77,29.68,4.64,44.3-4.16,14.73-13.47,27.44-24.73,38.39-4.6,4.47-8.16,10.02-12.19,15.08-.42-.42-.84-.83-1.27-1.25,10.79-7.48,20.24-16.25,28.44-26.68,20.51-26.06,21.07-56.96,4.38-83.95-4.7-7.6-12.44-13.41-18.84-14.42,3.27,4.54,1.94,7.58-2.5,10.21-3.5,2.08-6.57,4.87-9.84,7.35ZM283.29,728.16c6.3,16.8,12.4,33.04,18.5,49.29.73-.03,1.47-.06,2.2-.09-2.31-12.09,3.54-19.96,12.72-25.63-5.01-13.58-20.74-25.22-33.42-23.56ZM740.42,291.76c.17,1.32.27,2.67.36,2.67,4.58-.02,2.88,3.62,2.37,5.23-.35,1.1-3.23,2.15-4.84,1.98-5.81-.64-7.52-4.36-4.04-8.95,1.61-2.12,4.06-4.05,6.54-4.97,3.65-1.35,7.66-1.72,10.92-2.38.69-1.72,1.09-3.22,1.87-4.49,1-1.63,2.32-3.08,4.22-5.55,11.52,2.07,11.89,14.64,17.88,23.24,0-1.24.08-1.88-.01-2.51-3.14-21.91-23.51-29.04-40.07-24.81-6.93,1.77-12.26,9.34-12.1,16.03.19,8.06,5.82,15.74,13.12,17.42,3.09.71,6.94,1.13,7.92-2.89.85-3.52,2.32-8.07-4.13-10.02ZM719.32,307.2c7.97,13.27,9.19,27.05,3.4,41.13-5.68,13.84-15.95,23.8-28.72,31.57,3.84-.45,7.44-1.28,11-2.28,8.43-2.37,15.52-7.17,20.85-13.84,4.66-5.83,8.49-12.44,11.87-19.12,1.98-3.9,2.36-8.6,3.64-13.62-2.5.37-3.64.4-4.69.73-3.93,1.23-6-.04-6.38-4.25-.18-1.96-.76-3.89-1.32-5.79-1.7-5.77-3.93-11.22-9.65-14.52ZM897.58,310.59c-.52-.31-1.04-.61-1.55-.92-.63.96-1.13,2.06-1.92,2.87-4.73,4.87-10.26,7.81-17.33,7.14-6.26-.6-12.54-1.08-18.81-1.53-6.54-.47-13.1-.87-19,3.14,1.58,3.03,2.93,5.63,4.36,8.37,4.52-5.69,11.2-5.7,17.63-5.91,11.25-.38,22.9,1.64,32.96-6.48-.82,2.52-1.75,4.96-3.53,6.19-6.24,4.31-13.28,5.3-20.86,4.77-5.54-.39-11.23.21-16.76,1.04-4.54.68-6.81,4.11-7.61,8.81,11.56-6.13,11.54-5.89,26.67-4.34,3.33.34,7.1-1.29,10.32-2.78,3.25-1.5,6.06-3.95,9.68-6.4-.35,1.39-.38,1.9-.6,2.3-4.22,7.78-14.71,12.14-23.91,9.96-7.78-1.84-11.58-1.44-16.1,1.62,10.41,2.38,21.3,7.61,31.51.56,9.64-6.66,13.35-17.18,14.85-28.41ZM740.18,166.87c-10.78,3.07-15.43,13.16-9.26,21.44,6.28,8.43,13.9,15.85,20.97,23.69.11.12.58-.1,1.14-.21-2.29-6.76-4.7-13.52-2.14-20.79,3.84,9.75,3.91,21.11,13.13,28.77.45-1.08,1.03-1.75.9-2.25-2.3-9.25-4.64-18.49-7.15-27.69-.25-.92-1.54-1.77-2.54-2.22-4.27-1.95-8.61-3.74-13.64-5.9v8.67c-4.96-7.55-4.6-15.24-1.41-23.5ZM691.63,123.81c-.18-.81-.17-1.33-.33-1.4-10.28-4.19-25.32-4.7-35.01,4.62-3.92,3.78-5.07,11.09-2.39,14.58,4.24,5.5,12.11,7.35,17.3,3.88,3.6-2.41,5.3-6.25,3.13-9.89-1.28-2.14-4.88-3.85-7.52-3.98-3.3-.16-3.41,2.72-2.4,5.53.23.64-.83,2.45-1.44,2.52-1.1.13-2.77-.29-3.38-1.1-2.88-3.86,1.5-12.7,6.32-13.36,5.55-.76,8.87,2.29,11.21,6.56,2.61,4.76,3.13,9.76-.05,14.63-.8,1.23-1.57,2.47-2.36,3.71,11.64-3.6,10.72-17.45,20.58-22.74-3.19-.43-5.75-.77-8.34-1.12-1.3.83-2.91,1.84-5.07,3.21.68-7.16,1.91-7.78,9.76-5.66ZM373.99,779.02c7.23-2.77,9.85-8.25,11.58-14.29,2.04-7.16,2.51-14.98,8.49-20.74-2.2,1.71-4.39,3.42-6.59,5.13-.22-.28-.44-.56-.66-.84,1.67-1.93,3.35-3.85,5.73-6.6-4.11.44-7.28.35-10.17,1.19-5.6,1.63-11.05,3.78-16.92,5.84,1.56,1.42,2.54,2.32,3.91,3.57-2.54.97-4.47,1.71-6.34,2.43,3.72,8.25,7.3,16.19,10.97,24.33ZM266.68,809.01c.14-.44.28-.89.43-1.33-3.1-.8-6.21-1.58-9.31-2.42-9.12-2.48-16.95-14.36-16.76-25.88.05-3.09-.71-5.21-3.18-7.2-5.95-4.8-8.41-10.94-5.93-18.56,1.14-3.51,2.22-7.04,3.7-11.74-2.41,1.39-4.2,1.94-5.31,3.14-9.28,9.97-9.56,15.24-3.31,27.75,2.77,5.55,5.41,11.26,7.28,17.16,4.23,13.38,18.76,22.17,32.39,19.08ZM748.13,359.89c4.52-4.29,9.02-8.69,13.66-12.93,17.8-16.28,26.76-36.38,25.95-60.56-.31-9.29-3.03-17.74-11.86-22.63-1.22-.68-3.23.07-4.87.16.2,1.69,0,3.57.71,5.01.59,1.19,2.12,2.18,3.45,2.71,8.2,3.22,10.86,9.5,10.57,17.81-.6,17-8.3,30.69-19.65,42.66-7.6,8.01-15.45,15.77-23.04,23.49,1.32,1.11,3.05,2.56,5.09,4.29ZM230.55,426.25c19.1-5.98,17.18-19.97,9.38-30.46-4.97,1.85-9.99,3.6-14.89,5.63-1.32.55-2.99,1.81-3.28,3.03-2.09,8.81-3.86,17.69-5.96,27.59,3.62-5.22,6.73-9.72,10.23-14.77,1.7,3.38,3.12,6.21,4.52,8.98ZM847.68,453.13c.62-.42,1.25-.84,1.87-1.25-.62-1.26-1.09-2.63-1.89-3.76-7.71-10.85-11.72-23.39-16.08-35.72-3-8.5-7.55-15.58-14-21.97-4.98-4.92-14.38-5.36-19.8-.03-2.11,2.07-3.31,6.39-2.85,9.36.38,2.45,3.44,5.25,5.99,6.42,3.9,1.8,7.79-1.6,6.99-5.36-1.11-5.2,1.32-7.61,6.28-5.54,2.34.98,4.7,3.28,5.83,5.58,6.14,12.51,11.65,25.33,17.9,37.78,2.59,5.17,6.48,9.68,9.78,14.49ZM130.19,581.43c2.35,6.82,4.56,14.25,7.47,21.39,4.51,11.05,9.38,21.96,14.44,32.77.72,1.54,3.36,2.17,5.11,3.23.24-1.69.92-3.46.64-5.06-2.01-11.38-4.15-22.74-6.43-34.06-.36-1.78-1.17-3.96-2.51-4.97-6.13-4.64-12.53-8.94-18.73-13.29ZM805.25,350.22c-2.76,0-4.7-.03-6.64,0-9.3.19-10.93,1.98-11.5,11.4-.34,5.54-1.32,11.05-1.89,16.58-.09.85.18,1.97.72,2.62,3.72,4.52,11.26,5.09,16.28,1.41-4.95-5.57-7.57-12.09-8.31-19.38,2.71,4.22,4.56,8.88,7.21,13.03,2.14,3.34,4.35,7.75,10.98,5.15-1.34-2.96-2.45-5.76-3.84-8.42-3.68-7.06-8.66-13.85-3.01-22.4ZM211.88,234.98c-6.81,5.24-13.47,10.38-20.2,15.56-2.33-3.65-4.29-4.24-6.46-.83-3.86,6.09-7.77,12.14-11.78,18.39,3.16,2.9,6.86,6.3,10.65,9.77,5.34-18.26,15.14-31.54,37.84-28.76-3.73-5.24-7.23-10.17-10.04-14.13ZM363.24,460.36c-9.04.62-16.43-3.18-23.74-7.53-7.42-4.41-14.95-8.65-22.63-12.59-8.06-4.14-26.66-7.01-34.65-5.73,1.95.5,3.69.91,5.42,1.4,14.83,4.19,29.44,8.97,40.09,20.96,4.56,5.14,9.32,8.65,16.59,8.67,6.84.02,13.27-.51,18.92-5.18ZM514.4,324.74c3.17-1.79,4.31-3.71,2.69-6.65-3.51-6.36-9.03-10.1-16.16-9.7-8.02.45-16.25,1.21-23.89,3.48-10.06,3-19.71,7.47-29.36,11.69-1.21.53-1.91,3.41-1.88,5.18.02.99,2.25,2.92,3.12,2.73,4.44-.96,9.54-1.43,12.97-3.99,12.38-9.23,25.82-13.82,41.3-12.83,7.88.5,10.03,1.94,11.21,10.08ZM878.99,536.31c.36-.4.72-.8,1.08-1.2-4.93-4.54-9.6-9.4-14.84-13.55-11.37-9-19.09-8.82-30.32.07,20.05,1.12,25.7,14.27,26.19,31.82,1.09-2.89,1.8-5.58,2.49-8.28,3.01-11.75,4.53-12.63,15.39-8.86ZM309.89,256.37c-.47-.59-.93-1.17-1.4-1.76,4.12-3.8,8.24-7.61,12.37-11.41-.3-.53-.6-1.07-.89-1.6-6.41,2.1-12.82,4.19-19.74,6.45,1.06,9.84,3.24,19.38,10.52,26.44,8.15-11.98,15.97-23.48,24.71-36.33-9.15,6.51-17.36,12.36-25.57,18.21ZM708.34,697.87c-5.97,5.07-7.72,14.56-18.17,13.35,4.45,5.88,8.65,11.5,13.98,15.69,5.32,4.18,11.42,2.54,16.49-1.57,3.82-3.1,6.57-6.86,4.33-13.29-1.18,5.22-1.87,9.82-7.44,12.18.81-6.76,1.03-12.56-6.82-14.17-.96-.2-2.12-1.92-2.26-3.05-.33-2.74-.11-5.54-.11-9.14ZM379.14,805.84c.39.43.78.85,1.17,1.28-1.86,3.11-3.64,6.26-5.6,9.3-3.75,5.83-10.22,8.06-16.9,6.27-3.78-1.01-7.69-1.53-11.53-2.27,1.72,1.42,3.59,1.96,5.44,2.57,13.28,4.37,25.87-.03,31.33-13.7,1.75-4.37,5.69-7.87,8.71-11.71.79-1.01,1.86-1.79,2.72-2.6-3.12-7.76-16.95-6.13-21.82-2.22-.48.38-.79,1.07-1,1.68-1.52,4.58-3,9.17-4.67,14.29,2.93-2.81,5.62-5.38,9.13-8.74-2.08,10.37-10.12,13.11-17.14,16.87l1.36,2.03c3.41-1.61,7.11-2.8,10.16-4.93,3.21-2.24,5.79-5.38,8.65-8.12ZM319.57,303.24c-4.88,6.1-13.36,8.56-13.81,17.35-.38,7.44-1.83,15.16,3.31,21.64,6.42-9.61,12.7-19.02,19.17-28.72-2.51-2.97-5.37-6.35-8.67-10.26ZM148.32,354.3c7.58-17.04,21.54-23.66,40.11-22.57-10.4-2.87-20.18-8-32.34-3.96,2.57.49,3.93.74,5.29,1-12.15,2.73-17.51,14.48-27.82,19.44,5,2.06,9.65,3.98,14.77,6.09ZM347.68,320.52c-4.9-1.32-8.66-2.52-12.51-3.28-1.56-.31-4.17-.31-4.84.61-6.35,8.8-12.39,17.83-18.56,26.85,6.05,3.6,9.51,2.95,13.29-1.22,2.45-2.7,5.18-5.14,7.74-7.74,4.86-4.94,9.69-9.91,14.88-15.22ZM576.82,403.31c.25.36.5.73.76,1.09,5.12-2.94,10.51-5.5,15.32-8.88,14.46-10.17,30-15.18,47.79-11.69,6.06,1.19,7.32-.23,7.5-8.13-3.92-.32-8.22-1.73-11.89-.77-13.11,3.41-25.96,7.8-39,11.49-9.45,2.67-15.58,8.96-20.47,16.89ZM214.18,294.36c-6.29-1.01-9.14,1.47-8.29,8.1.63,4.94.91,9.97,2.1,14.77,1.4,5.63,3.61,11.05,5.61,16.97,8.15-6.38,10.11-14.82,6.68-22.86-2.3-5.41-4.01-11.07-6.11-16.98ZM407.97,236.67c-3.34,9.28,2.43,17.02,1.75,24.61,8.76,2.21,17.1,4.32,25.49,6.43-6.17-12.13-13.25-23.87-27.24-31.05ZM476.21,171.93c1,7.57,3.6,16.23,2.94,24.63-1.24,15.86,9.04,23.66,19.26,31.99.44.36,1.28.48,1.88.37,3.74-.66,7.6-1.02,11.17-2.23,5.36-1.83,7.58-5.64,6.92-9.97-4.42,2.17-8.77,4.87-13.5,6.46-4.21,1.42-8.67.85-11.49-3.42-4.39-6.64-7.09-13.81-6.78-21.97.41-10.7-5.88-18.59-10.38-25.86ZM446.45,284.46c-.65-7.06-1.14-12.8-1.72-18.53-.74-7.24-1.47-14.48-2.37-21.7-.45-3.6-2.46-5.24-6.4-5.43-4.57-.23-9.1-1.4-13.63-2.29-2.12-.41-4.18-1.11-7.31-1.97q18.78,19.69,31.43,49.92ZM445.8,368.71c2.13-1.99,3.95-2.96,4.62-4.45,3.52-7.78,5.4-15.99,4.65-24.56-.1-1.12-2.05-2.7-3.37-2.98-4.05-.85-8.21-1.16-12.52-1.71-.79,11.26.84,22.29,6.62,33.7ZM340.48,472.59c10.41,26.6,11.41,51.6-12.99,73.67,8.87,1.66,16.22,3.04,23.57,4.41.22-.44.44-.87.67-1.31-7.97-5.45-8.05-13.21-6.35-21.23,1.26-5.98,3.03-11.86,4.75-17.73,4.25-14.54.36-26.98-9.65-37.82ZM842.47,611.44c2.07-7.56-3.22-18.65-9.44-20.99-.84-.32-1.96-.5-2.77-.22-6.47,2.23-12.44,14.46-10.49,21.29,1.28,4.49,4.07,5.45,7.67,2.38,2.23-1.9,4.09-4.25,6.25-6.54,2.86,1.33,5.63,2.62,8.78,4.09ZM441.24,367.7c-1.21-3.06-2.95-5.86-3.38-8.85-1.07-7.35-1.78-14.78-2.17-22.2-.26-4.96-4.36-4.43-7.13-5.39-.93-.32-3.62,1.64-4.02,3-4.51,15.41-1.04,27.89,16.7,33.44ZM848.71,458.11c-8.29-4.11-16.27-8.07-24.17-11.99-.33,9.26,4.48,16.39,11.73,22.31-4.28-1.95-8.57-3.91-12.74-5.81-3.63,5.39-3.56,9.34-.23,10.83,6.26,2.81,18.67-1.34,22.22-7.52-3.86-3.11-7.74-6.24-11.62-9.38q11.71,3.84,14.82,1.55ZM653.97,149.12l.54-.77c-2.64-2.1-5.09-4.54-7.96-6.24-12.86-7.6-27.03-11.53-41.56-14.33-3.05-.59-6.3-.96-6.78,3.35-.45,4.1,2.98,4.08,5.65,4.66,6.77,1.48,13.64,2.61,20.32,4.43,10,2.72,19.87,5.92,29.8,8.91ZM704.51,201.17c.37-.42.73-.83,1.1-1.25-4.98-3.77-9.96-7.55-15.89-12.04,2.65.13,4.73-.39,5.93.41,4.37,2.92,9.36,5.6,12.37,9.67,3.18,4.3,6.35,6.62,11.08,6.38-4.69-7.51-9.35-15.29-14.39-22.81-.99-1.49-3.39-2.75-5.21-2.84-7.63-.4-16.55,8.43-16.88,16.47,8.82-3.64,15.2,1.74,21.89,6.01ZM697.81,167.55c.44.37.76.83,1.19.99,5.28,1.96,12.01,2.42,10.81,10.84-.02.13.13.3.22.44,3.56,5.97,6.68,12.27,10.78,17.84,5.7,7.77,13.56,11.67,20.98,11.61-.06-.15-.08-.37-.19-.45-.54-.38-1.07-.82-1.68-1.05-14.48-5.57-22.54-16.86-27.72-30.83-2.55-6.89-2-12.96,2.24-16.46.1,10.1,2.71,19.19,8.75,27.13-2.92-10.79-9.94-20.84-4.71-33.25-9.36,1.42-16.71,4.58-20.69,13.18ZM236.9,731.36c2,.5,3.86.73,5.51,1.45,1.49.65,2.75,1.83,4.11,2.78-1.21,1.23-2.37,2.51-3.65,3.67-.46.42-1.52.37-1.75.82-1.24,2.42-2.64,4.86-3.2,7.45-.15.72,2.22,2.49,3.69,2.97,7.77,2.52,14.09-1.65,15.52-9.72,1.13-6.38-1.48-11.45-4.54-16.38-5.29,2.35-10.22,4.54-15.69,6.97ZM395.44,598.63c4.18,4.41,8.4,8.42,12.08,12.87,4.39,5.31,9.54,10.48,12.12,16.65,2.93,7.02,3.84,15.02,4.8,22.7,1.09,8.77,3.58,17.79-1.55,26.28-.44.74-.34,1.8-.5,2.72.47.06.93.12,1.4.18,6.29-13.9,7.93-28.7,3.82-43.39-4.81-17.18-16.82-29.68-30.55-40.84-.74,1.29-1.3,2.27-1.62,2.83ZM349.17,308.97c.49-3.96.78-7.39,1.36-10.77.95-5.55,2.18-11.06,3.11-16.61.36-2.18,1.1-4.97.15-6.57-2.25-3.75-5.42-6.94-9.2-11.55-1.18,14.89-2.28,28.73-3.43,43.11,2.45.73,5.06,1.51,8.01,2.39ZM852.31,410.7c.82,14.74,1.57,28.24,2.33,41.73.22.08.44.15.67.23,2.51-7.44,5.02-14.87,7.53-22.31.34.1.69.2,1.03.31,1.26,9.89,2.52,19.79,3.77,29.68.65-.04,1.29-.09,1.94-.13-.62-12.67-1.24-25.34-1.92-39.35-3.24,2.73-5.21,4.39-7.46,6.29-2.77-5.78-5.24-10.92-7.89-16.44ZM378.53,347.04c-4.21.73-6.66,3.51-7.26,7.62-1.14,7.86-2.09,15.76-2.75,23.67-.08,1.01,1.84,2.88,3.12,3.18,4.58,1.1,6.26-2.7,7.44-5.8,2.52-6.66,4.6-13.52,6.43-20.41.37-1.38-1.15-3.27-1.8-4.92-.65,0-1.3-.02-1.96-.03-1.84,5.55-3.68,11.1-5.52,16.65-.53-.13-1.06-.26-1.59-.39,1.29-6.46,2.57-12.91,3.9-19.57ZM800.87,691.83c3.23-4.99,6.47-9.97,9.68-14.97,2.96-4.6,5.94-9.18,8.81-13.83,1.53-2.48,1.57-4.76-1.61-6.06-6.28-2.58-15.79,3.2-16.07,9.87-.35,8.33-.56,16.66-.82,24.99ZM696.75,385.19c18.67-2.82,36.65-7.8,53.75-15.58.03-.72.06-1.44.09-2.16-4.48-1-8.96-2-13.86-3.1.89-1.31,1.45-2.13,2-2.95l-.97-1.3c-1.15.72-2.5,1.25-3.43,2.2-7.61,7.75-15.6,14.97-26.01,18.82-3.83,1.42-7.71,2.72-11.57,4.07ZM412.03,173.81c.67-.24,1.33-.48,2-.72,0-7.18.37-14.39-.1-21.53-.5-7.45-3.26-8.59-9.6-4.62-1.39.87-2.68,1.92-3.97,2.95-3.32,2.65-3.74,6.19-1.36,9.23,4.02,5.15,8.66,9.82,13.04,14.69ZM488.78,197.96c2.61,6.36,4.76,12.72,7.81,18.62,2.07,4,6.21,3.84,10.11,2.36,3.71-1.4,5.01-4.56,4.42-7.98-1.17-6.73-14.31-14.76-22.34-13ZM869.7,480.71c-7.35,10.11-14.48,19.91-21.08,28.98,4.93,1.77,10.54,3.78,17.01,6.1,1.38-11.88,2.74-23.62,4.07-35.07ZM740.67,726.64c-5.68,4.31-10.44,9.48-16.34,12.02-8.59,3.69-7.42,11.26-10.36,18.01,16.18-5.07,28.07-18.47,26.7-30.03ZM256.85,296.6c-2.45-10.91-4.95-22.02-7.44-33.13-.56.07-1.12.14-1.68.21-.82,7.39-1.59,14.77-6.92,20.64-.67.74-.57,2.66-.16,3.77.61,1.65,2.02,2.99,2.76,4.61,2.98,6.5,5.7,7.47,13.43,3.9ZM173.48,322.17c-1.16-5.25-2.36-9.84-3.15-14.51-.79-4.67-1.16-9.41-1.71-14.12-.65-.03-1.31-.06-1.96-.09-4.49,9.61-8.98,19.23-13.42,28.72h20.24ZM807.32,270.76c-1.11-16.34-8.06-29.91-19.64-41.32-8.11-7.99-12.91-8.82-23.74-3.73,25.61,4.58,35.33,23.98,43.38,45.05ZM420.22,473.6c-1.15-.47-1.58-.79-2.02-.8-8.37-.31-19.59,13.47-17.45,21.49.22.82,1.06,1.65,1.83,2.13,3.67,2.29,7.41,4.46,11.48,6.89,0-4.23-.32-8.5.09-12.69.41-4.14,1.36-8.26,2.51-12.27.46-1.6,2.1-2.86,3.56-4.75ZM698.57,684.38c2.38-.88,3.55-1.21,4.63-1.72,7.79-3.69,19.08-3.9,25.06,5.79,3.53,5.72,6.93,11.83,8.7,18.23,1.82,6.59-.55,13.21-4.54,19.1,2.31-1.78,4.79-3.54,6-5.93,2.12-4.19,5.19-8.95,4.75-13.14-.9-8.47-5.07-16.1-11.86-21.78-8.97-7.5-24.11-8.15-32.73-.55ZM711.59,776.49l-.32-2.49c-2.01.12-4.08,0-6.03.41-3.89.8-7.67,2.15-11.57,2.8-9.44,1.58-18.94,2.84-28.39,4.37-2.2.36-4.3,1.31-7.77,2.4,5.61,3.38,9.93,4.94,14.62,3.66,13.19-3.59,26.31-7.42,39.46-11.15ZM409.31,397.27c-3.9-10.28-7.87-19.63-1.74-29.28-4.63-2.43-8.79-4.62-13.08-6.87-1.66,13.6,5.38,31.89,14.82,36.15ZM396.91,532.53c3.83,4.05,7.64,8.07,11.28,11.93,4.45-6.74,9.01-13.64,13.53-20.49-10.85-1.85-20.14,1.37-24.81,8.57ZM351.64,475.58c-.37.29-.73.59-1.1.88,1.63,4.3,3.62,8.51,4.8,12.94,2.43,9.14-.19,18-2.19,26.87-1.79,7.95-5.54,15.76-2.48,22.86,1.87-5.48,4.29-11.91,6.26-18.49,3.69-12.36,6.5-24.87.68-37.35-1.34-2.88-3.95-5.16-5.98-7.72ZM348.05,778.81c-4.79,16.14-16.92,17.85-30.17,17.55,8.18,8.5,18.71,7.89,25.19,3.27,6.16-4.39,8.4-12.93,4.98-20.82ZM496.7,641.31c-.06.05.21-.14.46-.35,6.57-5.76,10.39-13.92,17.8-19.14,11.93-8.4,17.76-20.19,16.23-36.49-.17,1.87-.21,2.36-.25,2.84-1.59,15.75-7.81,28.27-23.44,34.61-3.96,1.61-7.73,3.91-11.22,6.41-2.4,1.72-4.17,4.33-5.75,6.05,2.48,2.43,4.2,4.12,6.18,6.07ZM234.59,326.63c-.73-.14-1.45-.27-2.18-.41-.5,4.37-2.07,8.97-1.2,13.05.88,4.12-.86,5.74-3.33,7.66-2.48,1.92-5.09,3.69-7.54,5.66-.8.65-1.94,1.89-1.77,2.58,1.39,5.67,3.05,11.28,4.62,16.91.52-.03,1.03-.06,1.55-.08,6.08-14.54,9.1-29.71,9.84-45.36ZM438.59,219.71c6.37.01,9.17-2.11,9.29-7.06.09-3.69-6.77-8.49-12.06-8.43-4.72.05-7.27,2.72-7.2,7.53.07,4.94,3.84,7.95,9.96,7.96ZM846.66,635.08c-6.15-2.6-12.03-5.54-18.24-7.42-1.76-.53-5.02,1.55-6.57,3.33-1.96,2.24-1,4.71,1.51,6.77,6.53,5.34,14.56,7.02,23.3-2.67ZM856.39,625.75c-2.16-1.71-3.87-3.31-5.81-4.55-4.14-2.63-8.29-5.27-12.67-7.44-1.08-.53-3.59.28-4.51,1.31-2.4,2.68-1.33,8.44,1.55,10.66,5.48,4.21,14.83,4.37,21.44.02ZM766.24,237.12c.14-.43.29-.85.43-1.28-.94-.48-1.85-1.04-2.83-1.43-15.48-6.11-31.52-9.59-48.15-10.47-17.95-.95-35.19,1.2-50.24,12-3.82,2.74-6.85,6.59-10.24,9.93.36.33.71.66,1.07,1,1.07-1.22,2.12-2.47,3.22-3.66,5.62-6.1,12.36-11.08,20.29-12.94,22.37-5.25,44.84-6.73,67.13,1.06,6.34,2.22,12.88,3.87,19.33,5.78ZM362.2,342.04c-3.86,10.68-4.28,20.99-2.62,31.42.19,1.2,1.71,2.19,2.62,3.28.89-1.05,2.38-2,2.58-3.17,1.6-9.19,2.95-18.43,4.46-28.16-1.65-.79-4.16-2-7.04-3.38ZM170.01,695.02c-5.85-3.63-13.78-.13-14.45,6.01-.77,7.04,1.02,13.31,5.73,19.39,2.99-8.72,5.81-16.93,8.72-25.39ZM254.07,464.61c-4.22.58-9.02,1.24-14.37,1.97,2.85,5.01,4.54,8.81,1.6,14.99-2.67,5.62-.57,13.52-.57,20.42.28-.05.55-.1.83-.16,4.13-12.3,8.27-24.6,12.51-37.22ZM404.34,554.52c-3.34-13.91-12.62-21.83-22.58-19.56-6.52,1.48-11.45,8.31-10.3,14.88.88-1.1,1.63-1.92,2.23-2.82,6.12-9.15,17.61-8.5,22.72,1.13,1.58,2.98,2.69,7.08,7.94,6.38ZM678.54,153.97s1.32,1,2.18.73c4.4-1.39,8.74-3.02,13.01-4.78,1.13-.47,2.38-1.54,2.81-2.63,2.41-6.05,4.58-12.2,6.86-18.36-5.62.8-9.67,4.72-13.19,9.78-3.62,5.21-7.7,10.1-11.68,15.27ZM378.52,549.3c2.86,1.92,5.34,3.25,7.39,5.06,2.1,1.85,4.28,3.92,5.5,6.35,1.28,2.56,1.58,5.65,2.07,8.54.41,2.45.49,4.95.71,7.43.6-.06,1.2-.12,1.8-.18v-9.97c.35-.05.71-.09,1.06-.14,2.67,7.49,5.35,14.98,8.02,22.48-.2-6.08-1.48-11.84-2.57-17.63-1.27-6.72-3.76-12.8-9.08-17.31-4.07-3.44-8.31-6.84-14.89-4.63ZM326.95,346.24c8.59-2.13,16-3.71,23.24-5.85,3.57-1.05,4.85-5.69,2.92-8.92-1.46-2.44-3.15-4.73-4.19-6.26-7.25,6.93-14.13,13.52-21.97,21.02ZM547.35,442.23c2.38-2.19,4.18-3.85,5.98-5.52,6.21-5.73,12.51-11.37,18.55-17.27,1.01-.98.92-3.08,1.34-4.66-1.67.07-3.36-.02-4.99.27-.69.12-1.3.99-1.86,1.6-6.19,6.73-12.52,13.27-21.73,15.88-.24.07-.38.5-.74,1.03,1.06,2.68,2.18,5.5,3.45,8.68ZM304.11,412.76c10.74,1.4,18.44-2.77,23.9-10.57,1.94-2.78,2.17-7.09,2.17-10.7,0-1.24-3.09-2.48-4.77-3.72-.8,1.33-2.21,2.62-2.29,3.99-.37,5.7-2.74,10.36-7.14,13.73-3.45,2.64-7.43,4.6-11.86,7.28ZM843.02,646.59c-5.42,0-10.19-.95-14.32.25-4.56,1.33-6.43.67-6.93-5.3-3.08,2.04-6.69,3.14-7.69,5.39-1.57,3.54,3.07,3.76,4.93,5.52.12.11.26.2.41.29,9.02,5.54,16.22,4.01,23.6-6.16ZM413.08,678.85c-6.42,11.88-12.2,22.57-17.98,33.25.41.31.82.61,1.23.92,6.98-8.54,14.15-16.94,20.78-25.75,1.55-2.06,1.24-5.52,1.78-8.34-2.1,0-4.19-.01-6.29,0-.32,0-.65.1.48-.09ZM336.15,303.76c.54-.22,1.09-.44,1.63-.66-2.61-6.59-5.25-13.16-7.8-19.77-.52-1.34-1.08-2.87-.94-4.24,1.15-10.88,8.78-18.75,13.26-28.1.57-1.18,1.3-2.29,1.95-3.43-.76-.41-1.53-.82-2.29-1.24-4.89,8.77-9.87,17.5-14.61,26.36-1.06,1.98-2.14,4.63-1.66,6.59.97,3.99-1.44,3.45-3.49,3.24-2.24-.24-4.42-.98-6.62-1.51-.14.52-.29,1.03-.43,1.55,2.7.95,5.34,2.35,8.12,2.73,3.88.54,5.57,2.65,6.89,6.08,1.64,4.27,3.96,8.28,5.99,12.4ZM459.1,453.28c15.01,15.12,58.89,9.86,76.7-3.64-25.19,9.17-50.49,15.81-76.7,3.64ZM724.55,676.95c6.95,4.17,12.03,7.22,16.44,9.87v-23.88c-6.02,5.13-11.25,9.59-16.44,14ZM420.6,672.17c.12-.11.52-.31.56-.56,3.34-20.24-3.34-36.95-18.55-50.18-6.79-5.91-13.38-3.99-18.02,4.67,1.79-.75,3.07-1.32,4.38-1.83,7.04-2.69,14.67-1.24,18.82,4.7,3.54,5.07,6.98,10.66,8.54,16.53,2.32,8.68,2.94,17.82,4.27,26.66ZM136.21,715.94c-.56-8.27-1.24-16.01-1.53-23.76-.12-3.12-.9-4.79-4.28-4.33-3.1.43-6.18.95-5.5,5.24,1.36,8.6,3.67,16.77,11.31,22.85ZM483.73,636.33c.54.17,1.08.34,1.61.51,3.52-10.98,14.73-13.74,22.65-20.77-6.44,0-12.02-.23-17.56.14-1.63.11-4.24,1.74-4.5,3.05-1.12,5.61-1.53,11.36-2.2,17.06ZM133.48,678.73c.6.24,1.19.49,1.79.73,4.32-11.17,8.64-22.33,13.26-34.24-17.27,6.57-13.12,21.33-15.04,33.51ZM542.72,566.07c-7.76-9.12-15.44-18.14-23.12-27.17-2.21,8.56,3.83,13.14,7.32,18.79,4.9,7.92,11.22,10.73,15.8,8.37ZM390.51,357.26c-.93.07-1.87.14-2.8.21-1.39,6.68-2.86,13.34-4.09,20.05-.21,1.15.26,2.77,1,3.7,4.05,5.07,9.3,8.51,15.31,10.92-9.63-9.73-10.47-22.01-9.41-34.87ZM174.97,313.28c.22-.1.44-.2.66-.29,2.59-7.77,5.35-15.5,7.63-23.36.53-1.82.11-5.23-1.07-5.94-2.61-1.58-6-3.63-8.07-1.52.38,3.43.78,5.5.8,7.58.08,7.85.03,15.69.03,23.54ZM529.39,863.82c4.7-2.95,8.73-5.24,12.45-7.95,1.06-.77,1.88-2.84,1.68-4.14-.42-2.84-7.65-5.75-11.56-4.94-4.03.84-4.62,3.9-4.25,7.25.34,3.07,1.03,6.09,1.68,9.78ZM483.56,509.91c-6,1.92-12.29,3.33-18.03,5.94-5.93,2.7-11.59,6.22-16.89,10.06-4.94,3.58-9.24,8.03-13.82,12.1,6.14-3.86,11.31-9.1,17.54-12.24,6.66-3.36,14.28-4.89,21.57-6.91,5.09-1.41,8.37-4.27,9.63-8.95ZM757.77,536.25c-.36-.44-.73-.88-1.09-1.32-5.66,4.82-11.64,9.33-16.9,14.56-5.58,5.54-4.29,19.1,1.98,22.66-2.17-15.4,5.46-26.31,16.01-35.9ZM621.75,866.96c2.35-5.48,4.52-9.81,6.05-14.34,1.04-3.09-1.33-4.78-4.03-4.88-2.39-.08-4.93.53-7.2,1.38-3.43,1.28-4.57,3.73-2.32,7.05,2.13,3.14,4.33,6.23,7.5,10.79ZM560.47,870.84c2.13-2.87,3.62-5.03,5.28-7.06,2.27-2.79,4.5-5.73,2.09-9.31-2.52-3.74-6.53-2.56-9.97-1.84-2.68.56-4.34,2.52-3.01,5.6,1.75,4.04,3.58,8.05,5.61,12.62ZM224.56,726.16c-4.03-3.97-8.39-6.52-13.5-4.76-2.27.78-4.73,3.77-5.31,6.18-1.34,5.63,1.02,10.17,6.79,13.2.38-2.06.93-3.78.99-5.52.36-9.34,1.19-10.09,11.02-9.09ZM140.7,713.29c.64,0,1.28,0,1.92.01,2.29-4.73,4.63-9.43,6.81-14.21.45-.99.56-2.33.33-3.39-.94-4.32-4.5-4.97-8.04-4.92-1.03.01-2.96,1.8-2.91,2.68.41,6.62,1.21,13.22,1.89,19.83ZM428.57,517.24c5.03.12,9.09-3.73,13.46-6.75,2.39-1.65,4.11-4.17,1.84-6.67-1.95-2.14-4.91-3.36-7.43-4.99-1.25,2.08-2.79,4.04-3.69,6.26-1.54,3.79-2.69,7.73-4.18,12.14ZM679.65,799.35c7.58-4.98,15.09-9.92,22.6-14.86-.13-.26-.25-.51-.38-.77-9.68,2.22-19.37,4.43-28.98,6.63,2.37,3.16,4.41,5.87,6.75,9ZM504.85,858.61c5.5-3.26,9.77-5.67,13.87-8.34.85-.55,1.73-2.79,1.41-3.12-2.15-2.23-4.44-5.45-7.02-5.78-2.13-.27-5.84,2.5-6.82,4.8-1.41,3.28-.96,7.36-1.43,12.45ZM190.56,463.55c-.16-.52-.32-1.04-.49-1.56h-22.55c.81,3.78,1.62,7.53,2.65,12.34,7.3-3.86,13.85-7.32,20.39-10.78ZM845.23,598.77c.53.09,1.05.18,1.58.27,3.79-9.95,7.58-19.9,11.38-29.86-.22,0-.44-.02-.66-.03-5.22,6.29-10.44,12.59-15.98,19.26,1.06,2.98,2.37,6.66,3.68,10.34ZM439.38,410.96c.55,3.84.24,7.73,1.74,10.71,2.12,4.22,5.33,7.98,8.52,11.54,5.09,5.68,10.16,11.64,19.01,12.61-6.41-5.7-12.74-10.76-18.36-16.5-4.82-4.92-8.61-10.68-5.02-18.35h-5.89ZM169.11,718.59c.43.18.86.36,1.28.54,1.15-1.53,2.33-3.04,3.44-4.61,1.24-1.75,2.33-3.62,3.63-5.33,5.2-6.82,3.5-11.14-5.74-13.09-.87,7.53-1.74,15.01-2.61,22.49ZM342.23,242.45c-9.75,4.62-20.86,19.14-26.62,34.15,3.92,1.96,4.03,2.01,6.02-2.29,5.36-11.58,11.1-22.91,20.6-31.86ZM472.05,167.64c-.53-.64-1.05-1.28-1.58-1.91-3.99,2.51-8.59,4.42-11.81,7.7-3.09,3.16-5.55,7.48-6.83,11.73-1.4,4.65-.14,9.4,5.06,12.74-.35-2.68-.69-4.75-.88-6.85-.78-8.82,1.71-13.12,8.92-17.15,2.69-1.51,4.76-4.14,7.11-6.26ZM795.91,277.39c-.89-.17-1.78-.34-2.67-.51-.3,15.73-.6,31.47-8.07,45.78,11.58-13.42,11.58-29.26,10.74-45.27ZM521.32,595.54c.64-1,1.29-1.6,1.42-2.29,2.31-12.02.8-23.96-1.7-35.69-1.01-4.72-5.24-6.92-9.82-6.77,11.53,13.06,9.72,28.87,10.1,44.75ZM490.75,525.88c-.34.42-.68.85-1.02,1.27,7.92,6.43,15.83,12.86,24.38,19.8.78-8.41-13.05-19.95-23.36-21.08ZM337.94,294.09c.87-10.32,1.67-19.91,2.5-29.72-8.89,6.43-10.21,20.73-2.5,29.72ZM181.9,445.39c-5.3-.61-9.51-1.41-13.72-1.44-1.82-.01-3.64,1.57-5.46,2.42,1.13,2.31,1.98,4.84,3.51,6.84.66.86,2.8,1.02,4.16.82,4.66-.72,8.16-3.28,11.52-8.64ZM528.89,615.83c.27-.17.6-.29.79-.52,9.2-11.48,10.22-24.91,8.86-38.75-.4-4.04-3.3-6.82-7.39-7.85-1.36-.34-2.82-.25-4.24-.36-.1,1.47-.19,2.95-.28,4.28,3.68.84,8.2-2.1,9.05,3.52,2.11,13.97,1,27.39-6.8,39.68ZM741.93,377.97c-13.41,3.91-26.83,7.83-41.17,12.02,16.16,2.23,29.05-3.8,41.17-12.02ZM839.25,509.9c11.86-9.09,17.57-21.46,19.71-35.73-6.57,11.91-13.14,23.82-19.71,35.73ZM718.43,150.24c-5.73-.76-12.38-4.09-19.14,1.99-3.33,2.99-8.24,4.22-12.68,6.36,7.33,5.32,8.64,5.08,13.43-1.59.92-1.29,2.21-2.76,3.62-3.17,5.08-1.47,10.29-2.53,14.77-3.58ZM703.66,734.32c1.22,5.1,4,10.71,3.4,15.93-.59,5.18-4.57,9.98-7.02,14.84,3.19,1.08,6.22-.46,7.34-4.31,1.7-5.82,3.27-11.78,3.89-17.78.49-4.81-3.27-8-7.61-8.69ZM693.34,759.79c6.51,1.46,8.23-2.85,9.85-6.71,2.4-5.72,1.27-11.84-2.13-14.1-4.15-2.76-8.64-2.64-11.84.34,7.52.31,9.8,2.07,10.94,7.41,1.29,6.04-4.96,8.08-6.81,13.07ZM698.61,579.85c-.3-.18-.59-.37-.89-.55-3.46,1.81-7.1,3.35-10.33,5.51-3.08,2.06-5.74,4.77-8.83,7.42-2.48-2.83-4.94-5.63-7.4-8.44-.4.25-.79.5-1.19.75,1.57,2.74,3.27,5.41,4.68,8.23,2.51,5.01,4.44,5.2,8.53,1.39,4.05-3.77,8.59-7.01,12.8-10.63,1.11-.95,1.76-2.43,2.62-3.67ZM502.69,188.06c-3.45-6.56-9.01-9.24-15.87-7.89,2.09,10.92,6.2,13.04,15.87,7.89ZM615.64,372.24c.7.33,2.24,1.72,3.5,1.51,7.16-1.22,14.25-2.82,21.44-4.31-4.74-7.13-6.57-7.66-11.03-4.7-4.16,2.76-8.81,4.79-13.91,7.5ZM645.81,782.14c14.12-2.85,27.4-5.53,40.22-8.12-5.65-3.19-34.77,1.91-40.22,8.12ZM441.98,401.34c-.8-7.79-1.6-15.58-2.5-24.3-6.58,6.61-5.4,19.44,2.5,24.3ZM235.08,358.89c-.31.6-.88,1.24-.95,1.94-.07.71.3,1.48.57,2.19q4.42,11.5-4.24,20.66c-.46.48-1.05.89-1.34,1.46-.76,1.52-1.39,3.1-2.07,4.66.54.37,1.08.73,1.61,1.1,3.62-3.7,7.72-7.06,10.67-11.23,1.42-2,1.43-5.72.76-8.32-1.07-4.22-3.23-8.16-5.02-12.44ZM424.72,177.27c9.58-5.09,8.88-15.38-2.29-27.34,5.25,9.27,2.28,18.37,2.29,27.34ZM666.77,627.89c4.72,3.42,8.76,6.36,13.23,9.6-1.22-6.73-2.25-12.43-3.3-18.24-3.03,2.64-6.12,5.32-9.93,8.64ZM681.57,208.43c7.01-1.61,12.55-2.88,18.96-4.35-3.84-1.75-7.09-3.69-10.6-4.68-2.31-.65-6.31-.87-7.23.4-1.41,1.94-.82,5.34-1.13,8.63ZM845.1,415.07c.87,8.98-1.49,18.49,4.2,26.69,1.59-9.34.96-18.35-4.2-26.69ZM356.15,372.36c-2.03-9.86-1.24-19.35,2.42-28.73.65-1.68-.16-3.93-.3-5.91l-1.74.09c-2.74,11.49-8.13,22.92-.38,34.55ZM471.29,207.32c-3.33-8.19-6.58-16.16-9.79-24.03-4.21,8.63.67,20.7,9.79,24.03ZM714.39,699.81c3.83,1.27,8.46,1.64,11.3,4.08,3.01,2.59,4.31,7.16,5.82,9.87.9-4.61-.5-10.09-4.29-14.88-4.51-5.71-10.6-4.83-12.83.92ZM225.85,514.87c5.06,3.97,9.36,7.34,14.2,11.14.34-4.67.64-8.76.96-13.07-5.48.69-10,1.27-15.16,1.92ZM671.98,769.53c-13.52,2.7-27.62,3.36-40.02,10.01.19.64.37,1.27.56,1.91,13.15-3.97,26.31-7.94,39.46-11.92ZM196.53,496.8c10.21-4.01,21.78-8.55,32.62-12.81-11.06-2.83-27.66,7-32.62,12.81ZM181.55,487.53c-3.34-3.13-6.34-5.95-9.34-8.77-.41.24-.83.47-1.24.71v13.67c4.27-2.26,7.27-3.86,10.58-5.61ZM858.67,399.52c.3,6.41.61,13.15.95,20.4,7.87-5.08,6.7-15.09-.95-20.4ZM220.81,304.49c4.68,9.74,3.49,19.4.61,29.13-.6,2.04-1,4.14-1.79,7.48,3.76-1.47,6.11-2.38,9.21-3.59-6.14-3.64-4.33-8.51-3.74-13.21.9-7.13.35-14.01-4.3-19.81ZM790.53,270.92c-2.53-14.48-22.57-19.87-34.41-9.48,1.71,1.03,3.38,2.04,4.06,2.45,2.18-1.96,3.74-4.39,5.87-5.11,11.95-4.02,18.24,3.96,24.48,12.14ZM280.15,391.53c.18.47.37.94.55,1.41,1.11-.45,2.54-.61,3.27-1.4,1.66-1.81,2.81-4.1,4.49-5.88,3.65-3.88,6.86-8.18,13.01-8.85,2.75-.3,5.26-2.73,7.88-4.19-.33-.5-.66-1.01-.99-1.51-12.67,2.24-20.17,11.71-28.21,20.43ZM589.45,405.26c10.42-5.27,21.15-10.7,31.5-15.94-8-.97-23.96,7.07-31.5,15.94ZM818.4,335.99c-8,5.06-11.71,16.35-8.43,24.52,2.76-8.01,5.51-16.03,8.43-24.52ZM403.87,737.37c-16.87-1.46-33.99-4-46.61,11.21,13.76-11.09,29.59-13.66,46.61-11.21ZM747.44,582.28c-5.77-3.1-11.36-6.1-17.13-9.2-.88,1.62-1.64,3-2.47,4.52-2.48-.87-4.75-1.66-7.01-2.46-.29.35-.58.71-.88,1.06.85.81,1.62,2.2,2.58,2.36,8.17,1.35,16.37,2.48,24.9,3.72ZM178.83,367.57c3.76-1.38,6.94-2.26,9.78-3.77.81-.43,1.25-3.71.79-4-1.99-1.27-4.34-2.4-6.63-2.55-.94-.06-2.42,2.36-2.98,3.9-.68,1.87-.63,4-.95,6.42ZM586.62,385.21c7.63-2.29,16.04-4.81,24.21-7.26-9.72-4.03-18.26-1.22-24.21,7.26ZM384.3,778.03c3.83.55,5.43-2.29,6.19-5.36,1.9-7.74,3.44-15.57,5.09-23.37.04-.17-.24-.4-.59-.95-3.61,10.01-7.12,19.75-10.69,29.67ZM540.09,422.53c17.11-3.5,27.02-16.59,37.79-28.54-12.02,10.28-21.67,23.71-37.79,28.54ZM771.71,272.96c3.1,7.19,6.27,14.52,9.09,21.06,3.83-6.74.05-16.37-9.09-21.06ZM651.12,259.97c-1.38,5.41,2.32,14.74,7.49,18.13,7.58,4.98,19.7,6.7,24.34,2.23-18.25,3.1-25.88-1.78-31.84-20.36ZM418.3,176.45c4.74-9.52,3.77-25.77,0-28.1v28.1ZM534.28,267.74c-12.7,10.35-27.4,5.75-42.19,6.09,1.91,2.25,3.12,3.67,3.52,4.14,3.89-.8,6.75-1.69,9.66-1.93,8.39-.7,17.04.15,24.72-4.32,1.65-.96,2.88-2.63,4.3-3.98ZM303.34,581.67c.47-.57.93-1.14,1.4-1.72-5.29-5.49-7.94-11.84-5.89-20.54-6.16,6.98-3.78,12.82-.46,18.39,1,1.68,3.27,2.6,4.95,3.86ZM364.62,504.05c4.04-12.65,1.85-23.51-8.74-31.95,6.14,9.72,11.25,19.75,8.74,31.95ZM323.95,292.7c.57,13.42,12.25,23.68,23.3,21.08-12.99-.47-17.88-10.04-23.3-21.08ZM526.38,439.01c-7.61,2.99-14.54,5.72-21.47,8.45.27.72.55,1.45.82,2.17,6.83-2.47,13.67-4.89,20.44-7.51.37-.14.14-1.82.21-3.11ZM274.39,311.55c4,9.51,12.18,9.63,19.43,5.87-6.29-1.9-12.96-3.92-19.43-5.87ZM725.65,556.28c-.12-.2-.24-.39-.36-.59-1.65,2.11-3.21,4.29-4.95,6.32-2.35,2.75-4.66,5.58-7.31,8.02-4.18,3.86-8.11.58-12.76-1.87,4,5.63,7.95,8.15,13.26,4.08,2.48-1.91,4.86-4.13,6.72-6.63,2.13-2.87,3.64-6.2,5.41-9.33ZM471.89,175.98c-3.81,6.26-1.73,18.81,3.7,25.69-1.24-8.61-2.4-16.64-3.7-25.69ZM251.27,263.8c1.95,7.12,3.74,13.66,5.6,20.49,4.27-3.75.82-16.12-5.6-20.49ZM358.67,330.45c3.56,8.28,16.14,14.47,19.08,10.79-6.14-3.47-12.39-7.01-19.08-10.79ZM189.41,468.4c-.43-.31-.85-.63-1.28-.94-2.87,2.82-5.97,5.45-8.47,8.57-.66.82.54,3.12.89,4.74,1.23-.48,3.07-.61,3.58-1.49,1.99-3.49,3.55-7.23,5.28-10.87ZM434.76,173.38c-.64-.09-1.27-.19-1.91-.28-1.23,4.28-2.47,8.56-3.69,12.82,6.29,2.28,6.79,2.03,6.63-3.92-.08-2.88-.67-5.75-1.02-8.63ZM432.32,678.37c4.9-10.66,5.49-21.83,2.79-34.44-1,12.29-1.9,23.42-2.79,34.44ZM677.65,606.34c-.44-.36-.89-.71-1.33-1.07-4.62,6.57-9.24,13.14-13.86,19.71,7.04-4.76,13.1-10.24,15.2-18.64ZM394.65,354.56c7.38,8.18,15.94,10.43,26.13,9.84-.45-1.82-.87-3.54-1.21-4.89-10.01,6.8-16.05-2.53-24.92-4.95ZM347.84,346.05c-10.47,2.23-20.94,4.46-31.42,6.7,5.4,1.89,21.55-1.16,31.42-6.7ZM447.17,193.67c1.19-6.68,2.34-13.13,3.42-19.23-7.38,6.23-9.14,16.89-3.42,19.23ZM776.89,532.96c4.41-.82,8.04-2.13,11.62-1.98,3.32.13,6.58,1.8,9.87,2.79-8.42-7.46-15.45-8.09-21.49-.81ZM160.92,502.22c1.15,5.49,2.5,6.22,8.43,4.05,1.22-.45,1.99-2.13,2.97-3.25-1.28-.88-2.58-2.51-3.83-2.47-2.54.08-5.06,1.06-7.57,1.66ZM128.42,568.53c.29-.11.57-.22.86-.33-1.73-7.03-3.45-14.06-5.18-21.09-1.71,1.57-3.28,3.75-2.77,5.18,2,5.54,4.66,10.85,7.08,16.25ZM768.74,218.09c4.26-5.59,2.37-15.95-3.48-19.64,1.13,6.4,2.32,13.07,3.48,19.64ZM699.74,695.57c5.57-2.42,10.87-4.72,15.81-6.86-7.18-3.18-16.11.37-15.81,6.86ZM422.53,214.22c1.1-3.8,1.94-6.7,2.98-10.28-3.57.42-6.72.78-10.6,1.23,2.91,3.45,5.09,6.04,7.62,9.04ZM251.68,424.86c-6.84-1.51-19.36,4.43-20.7,8.71,3.61-1.56,7.04-3.07,10.49-4.52,3.39-1.43,6.81-2.79,10.21-4.18ZM767.34,296.83c.54,6.62,1.08,13.24,1.61,19.86,4.29-6.89,2.74-13.45-1.61-19.86ZM428.44,459.34c-.35-.29-.71-.59-1.06-.88-1.75,2.1-3.89,4.01-5.08,6.39-.53,1.05.86,3.06,1.38,4.64,1.59-.9,4.12-1.49,4.56-2.78.76-2.22.21-4.89.21-7.37ZM724.26,175.13c5.47-6.3,11.14-11.07,19.45-11.4-5.72.47-11.17,1.74-16.48,3.43-3.46,1.11-4.7,3.7-2.96,7.97ZM456.81,157.24c-.51.19-1.02.38-1.53.56,0,2.41-.06,4.83.02,7.24.07,2.05.13,4.36,3.29,3.17,2.3-.87,4.43-2.28,2.87-5.1-1.19-2.15-3.07-3.93-4.65-5.87ZM822.98,518.6c.61.42,1.23.84,1.84,1.26,5.01-6.97,10.02-13.94,15.03-20.9-.52-.37-1.04-.74-1.55-1.11-5.1,6.92-10.21,13.84-15.31,20.76ZM489.1,274.86c.06-.35.13-.71.19-1.06-6.42-1.5-12.85-3.01-19.68-4.61.15,2.64.3,5.29.45,7.95.31-.02.62-.05.92-.07.71-1.6,1.41-3.2,2.01-4.55,5.64.82,10.87,1.58,16.1,2.34ZM149.14,406.34c-4.21-4.93-9.15-10.72-14.22-16.66-1.01,5.9,7.87,15.3,14.22,16.66ZM358.18,538.27h-1.19c-.15,2.66-.5,5.34-.41,8,.26,7.26-.89,8.51-8.38,8.68-.64.01-1.27.28-1.9.43,3.38.36,6.7.24,9.86-.52,1.23-.29,3.03-2,3.03-3.05-.02-4.52-.62-9.03-1.01-13.55ZM205.79,291.82c.32.31.64.62.96.93,2.35-1.4,4.71-2.8,7.31-4.34-1.07-2.97-2.07-5.75-3.56-9.9-1.92,5.41-3.32,9.36-4.72,13.31ZM446.58,499.88c-.56-6.06-5.01-10.65-10.15-10.51-3.8.1-5.74,2.44-5.96,6.71,4.83-5.99,7.66-5.29,16.11,3.79ZM864.4,348.47c-.52.39-1.03.79-1.55,1.18,2.27,1.55,4.39,3.49,6.88,4.48,1.18.47,3.24-.64,4.6-1.5.71-.45.76-1.92,1.11-2.93-1.41-.41-2.81-1.04-4.24-1.17-2.25-.2-4.53-.05-6.8-.05ZM428.6,404.67l-.13,1.78c7.46-.41,14.98,1.91,22.36-1.78h-22.23ZM375.38,387.35c-10.28-2.34-19.15-7.23-27.35-15.51,3.84,8.23,19.1,16.62,27.35,15.51ZM650,356.66c-.39-.09-.78-.19-1.17-.28-.65,2.54-1.29,5.08-2,7.89-3.69-2.05-7.06-3.92-10.42-5.79-.16.3-.32.6-.47.9,3.64,2.82,7.29,5.64,11.38,8.81.93-4,1.81-7.76,2.69-11.53ZM441.32,179.59c.7-.05,1.41-.1,2.11-.15-.56-5.35-1.12-10.7-1.68-16.05-.73.06-1.46.12-2.19.19-1.9,5.51,2.4,10.59,1.76,16.01ZM427.26,688.19c-.51-.52-1.02-1.05-1.52-1.57-5.32,5.81-10.64,11.63-15.96,17.44.42.39.84.78,1.27,1.17,5.41-5.68,10.81-11.36,16.22-17.04ZM279.46,420.31l-.07-1.31-26.39,3.53c.07.55.13,1.1.2,1.65,8.75-1.29,17.51-2.58,26.26-3.87ZM412.24,666.97l1.78-.2c-.91-7.26-1.82-14.53-2.72-21.79l-1.29.18c.74,7.27,1.49,14.54,2.23,21.82ZM782.16,381.54c-.57-6-1.12-11.74-1.74-18.22-2.88,4.93-1.88,13.48,1.74,18.22ZM325.52,548.98c4.94,5.04,13.32,7.35,17.45,5.5-5.45-1.72-10.9-3.43-17.45-5.5ZM181.44,311.37c2.24,9.57,5.56,14.21,11.38,16.36-3.73-5.36-7.17-10.3-11.38-16.36ZM401.14,310.42c-.26.54-.53,1.07-.79,1.61,6.76,3.19,13.52,6.38,20.29,9.57.2-.4.4-.81.6-1.21-6.7-3.32-13.39-6.65-20.09-9.97ZM206.96,715.05c-5.36-5.08-9.05-12.19-16.6-14.75,5.53,4.92,11.07,9.84,16.6,14.75ZM695,746.97l-.95-1.74c-1.62.26-3.5.08-4.8.87-3.9,2.36-6.22,8.94-4.99,14.89.96-7.3,2.81-12.97,10.74-14.01ZM650.81,357.49c1.61,6.52,3.21,13.03,5.03,20.4,1.21-8.01-1.66-14.27-5.03-20.4ZM480.95,455.67c.21-.8.41-1.59.62-2.39-5.43-1.03-10.86-2.07-16.3-3.1-.1.42-.21.85-.31,1.27,5.33,1.41,10.66,2.81,15.98,4.22ZM489.27,444.26c-7.95,5.88-12.84-2.45-20.06-4.45,9.64,7.72,12.95,10.86,20.06,4.45ZM742.2,539.11c-4.79-1.43-7.11,1.57-8.25,10.22,2.68-3.33,5.37-6.66,8.25-10.22ZM539,431.22c-.65.22-1.29.45-1.94.67,1.22,4.66,2.44,9.32,3.66,13.98l2.27-.63c-1.33-4.67-2.66-9.35-4-14.02ZM133.7,342.79c.28.39.56.78.84,1.17,5.25-4.56,10.5-9.11,15.75-13.67-.31-.37-.62-.73-.92-1.1l-15.67,13.6ZM891.72,334.17c-3.33,4.15-6.09,7.59-8.85,11.04,3.77-2.19,7.03-5.09,10.06-8.21.29-.3-.83-1.96-1.21-2.83ZM433.66,468.77l1.87-.8-3.8-12.48c-.57.18-1.15.36-1.72.54,1.22,4.25,2.44,8.5,3.65,12.74ZM745.36,345.99c4.07-3.42,7.07-5.95,10.07-8.47-1.96-.06-3.32.8-4.8,1.33-1.68.6-3.47.91-5.59,1.44.08,1.42.16,2.93.31,5.71ZM381.61,337.02c.4,5.71,5.83,13.57,9.91,14.78-3.19-4.75-6.43-9.59-9.91-14.78ZM398.41,398.83c.27-.4.54-.8.8-1.2-5.1-3.48-10.21-6.95-15.31-10.43-.29.43-.58.86-.87,1.29,5.12,3.44,10.25,6.89,15.37,10.33ZM276.65,570.39c-2.5-5.58-4.51-10.04-6.75-15.04-.08,6.05,1.32,10.78,6.75,15.04ZM429.45,367.4c4.93,5.56,11.5,5.39,17.84,5.96-5.78-1.93-11.56-3.86-17.84-5.96ZM685.01,700.41c-.18.78-.36,1.56-.54,2.34,2.13.74,4.22,1.67,6.41,2.05.38.07,1.17-2.22,1.76-3.41-2.54-.33-5.09-.65-7.63-.98ZM410.89,370.36c-.57-.03-1.13-.06-1.7-.09-.24,4.7-.47,9.4-.71,14.1.47.03.94.05,1.41.08.33-4.69.67-9.39,1-14.08ZM676.89,640.86c.19-.37.39-.75.58-1.12-5.19-2.69-10.38-5.38-15.57-8.08-.17.33-.34.66-.51,1,5.17,2.73,10.33,5.47,15.5,8.2ZM767.97,527.68c.03-.41.07-.81.1-1.22-5.38-.36-10.76-.71-16.14-1.07-.03.36-.06.72-.09,1.08,5.38.41,10.75.81,16.13,1.22ZM763.96,716.9c.47-.04.95-.08,1.42-.12-.47-4.7-.95-9.4-1.42-14.11-.38.03-.75.06-1.13.09.38,4.71.75,9.42,1.13,14.13ZM343.42,449.77c.26-.37.52-.73.78-1.1-5.21-3.09-10.41-6.18-15.62-9.27-.25.44-.51.88-.76,1.32,5.2,3.02,10.4,6.03,15.6,9.05ZM663.76,106.77c-.53.03-1.05.05-1.58.08v9.03l2.16-.08c-.19-3.01-.38-6.02-.57-9.03Z" stroke-width="0"/></svg>